<svg xmlns="http://www.w3.org/2000/svg" width="80" height="80" fill="none" viewBox="0 0 80 80"><rect width="28.127" height="27.345" x="29.157" y="32.063" fill="#fdd335" rx="5.469"/><g fill="#000" fill-rule="evenodd" clip-rule="evenodd"><path d="M30.72 24.25a8.594 8.594 0 0 0-8.595 8.595v24.22a8.594 8.594 0 0 0 8.594 8.594h24.22a8.594 8.594 0 0 0 8.595-8.594v-12.11a1.563 1.563 0 0 1 3.125 0v12.11c0 6.472-5.247 11.72-11.72 11.72H30.72C24.247 68.784 19 63.536 19 57.064v-24.22c0-6.473 5.247-11.72 11.72-11.72h12.11a1.563 1.563 0 0 1 0 3.125z"/><path d="M55.72 19.953a1.563 1.563 0 0 1 0-3.125h12.892c.863 0 1.563.7 1.563 1.563V30.5a1.563 1.563 0 0 1-3.125 0v-8.338L34.168 55.045a1.563 1.563 0 1 1-2.21-2.21L64.84 19.953z"/></g></svg>