<svg xmlns="http://www.w3.org/2000/svg" width="240" height="240" fill="none" viewBox="0 0 240 240"><path fill="#fff" d="M100.4 105.996a5.6 5.6 0 0 1 5.6-5.6h28a5.6 5.6 0 0 1 5.6 5.6v28a5.6 5.6 0 0 1-5.6 5.6h-28a5.6 5.6 0 0 1-5.6-5.6v-28Z"/><path fill="#191919" fill-rule="evenodd" d="M134 103.196h-28a2.8 2.8 0 0 0-2.8 2.8v28a2.8 2.8 0 0 0 2.8 2.8h28a2.8 2.8 0 0 0 2.8-2.8v-28a2.8 2.8 0 0 0-2.8-2.8Zm-28-2.8a5.6 5.6 0 0 0-5.6 5.6v28a5.6 5.6 0 0 0 5.6 5.6h28a5.6 5.6 0 0 0 5.6-5.6v-28a5.6 5.6 0 0 0-5.6-5.6h-28Z" clip-rule="evenodd"/><path fill="#FDD335" d="M136.8 105.996a5.6 5.6 0 0 1 5.6-5.6h28a5.6 5.6 0 0 1 5.6 5.6v28a5.6 5.6 0 0 1-5.6 5.6h-28a5.6 5.6 0 0 1-5.6-5.6v-28Z"/><path fill="#191919" fill-rule="evenodd" d="M170.4 103.196h-28a2.8 2.8 0 0 0-2.8 2.8v28a2.8 2.8 0 0 0 2.8 2.8h28a2.8 2.8 0 0 0 2.8-2.8v-28a2.8 2.8 0 0 0-2.8-2.8Zm-28-2.8a5.6 5.6 0 0 0-5.6 5.6v28a5.6 5.6 0 0 0 5.6 5.6h28a5.6 5.6 0 0 0 5.6-5.6v-28a5.6 5.6 0 0 0-5.6-5.6h-28Z" clip-rule="evenodd"/><path fill="#FDD335" d="M64 105.996a5.6 5.6 0 0 1 5.6-5.6h28a5.6 5.6 0 0 1 5.6 5.6v28a5.6 5.6 0 0 1-5.6 5.6h-28a5.6 5.6 0 0 1-5.6-5.6v-28Z"/><path fill="#191919" fill-rule="evenodd" d="M97.6 103.196h-28a2.8 2.8 0 0 0-2.8 2.8v28a2.8 2.8 0 0 0 2.8 2.8h28a2.8 2.8 0 0 0 2.8-2.8v-28a2.8 2.8 0 0 0-2.8-2.8Zm-28-2.8a5.6 5.6 0 0 0-5.6 5.6v28a5.6 5.6 0 0 0 5.6 5.6h28a5.6 5.6 0 0 0 5.6-5.6v-28a5.6 5.6 0 0 0-5.6-5.6h-28Z" clip-rule="evenodd"/><path fill="#FDD335" d="M100.398 142.4a5.6 5.6 0 0 1 5.6-5.6h28a5.6 5.6 0 0 1 5.6 5.6v28a5.6 5.6 0 0 1-5.6 5.6h-28a5.6 5.6 0 0 1-5.6-5.6v-28Z"/><path fill="#191919" fill-rule="evenodd" d="M133.998 139.6h-28a2.8 2.8 0 0 0-2.8 2.8v28a2.8 2.8 0 0 0 2.8 2.8h28a2.8 2.8 0 0 0 2.8-2.8v-28a2.8 2.8 0 0 0-2.8-2.8Zm-28-2.8a5.6 5.6 0 0 0-5.6 5.6v28a5.6 5.6 0 0 0 5.6 5.6h28a5.6 5.6 0 0 0 5.6-5.6v-28a5.6 5.6 0 0 0-5.6-5.6h-28Z" clip-rule="evenodd"/><path fill="#FDD335" d="M100.398 69.6a5.6 5.6 0 0 1 5.6-5.6h28a5.6 5.6 0 0 1 5.6 5.6v28a5.6 5.6 0 0 1-5.6 5.6h-28a5.6 5.6 0 0 1-5.6-5.6v-28Z"/><path fill="#191919" fill-rule="evenodd" d="M133.998 66.8h-28a2.8 2.8 0 0 0-2.8 2.8v28a2.8 2.8 0 0 0 2.8 2.8h28a2.8 2.8 0 0 0 2.8-2.8v-28a2.8 2.8 0 0 0-2.8-2.8Zm-28-2.8a5.6 5.6 0 0 0-5.6 5.6v28a5.6 5.6 0 0 0 5.6 5.6h28a5.6 5.6 0 0 0 5.6-5.6v-28a5.6 5.6 0 0 0-5.6-5.6h-28Z" clip-rule="evenodd"/></svg>