<svg xmlns="http://www.w3.org/2000/svg" width="65" height="65" fill="none" viewBox="0 0 65 65"><path fill="#fff" d="M.5.5h64v64H.5z"/><g fill="#000" fill-rule="evenodd" clip-rule="evenodd"><path d="M32.941 5.103a4.36 4.36 0 0 1 4.36 4.304l.068 5.451a4.36 4.36 0 0 0 4.411 4.304l6.224-.074a4.36 4.36 0 0 1 4.412 4.36v28.101a1.341 1.341 0 0 0 2.683 0V23.448a7.042 7.042 0 0 0-7.126-7.042l-6.224.074a1.677 1.677 0 0 1-1.697-1.656l-.07-5.45a7.042 7.042 0 0 0-7.04-6.954h-17.08A7.042 7.042 0 0 0 8.82 9.462V53.73a7.042 7.042 0 0 0 7.042 7.042h32.362a1.341 1.341 0 1 0 0-2.682H15.862a4.36 4.36 0 0 1-4.36-4.36V9.462a4.36 4.36 0 0 1 4.36-4.36z"/><path d="M34.45 3.3c-.44.477-.41 1.22.067 1.66L51.62 20.72a1.174 1.174 0 0 0 1.591-1.725L36.108 3.233a1.174 1.174 0 0 0-1.658.068zM18.21 32.434c0-.648.525-1.174 1.174-1.174h19.785a1.174 1.174 0 1 1 0 2.348H19.384a1.174 1.174 0 0 1-1.174-1.174zM57.65 61.026c-.429.485-1.17.53-1.656.101l-9.051-8.009a1.174 1.174 0 1 1 1.555-1.758l9.052 8.009c.485.43.53 1.171.1 1.657zM18.21 39.476c0-.648.525-1.174 1.174-1.174h14.755a1.174 1.174 0 0 1 0 2.348H19.384a1.174 1.174 0 0 1-1.174-1.174zM18.21 46.519c0-.648.525-1.174 1.174-1.174h9.725a1.174 1.174 0 0 1 0 2.347h-9.725a1.174 1.174 0 0 1-1.174-1.173z"/></g><path fill="#fdd335" d="M19.876 21.543c-1.341-1.61-1.565-7.043-1.509-9.558.727-.168 2.549-.637 4.024-1.174 1.476-.536 2.516-1.788 2.85-2.347.392.503 1.51 1.676 2.851 2.347s3.242.727 4.025.67c.335 2.237.737 7.278-.336 9.559s-4.806 4.08-6.54 4.694c-1.229-.726-4.023-2.582-5.365-4.192z"/><path fill="#000" d="M25.207 9.743c-1.552 1.684-3.532 2.51-5.954 2.45v.292c0 1.74-.002 3.48 0 5.221.005 3.287 2.36 6.224 5.744 7.155.143.04.322.044.462.002 2.988-.9 4.828-2.805 5.586-5.62.136-.507.157-1.048.17-1.575.027-1.002.006-2.006.01-3.008.002-.493.366-.835.881-.841.444-.006.815.277.814.69-.003 1.45.083 2.91-.079 4.346-.252 2.239-1.394 4.11-3.183 5.624a9.248 9.248 0 0 1-4.025 1.993 1.759 1.759 0 0 1-.807-.002c-3.866-1.06-6.225-3.45-7.112-7.097-.13-.535-.159-1.1-.164-1.651-.018-2.064-.008-4.127-.007-6.19 0-.598.363-.932 1.012-.934.862-.002 1.73.049 2.57-.178 1.463-.394 2.56-1.225 3.29-2.469.17-.292.4-.48.765-.5.398-.02.675.145.862.47.567.99 1.404 1.721 2.489 2.202.74.329 1.524.488 2.347.476.382-.005.765-.009 1.147.002.464.013.825.322.893.746.053.331-.177.67-.54.796-.042.014-.085.032-.128.034-2.036.102-4.008-.06-5.688-1.294-.472-.346-.895-.75-1.355-1.14z"/><path fill="#000" d="m24.364 18.263 1.605-1.497c.39-.363.772-.734 1.172-1.087.56-.494 1.305-.3 1.487.377.074.277-.026.512-.23.703a456.94 456.94 0 0 1-3.416 3.178.875.875 0 0 1-1.2 0 72.205 72.205 0 0 1-1.7-1.58.781.781 0 0 1-.008-1.146c.31-.292.853-.297 1.203.015.366.326.708.674 1.087 1.037z"/><path fill="#000" fill-rule="evenodd" d="M42.523 42.495a5.03 5.03 0 1 0 0 10.06 5.03 5.03 0 0 0 0-10.06zm-7.378 5.03a7.378 7.378 0 1 1 14.755 0 7.378 7.378 0 0 1-14.755 0z" clip-rule="evenodd"/><path fill="#000" fill-rule="evenodd" d="M43.048 44.723a2.85 2.85 0 0 0-3.375 2.801.67.67 0 1 1-1.342 0 4.192 4.192 0 0 1 4.964-4.12.67.67 0 0 1-.247 1.319z" clip-rule="evenodd"/><path fill="#fdd335" d="M46.634 37.79c-.796-.154-1.959.171-1.931-1.138.026-1.227 1.135-.945 1.932-1.107.142-.819-.097-1.997 1.228-1.935 1.142.053.943 1.091 1.017 1.897.774.242 2.015-.131 1.966 1.23-.045 1.243-1.16.897-1.935 1.051-.162.797.171 1.959-1.127 1.957-1.284-.003-.99-1.15-1.15-1.954z"/></svg>