<svg xmlns="http://www.w3.org/2000/svg" width="240" height="240" fill="none" viewBox="0 0 240 240"><path fill="#FDD335" d="M60 150.776c0-5.526 4.651-10.006 10.389-10.006h57.138c5.738 0 10.389 4.48 10.389 10.006 0 5.527-4.651 10.007-10.389 10.007H70.389c-5.738 0-10.389-4.48-10.389-10.007Z"/><path fill="#191919" fill-rule="evenodd" d="M127.527 143.271H70.389c-4.303 0-7.792 3.36-7.792 7.505s3.489 7.506 7.792 7.506h57.138c4.303 0 7.792-3.361 7.792-7.506s-3.489-7.505-7.792-7.505Zm-57.138-2.501C64.65 140.77 60 145.25 60 150.776c0 5.527 4.651 10.007 10.389 10.007h57.138c5.738 0 10.389-4.48 10.389-10.007 0-5.526-4.651-10.006-10.389-10.006H70.389Z" clip-rule="evenodd"/><path fill="#FDD335" d="M60 135.767c0-5.527 4.651-10.007 10.389-10.007h57.138c5.738 0 10.389 4.48 10.389 10.007 0 5.526-4.651 10.007-10.389 10.007H70.389c-5.738 0-10.389-4.481-10.389-10.007Z"/><path fill="#191919" fill-rule="evenodd" d="M127.527 128.261H70.389c-4.303 0-7.792 3.361-7.792 7.506s3.489 7.505 7.792 7.505h57.138c4.303 0 7.792-3.36 7.792-7.505s-3.489-7.506-7.792-7.506Zm-57.138-2.501C64.65 125.76 60 130.24 60 135.767c0 5.526 4.651 10.007 10.389 10.007h57.138c5.738 0 10.389-4.481 10.389-10.007 0-5.527-4.651-10.007-10.389-10.007H70.389Z" clip-rule="evenodd"/><path fill="#FDD335" d="M60 120.758c0-5.527 4.651-10.007 10.389-10.007h57.138c5.738 0 10.389 4.48 10.389 10.007 0 5.527-4.651 10.007-10.389 10.007H70.389c-5.738 0-10.389-4.48-10.389-10.007Z"/><path fill="#191919" fill-rule="evenodd" d="M127.527 113.253H70.389c-4.303 0-7.792 3.36-7.792 7.505s3.489 7.505 7.792 7.505h57.138c4.303 0 7.792-3.36 7.792-7.505s-3.489-7.505-7.792-7.505Zm-57.138-2.502c-5.738 0-10.389 4.48-10.389 10.007 0 5.527 4.651 10.007 10.389 10.007h57.138c5.738 0 10.389-4.48 10.389-10.007 0-5.527-4.651-10.007-10.389-10.007H70.389Z" clip-rule="evenodd"/><path fill="#FDD335" d="M180 109.451c0 25.102-21.047 45.451-47.009 45.451s-47.01-20.349-47.01-45.451S107.03 64 132.992 64 180 84.35 180 109.451Z"/><path fill="#191919" fill-rule="evenodd" d="M132.991 152.229c24.435 0 44.244-19.152 44.244-42.778 0-23.625-19.809-42.777-44.244-42.777S88.747 85.826 88.747 109.45c0 23.626 19.809 42.778 44.244 42.778Zm0 2.673c25.962 0 47.009-20.349 47.009-45.451S158.953 64 132.991 64s-47.01 20.35-47.01 45.451c0 25.102 21.048 45.451 47.01 45.451Z" clip-rule="evenodd"/><path fill="#fff" d="M158.193 158.936c-.639 1.561-2.042 2.717-3.74 3.08l-53.138 11.375c-2.805.6-5.566-1.1-6.167-3.799l-7.618-34.197c-.602-2.698 1.184-5.372 3.989-5.972l53.138-11.375c1.698-.363 3.465.114 4.71 1.271l18.139 16.871-9.313 22.746Z"/><path fill="#191919" fill-rule="evenodd" d="M158.16 158.922c-.639 1.561-2.043 2.717-3.74 3.08l-53.139 11.375c-2.804.6-5.565-1.101-6.166-3.799l-7.619-34.197c-.6-2.698 1.185-5.372 3.99-5.972l53.138-11.375c1.698-.363 3.465.114 4.71 1.271l18.139 16.871-9.313 22.746Zm11.566-21.449.234-1.218-.072-1.337h-.014l-18.73-17.42c-1.867-1.736-4.518-2.452-7.064-1.907l-53.139 11.375c-4.206.901-6.885 4.911-5.984 8.958l7.62 34.198c.9 4.047 5.042 6.598 9.249 5.697l53.138-11.374c2.547-.545 4.652-2.279 5.61-4.62l9.152-22.352Z" clip-rule="evenodd"/><path fill="#191919" d="m137.714 146.15-.728-2.968 8.109-11.993 2.906-.562-6.232 9.463-1.123 1.797-2.932 4.263Zm-1.412 4.58-3.445-17.173 2.549-.493 3.445 17.173-2.549.493Zm12.645-2.447-8.96-6.778 1.344-2.146 10.599 8.347-2.983.577ZM116.615 150.122l-.344-1.717 6.873-13.002 2.754-.533-6.797 12.988-1.379-.141 14.252-2.758.423 2.11-15.782 3.053Zm10.765 2.301-.847-4.22-.347-2.124-.748-3.729 2.397-.464 2.018 10.058-2.473.479ZM103.358 157.103l-.335-1.668 5.913-8.153c.527-.713.9-1.321 1.117-1.821.231-.521.36-.979.387-1.375.04-.415.024-.803-.048-1.163-.177-.883-.64-1.516-1.387-1.898-.748-.382-1.742-.453-2.983-.213-.952.185-1.779.506-2.481.965a5.064 5.064 0 0 0-1.708 1.783l-2.024-1.112c.512-.966 1.294-1.779 2.344-2.441 1.064-.682 2.284-1.156 3.661-1.422 1.24-.241 2.359-.253 3.356-.038.993.198 1.808.61 2.445 1.234.655.621 1.08 1.422 1.277 2.403.112.556.145 1.119.1 1.689-.044.569-.218 1.197-.522 1.885-.303.687-.779 1.484-1.427 2.391l-5.27 7.264-.804-.839 10.784-2.087.429 2.135-12.824 2.481Z"/></svg>