<svg xmlns="http://www.w3.org/2000/svg" width="65" height="65" fill="none" viewBox="0 0 65 65"><clipPath id="a"><path d="M.5.5h64v64H.5z"/></clipPath><clipPath id="b"><path d="M-5.9 3.7h65.199v65.28H-5.9z"/></clipPath><clipPath id="c"><path d="M-.78 3.7h60.16v60.904H-.78z"/></clipPath><g clip-path="url(#a)"><path fill="#fff" d="M.5.5h64v64H.5z"/><g clip-path="url(#b)"><path fill="#fdd335" d="M38.9 31.86a5.12 5.12 0 1 0-10.24 0 5.12 5.12 0 0 0 10.24 0z"/><g fill="#000" clip-path="url(#c)"><path stroke="#000" stroke-width=".25" d="M-.78 39.858c.987-.013 1.974-.037 2.96-.04 2.45-.005 4.901-.004 7.351 0 1.327.001 1.795.353 2.251 1.572.059.157.372.308.57.31 2.133.022 4.267-.007 6.401.029.578.01 1.181.114 1.725.308 3.051 1.09 6.085 2.224 9.13 3.329.308.111.652.171.98.173 2.509.015 5.018.006 7.528.01 2.46.003 3.904 1.324 4.136 3.776.007.076.03.15.06.297.261-.065.503-.113.738-.186 3.938-1.228 7.88-2.447 11.81-3.697 1.385-.44 2.497.027 3.444.97.93.924 1.304 2.079.938 3.37-.271.956-.814 1.727-1.745 2.21-7.593 3.934-15.18 7.88-22.763 11.834-1.166.608-2.392.596-3.552.2-4.93-1.688-9.83-3.46-14.752-5.174-.581-.202-1.221-.264-1.84-.324-.549-.053-1.107.012-1.659-.018-.655-.036-1.137-.025-1.368.823-.23.85-1.047 1.098-1.909 1.096-3.22-.008-6.441-.003-9.662-.003-.257 0-.514.007-.77.011v-1.898H9.917c.016-.204.043-.377.043-.55.002-5.354-.005-10.707.01-16.06 0-.48-.166-.595-.618-.593-3.377.014-6.755.005-10.132.004v-1.779zM24.266 54.99c.012-.22.007-.376.03-.529.287-1.878 1.846-3.193 3.83-3.2 3.359-.011 6.718-.002 10.077-.006.255 0 .519 0 .764-.06.955-.24 1.54-1.108 1.441-2.1-.095-.951-.89-1.678-1.9-1.683-2.667-.012-5.335.007-8.002-.016a4.258 4.258 0 0 1-1.38-.244c-3.104-1.118-6.196-2.268-9.296-3.397-.29-.106-.61-.19-.916-.192-2.174-.016-4.347.003-6.52-.017-.462-.005-.615.125-.61.6.021 2.55.01 5.099.01 7.648 0 1.542.012 3.083-.007 4.624-.005.411.12.554.539.541a30.43 30.43 0 0 1 2.607.004c.56.03 1.142.104 1.668.288 4.937 1.728 9.864 3.487 14.797 5.227.31.11.65.135.976.198 1.07.207 1.894-.385 2.765-.838 7.148-3.72 14.299-7.434 21.446-11.153.836-.435 1.16-1.274.827-2.09-.36-.88-1.236-1.33-2.098-1.06-4.56 1.423-9.118 2.85-13.674 4.282-.221.07-.456.165-.627.314-.836.727-1.81.994-2.9.99-3.319-.01-6.638-.005-9.958-.002-1.106.001-1.78.521-2.069 1.575-.025.094-.056.187-.09.296h-1.73z"/><path d="M42.559 31.245v1.797h-1.8c0-.5-.016-1.022.014-1.54.005-.092.2-.239.313-.246.467-.027.937-.011 1.473-.011zM26.65 31.245v1.807h-1.783c0-.515-.02-1.02.016-1.52.008-.103.215-.264.34-.274.446-.033.896-.013 1.427-.013zM4.139 56.882H2.387V55.09h1.752zM7.956 55.085v1.825c-.503 0-.988.016-1.47-.012-.107-.007-.286-.166-.292-.263-.03-.504-.014-1.012-.014-1.55zM35.078 36.515a.456.456 0 0 1-.145-.024.931.931 0 0 1-.12-.049l-.145-.072-3.251-2.577a1.162 1.162 0 0 1-.12-.072 1.58 1.58 0 0 1-.097-.169.535.535 0 0 1-.072-.168.79.79 0 0 1-.024-.193c0-.128.016-.24.048-.337a.83.83 0 0 1 .217-.265c.08-.08.16-.137.24-.169a.985.985 0 0 1 .314-.048h1.637c.466 0 .787-.104.964-.313.192-.209.305-.361.337-.457h-3.3c-.096 0-.184-.017-.265-.049s-.152-.08-.216-.144a.642.642 0 0 1-.193-.482.644.644 0 0 1 .193-.457.641.641 0 0 1 .216-.145.505.505 0 0 1 .265-.072l3.228.024a6.397 6.397 0 0 0-.29-.361c-.144-.21-.457-.313-.939-.313l-1.999-.049-.217-.024a.535.535 0 0 1-.313-.217.782.782 0 0 1-.144-.36v-.193a.537.537 0 0 1 .072-.17.643.643 0 0 1 .12-.168c.065-.08.137-.136.217-.168s.169-.048.265-.048h4.745a.641.641 0 0 1 .482.193.642.642 0 0 1 .192.48c0 .081-.016.17-.048.266-.032.08-.08.152-.144.217s-.137.112-.217.144a.707.707 0 0 1-.265.048h-.385c.048.097.112.217.192.362.097.128.16.24.193.337h.12c.097 0 .16.024.193.072.048.032.104.08.169.144s.112.137.144.217c.032.08.048.16.048.241a.643.643 0 0 1-.193.482.641.641 0 0 1-.481.193h-.048a1.84 1.84 0 0 1-.29.77 2.889 2.889 0 0 1-.53.578c-.256.257-.545.45-.866.578a2.58 2.58 0 0 1-1.012.193h-.072l1.999 1.565c.048.049.08.089.096.12a.376.376 0 0 1 .073.097.537.537 0 0 1 .072.169.536.536 0 0 1 .024.168c0 .08-.016.169-.048.265a.652.652 0 0 1-.626.41z"/><path fill-rule="evenodd" d="M35.434 8.98a5.277 5.277 0 0 0-1.284-.16h-.402l-.4.08a6.337 6.337 0 0 0-.964.241c-.32.107-.615.214-.883.321l-.32.16-.161-.08-.321-.08a4.544 4.544 0 0 0-1.445-.24 3.474 3.474 0 0 0-1.284.08l-.32.08-.242.16a1.784 1.784 0 0 0-.561.241l-.482.321-.16.24-.642.482c-.16.16-.348.295-.562.402-.16.053-.375.107-.642.16-.696.214-1.15.669-1.365 1.364-.16.696 0 1.284.482 1.766a18.668 18.668 0 0 1 1.846 2.167c.588.802 1.15 1.685 1.685 2.648-1.337.535-2.782 1.685-4.334 3.451a17.454 17.454 0 0 0-3.37 5.778l-.16.321a.712.712 0 0 1-.081.321 16.573 16.573 0 0 0-.642 4.575c0 1.498.134 3.183.401 5.056 0 .053.027.32.08.802.107.482.188.803.241.963v.202c.297.003.594.007.89.012.343.006.694.045 1.036.116-.043-.959-.257-2.38-.642-4.262-.481-2.354-.267-4.842.642-7.464.91-2.621 2.194-4.628 3.852-6.019 1.66-1.444 2.73-2.166 3.21-2.166.536 0 1.285.214 2.248.642.963.374 2.167.561 3.611.561 1.498 0 2.702-.187 3.612-.561.963-.428 1.738-.642 2.327-.642s1.685.642 3.29 1.926c1.659 1.284 2.916 3.37 3.772 6.26.856 2.889 1.017 5.51.482 7.864-.482 2.354-.722 3.852-.722 4.494 0 .59.214 1.178.642 1.766.481.589.454 1.23-.08 1.926a1.776 1.776 0 0 1-.723.562l-.802.16h-1.044a4.51 4.51 0 0 0-.883-.08h-.32c-.161 0-.322.027-.482.08h-.41c.377.472.64 1.065.785 1.772.065-.004.127-.006.187-.006.267 0 .588.027.963.08h.401c.856.054 1.552 0 2.087-.16.588-.16 1.15-.562 1.685-1.204.321-.375.535-.803.642-1.284.16-.482.214-.963.16-1.445a2.865 2.865 0 0 0-.24-.722c-.107-.267-.241-.588-.402-.963l-.32-.562.08-.16.32-1.846.161-.883c.321-1.765.455-3.45.401-5.056a19.894 19.894 0 0 0-.802-4.895c-.696-2.408-1.82-4.468-3.37-6.18-1.552-1.766-3.024-2.836-4.415-3.21l.241-.482c.375-.642.83-1.31 1.364-2.006.535-.749 1.15-1.471 1.846-2.167.535-.535.696-1.15.482-1.846-.16-.695-.589-1.15-1.284-1.364a7.712 7.712 0 0 1-.562-.16 2.636 2.636 0 0 0-.401-.322l-.402-.4-.32-.322a4.008 4.008 0 0 0-1.204-.722c-.375-.16-.83-.24-1.365-.24h-.401l-.401.08c-.268 0-.535.053-.803.16a5.69 5.69 0 0 0-.722.24l-.401-.24a4.722 4.722 0 0 0-1.204-.482zm-3.37 2.328c.32-.16.962-.401.962-.401s1.75-.125 2.247 0c.321.107.616.267.883.481s.562.455.883.722c.214-.32.508-.561.883-.722s.856-.24 1.444-.24c.856 0 1.391.267 1.605.802.268.535.99.963 2.167 1.284a23.913 23.913 0 0 0-2.488 2.889c-.695.963-1.23 1.9-1.605 2.809-.695.267-1.39.482-2.086.642a9.98 9.98 0 0 1-2.247.24l-.562.081-.722-.08c-.75 0-1.525-.08-2.328-.241a17.714 17.714 0 0 1-2.247-.642 19.486 19.486 0 0 0-1.926-3.13 16.775 16.775 0 0 0-2.087-2.568c1.124-.321 1.846-.696 2.167-1.124.321-.481.803-.802 1.445-.963a.616.616 0 0 1 .24-.08h.562c.321 0 .642.08.963.24.375.108.723.295 1.044.563.267-.214.535-.402.802-.562z" clip-rule="evenodd"/></g></g></g></svg>