<svg xmlns="http://www.w3.org/2000/svg" width="100" height="100" fill="none" viewBox="0 0 100 100"><path fill="#fff" d="M0 0h100v100H0z"/><path fill="#fff" d="M36.857 27.055a2.62 2.62 0 0 0 2.65-2.587l.148-11.673A8.908 8.908 0 0 1 48.562 4h28.734a8.908 8.908 0 0 1 8.908 8.908v73.358a8.908 8.908 0 0 1-8.908 8.908H23.85a8.908 8.908 0 0 1-8.908-8.908V35.808a8.908 8.908 0 0 1 9.014-8.907z"/><g fill-rule="evenodd" clip-rule="evenodd"><path fill="#000" d="M77.296 8.192H48.562a4.716 4.716 0 0 0-4.715 4.656l-.148 11.673a6.812 6.812 0 0 1-6.892 6.725l-12.902-.153a4.716 4.716 0 0 0-4.772 4.715v50.458a4.716 4.716 0 0 0 4.716 4.716h53.447a4.716 4.716 0 0 0 4.716-4.716V12.908a4.716 4.716 0 0 0-4.716-4.716zM39.507 24.468a2.62 2.62 0 0 1-2.65 2.587L23.955 26.9a8.908 8.908 0 0 0-9.014 8.907v50.458a8.908 8.908 0 0 0 8.908 8.908h53.447a8.908 8.908 0 0 0 8.908-8.908V12.908A8.908 8.908 0 0 0 77.296 4H48.562a8.908 8.908 0 0 0-8.907 8.795z"/><path fill="#000" d="M47.205 5.377c.687.745.64 1.905-.105 2.592L20.376 32.596A1.834 1.834 0 0 1 17.89 29.9L44.614 5.271a1.834 1.834 0 0 1 2.591.106zM33.28 39.37c0-1.013.822-1.834 1.835-1.834H66.03a1.834 1.834 0 0 1 0 3.668H35.115a1.834 1.834 0 0 1-1.834-1.834zM33.28 50.897c0-1.013.822-1.834 1.835-1.834H66.03a1.834 1.834 0 0 1 0 3.668H35.115a1.834 1.834 0 0 1-1.834-1.834zM33.28 61.9c0-1.012.822-1.833 1.835-1.833H66.03a1.834 1.834 0 0 1 0 3.668H35.115A1.834 1.834 0 0 1 33.28 61.9zM33.28 72.905c0-1.013.822-1.834 1.835-1.834H66.03a1.834 1.834 0 0 1 0 3.668H35.115a1.834 1.834 0 0 1-1.834-1.834z"/><path fill="#fdd335" d="M4 89.696 93.894 15.57l3 3.639L7 93.335z"/></g><path fill="#fdd335" d="M43.76 15.528h27.248v9.956H43.761z"/></svg>