<svg xmlns="http://www.w3.org/2000/svg" width="100" height="100" fill="none" viewBox="0 0 100 100"><path fill="#fff" d="M0 0h100v100H0z"/><g fill="#000" fill-rule="evenodd" clip-rule="evenodd"><path d="M50.69 7.192a6.812 6.812 0 0 1 6.81 6.725l.108 8.518a6.812 6.812 0 0 0 6.893 6.725l9.725-.115a6.812 6.812 0 0 1 6.893 6.81v43.91a2.096 2.096 0 0 0 4.192 0v-43.91c0-6.128-5.007-11.075-11.135-11.002l-9.725.115a2.62 2.62 0 0 1-2.651-2.586l-.108-8.518C61.616 7.842 56.712 3 50.689 3H24.004C17.927 3 13 7.927 13 14.004V83.17c0 6.077 4.927 11.004 11.004 11.004h50.565a2.096 2.096 0 0 0 0-4.192H24.004a6.812 6.812 0 0 1-6.812-6.812V14.004a6.812 6.812 0 0 1 6.812-6.812z"/><path d="M53.047 4.377a1.834 1.834 0 0 0 .105 2.592l26.724 24.627A1.834 1.834 0 0 0 82.36 28.9L55.638 4.271a1.834 1.834 0 0 0-2.591.106zM27.672 49.897c0-1.013.821-1.834 1.834-1.834H60.42a1.834 1.834 0 0 1 0 3.668H29.506a1.834 1.834 0 0 1-1.834-1.834zM89.299 94.572c-.672.758-1.83.829-2.59.158L72.568 82.216a1.834 1.834 0 1 1 2.431-2.747l14.143 12.514c.758.67.829 1.83.158 2.588zM27.672 60.9c0-1.012.821-1.833 1.834-1.833H52.56a1.834 1.834 0 1 1 0 3.668H29.506a1.834 1.834 0 0 1-1.834-1.834zM27.672 71.905c0-1.013.821-1.834 1.834-1.834h15.196a1.834 1.834 0 1 1 0 3.668H29.506a1.834 1.834 0 0 1-1.834-1.834z"/></g><path fill="#fdd335" d="M30.275 32.878c-2.096-2.515-2.445-11.003-2.358-14.933 1.136-.262 3.983-.996 6.288-1.834 2.306-.839 3.93-2.795 4.454-3.668.611.786 2.358 2.62 4.454 3.668 2.096 1.048 5.065 1.135 6.288 1.048.524 3.493 1.153 11.37-.524 14.934-1.677 3.563-7.51 6.375-10.218 7.335-1.921-1.135-6.288-4.034-8.384-6.55z"/><path fill="#000" d="M38.604 14.443c-2.426 2.63-5.518 3.922-9.303 3.828v.456c0 2.72-.002 5.439.001 8.158.007 5.136 3.686 9.725 8.975 11.18.223.061.502.069.721.003 4.668-1.407 7.544-4.383 8.728-8.782.213-.792.246-1.638.267-2.46.04-1.567.007-3.134.014-4.701.003-.77.572-1.304 1.377-1.314.693-.009 1.274.433 1.272 1.08-.004 2.264.13 4.546-.123 6.789-.394 3.498-2.179 6.421-4.975 8.788a14.452 14.452 0 0 1-6.289 3.113c-.4.089-.871.105-1.26-.002-6.04-1.657-9.727-5.39-11.113-11.09-.203-.835-.248-1.718-.255-2.58-.03-3.224-.013-6.448-.012-9.672 0-.934.568-1.455 1.582-1.458 1.345-.004 2.702.076 4.015-.278 2.285-.617 4-1.914 5.14-3.858.268-.456.624-.751 1.196-.78.622-.032 1.054.224 1.347.734.886 1.546 2.193 2.688 3.888 3.44a8.643 8.643 0 0 0 3.667.743 42.194 42.194 0 0 1 1.793.003c.726.02 1.289.503 1.395 1.166.084.518-.276 1.048-.844 1.244-.065.022-.132.05-.199.052-3.181.16-6.262-.094-8.888-2.022-.737-.54-1.397-1.17-2.117-1.78z"/><path fill="#000" d="m37.288 27.754 2.508-2.339c.609-.567 1.206-1.147 1.83-1.698.876-.773 2.04-.47 2.324.588.116.433-.04.8-.358 1.099a711.21 711.21 0 0 1-5.338 4.965c-.545.5-1.327.494-1.877 0-.9-.81-1.782-1.634-2.653-2.47-.533-.51-.522-1.31-.014-1.789.483-.456 1.333-.464 1.88.023.571.51 1.106 1.053 1.698 1.621z"/><path fill="#000" fill-rule="evenodd" d="M65.661 65.617a7.86 7.86 0 1 0 0 15.72 7.86 7.86 0 0 0 0-15.72zm-11.528 7.86c0-6.367 5.162-11.528 11.528-11.528s11.528 5.16 11.528 11.527-5.161 11.528-11.528 11.528-11.528-5.16-11.528-11.528z" clip-rule="evenodd"/><path fill="#000" fill-rule="evenodd" d="M66.481 69.099a4.456 4.456 0 0 0-5.274 4.378 1.048 1.048 0 1 1-2.096 0 6.549 6.549 0 0 1 7.756-6.438 1.048 1.048 0 1 1-.386 2.06z" clip-rule="evenodd"/><path fill="#fdd335" d="M72.085 58.267c-1.244-.241-3.06.267-3.017-1.78.04-1.917 1.773-1.476 3.019-1.73.222-1.278-.151-3.12 1.917-3.022 1.785.083 1.475 1.705 1.59 2.965 1.21.376 3.148-.206 3.072 1.92-.07 1.944-1.812 1.403-3.024 1.644-.252 1.244.268 3.06-1.761 3.056-2.006-.003-1.546-1.795-1.796-3.053z"/></svg>