<svg xmlns="http://www.w3.org/2000/svg" width="100" height="100" fill="none" viewBox="0 0 100 100"><path fill="#fff" d="M0 0h100v100H0z"/><path fill="#fdd335" d="M60.474 78.715c0-5.382-4.363-9.745-9.745-9.745-5.382 0-9.746 4.363-9.746 9.745 0 5.382 4.364 9.745 9.746 9.745 5.382 0 9.745-4.363 9.745-9.745z"/><g fill="#000"><path d="M50.467 4.03c13.13 0 26.26-.001 39.391.001 2.424 0 4.264 1.03 5.424 3.178.443.82.676 1.71.675 2.657-.003 11.743.004 23.487-.007 35.23-.001 2.094-.933 3.758-2.627 4.938-.9.627-1.956.939-3.086.936-3.972-.01-7.944-.004-11.915-.002-7.31.004-14.62.012-21.93.006-.404 0-.633.096-.826.492-1.199 2.453-2.44 4.886-3.653 7.331-.299.602-.733.999-1.417 1.006-.69.006-1.123-.396-1.422-.995-1.216-2.443-2.456-4.874-3.655-7.324-.19-.387-.396-.511-.814-.511-8.954.011-17.907.01-26.86.008-2.294 0-4.588-.035-6.882-.008-3.125.037-5.835-2.542-5.847-5.8-.027-7.36-.012-14.721-.009-22.082.002-4.365-.004-8.73.027-13.095.018-2.545 1.196-4.399 3.511-5.478C9.352 4.142 10.222 4 11.128 4c13.113.01 26.226.007 39.34.007zm-.012 50.941c.127-.17.185-.23.22-.3.923-1.846 1.87-3.68 2.754-5.546.37-.78.913-1.127 1.751-1.126 3.99.007 7.979.003 11.968.003 7.584 0 15.169.004 22.754-.01.466-.001.974-.058 1.39-.25 1.201-.552 1.732-1.543 1.73-2.871-.017-11.574-.04-23.147-.007-34.72.005-1.788-1.373-3.21-3.208-3.195-7.635.062-15.271.027-22.907.025-18.645-.006-37.29-.014-55.934-.017-.271 0-.553.016-.811.09-1.406.403-2.197 1.466-2.201 2.963-.012 4.417-.016 8.834-.018 13.251-.002 7.174.028 14.348-.02 21.52-.013 1.74 1.27 3.369 3.302 3.286 1.435-.058 2.874-.045 4.312-.045 8.047-.004 16.093 0 24.14-.003 2.089 0 4.177-.015 6.266-.024.697-.003 1.215.306 1.523.926.608 1.222 1.195 2.454 1.798 3.678.375.758.764 1.51 1.199 2.365zM50.516 62.766c8.876-.057 16.107 7.314 16.103 16.059-.005 9.047-7.205 16.093-15.926 16.174-9.123.086-16.398-7.173-16.327-16.287.07-8.81 7.251-15.985 16.15-15.947zm.009 29.293c7.225.004 13.183-5.927 13.165-13.14-.02-7.355-5.855-13.152-13.033-13.231-7.456-.083-13.409 5.856-13.358 13.302.048 7.23 5.91 13.063 13.226 13.069z"/><path d="m88.802 8.99 1.348 2.998-6.716 3.023c.533.231.935.418 1.346.582 1.436.573 2.88 1.13 4.313 1.711.627.254.98.728.982 1.426.01 1.916.017 3.833.027 5.75.007 1.157-1.222 1.884-2.101 1.387-.215-.122-.478-.157-.797-.257-.015.275-.037.487-.037.698-.002 5.153-.001 10.306-.002 15.46 0 1.328-.533 1.867-1.847 1.867H62.617c-1.34 0-1.845-.51-1.846-1.863V25.687c-.16 0-.262-.019-.355.003a18.464 18.464 0 0 0-4.158 1.493c-.804.407-1.643.745-2.467 1.115.274.614.583 1.168.766 1.76.175.565.285 1.169.305 1.759.044 1.35-.005 2.704.023 4.056.02 1.004-.621 1.66-1.699 1.685a130.08 130.08 0 0 1-4.879 0c-.386-.005-.561.122-.718.47-.613 1.354-1.617 2.253-3.075 2.685-2.46.729-4.942-.569-5.812-2.779-.115-.293-.288-.372-.579-.37-1.524.01-3.047-.004-4.57.013a2.04 2.04 0 0 0-.788.18c-6.853 3.065-13.702 6.138-20.552 9.21-.154.068-.31.132-.531.227l-1.351-2.996 7.968-3.58c-.536-.456-1.082-.85-1.539-1.33a4.406 4.406 0 0 1-.834-1.265c-.163-.377-.364-.47-.733-.46-.855.019-1.711.01-2.567.004-1.132-.009-1.735-.615-1.736-1.745-.003-2.636-.002-5.273 0-7.91 0-1.042.355-1.485 1.362-1.714.7-.16 1.403-.301 2.093-.491.156-.043.338-.23.386-.389.512-1.699.94-3.425 1.507-5.106.965-2.863 2.901-4.783 5.796-5.742 1.095-.362 2.2-.408 3.328-.405 2.808.008 5.615-.01 8.423.008 3.924.024 7.351 2.728 8.357 6.465.403 1.5.692 3.031 1.01 4.552.06.288.16.398.457.413 1.828.09 3.655.198 5.483.3.17.01.363-.022.508.045.813.372 1.511.05 2.238-.286 1.83-.845 3.672-1.666 5.52-2.473.353-.154.471-.344.46-.727-.028-1.043.025-2.09-.018-3.132-.064-1.547.526-1.75 1.514-2.15 1.81-.73 3.627-1.444 5.442-2.162 2.365-.936 4.73-1.868 7.096-2.805.376-.149.76-.286 1.117-.472.663-.345 1.299-.298 1.971-.015a85.874 85.874 0 0 0 3.779 1.5c.266.097.65.064.915-.053 2.88-1.266 5.746-2.56 8.617-3.847.154-.07.311-.134.55-.235zM84.21 40.664c.01-.16.024-.277.024-.394.001-5.152-.003-10.304.01-15.456.001-.364-.157-.523-.451-.635-.553-.21-1.106-.418-1.654-.637-2.444-.977-4.884-1.965-7.333-2.929-.35-.137-.792-.317-1.106-.215-1.079.353-2.118.824-3.173 1.247-2.094.838-4.186 1.682-6.286 2.504-.379.148-.556.32-.554.767.018 5.067.011 10.133.013 15.2 0 .18.015.361.023.53h5.108v-.592c0-2.14-.002-4.28 0-6.42.002-1.203.55-1.758 1.74-1.759 2.259-.003 4.518-.003 6.778 0 1.181.001 1.752.574 1.754 1.759.002 2.157 0 4.313 0 6.47v.56h5.107zM44.84 28.682l-.033-.165c-.904-.047-1.807-.098-2.71-.14-.842-.04-1.333-.43-1.508-1.246-.254-1.187-.475-2.38-.742-3.565-.22-.982-.364-2.006-.757-2.92-.935-2.169-2.597-3.53-5.016-3.59-3.319-.084-6.641-.06-9.96.002-1.828.034-3.211 1.005-4.285 2.446-.692.93-.942 2.033-1.254 3.114-.434 1.509-.877 3.015-1.313 4.524-.211.727-.677 1.149-1.432 1.276-.522.088-1.03.25-1.553.327-.372.055-.474.226-.47.58.015 1.318.006 2.636.006 3.954 0 1.338 0 1.325 1.362 1.334.386.003.571-.13.72-.489.581-1.405 1.64-2.35 3.079-2.768 2.493-.726 4.941.547 5.875 2.833.136.331.321.424.655.421 1.798-.012 3.595.018 5.392-.02a4.084 4.084 0 0 0 1.527-.324c3.425-1.511 6.835-3.058 10.248-4.595.724-.327 1.446-.66 2.168-.989zM76.124 40.66v-5.795h-4.323v5.795zm.357-22.532 10.657 4.255c0-.895.01-1.679-.011-2.462-.003-.108-.134-.265-.242-.31a675.458 675.458 0 0 0-6.273-2.545c-.34-.136-.767-.374-1.05-.274-1.005.356-1.964.838-3.081 1.335zm-1.103-3.122c-.483-.213-.8-.378-1.134-.489a.96.96 0 0 0-.552-.001c-.338.105-.657.268-.987.4-1.918.774-3.837 1.548-5.757 2.319-1.968.79-3.938 1.573-5.903 2.37-.117.046-.277.176-.282.275-.028.52-.013 1.044-.013 1.672l14.628-6.546zM45.77 31.903c.931.647 1.545 1.401 1.912 2.337.116.298.287.37.578.366 1.077-.012 2.155-.019 3.231.003.373.008.475-.14.47-.479-.014-.786.004-1.573-.009-2.359-.011-.671-.267-1.257-.665-1.794-.232-.313-.467-.37-.828-.197-.861.415-1.741.79-2.613 1.182l-2.076.94zm-2.587 2.2c-1.108-.004-1.96.816-1.978 1.908-.019 1.061.862 1.96 1.927 1.967a1.962 1.962 0 0 0 1.982-1.965 1.928 1.928 0 0 0-1.93-1.91zm-22.835 0a1.93 1.93 0 0 0-1.933 1.96c.006 1.08.836 1.908 1.921 1.915 1.112.007 1.955-.822 1.959-1.927a1.927 1.927 0 0 0-1.947-1.947z"/><path d="m28.93 28.398-8.113-.001c-1.642-.001-2.216-.825-1.69-2.383.426-1.26.82-2.532 1.237-3.795.769-2.33 2.377-3.574 4.837-3.59 2.908-.02 5.818-.012 8.726.065 1.846.048 3.672 1.6 4.09 3.405.352 1.514.628 3.047.9 4.578.166.928-.526 1.7-1.514 1.714-1.472.02-2.944.006-4.416.007H28.93zm-6.522-2.93c1.838 0 3.548-.003 5.257.002.34.001.33-.228.329-.454-.005-1.01-.023-2.02-.018-3.029.002-.337-.14-.453-.462-.449-.787.011-1.575-.005-2.362.01-.705.014-1.313.257-1.686.889-.163.275-.262.591-.365.897-.228.673-.44 1.35-.693 2.134zm13.345-.002c-.225-.999-.365-1.91-.647-2.775-.213-.65-.777-1.044-1.476-1.096a21.513 21.513 0 0 0-2.3-.033c-.137.004-.377.25-.38.39a62.894 62.894 0 0 0 .016 3.174c.003.116.178.324.275.325 1.447.022 2.894.015 4.512.015zM52.644 87.643a.94.94 0 0 1-.299-.05 1.917 1.917 0 0 1-.249-.099l-.298-.15-6.72-5.326a2.433 2.433 0 0 1-.25-.15 3.254 3.254 0 0 1-.199-.348 1.105 1.105 0 0 1-.15-.348 1.64 1.64 0 0 1-.049-.399c0-.265.033-.497.1-.696.1-.2.248-.382.448-.548.166-.166.331-.282.497-.349.2-.066.415-.1.647-.1h3.386c.962 0 1.626-.215 1.99-.646.4-.432.632-.747.698-.946h-6.82c-.2 0-.382-.033-.548-.1a1.327 1.327 0 0 1-.448-.298 1.326 1.326 0 0 1-.299-.448 1.46 1.46 0 0 1-.1-.548c0-.166.034-.332.1-.498.067-.166.166-.315.3-.448.132-.132.281-.232.447-.298.166-.1.349-.15.548-.15l6.67.05a13.32 13.32 0 0 0-.597-.747c-.299-.431-.946-.647-1.941-.647l-4.132-.1-.448-.05a1.105 1.105 0 0 1-.647-.447 1.616 1.616 0 0 1-.3-.747v-.398c.034-.133.084-.25.15-.349.067-.132.15-.249.25-.348.132-.166.281-.282.447-.349.166-.066.349-.1.548-.1h9.807c.199 0 .381.034.547.1.166.067.316.166.448.299.133.133.233.282.3.448.065.166.099.348.099.548 0 .166-.034.348-.1.547a1.327 1.327 0 0 1-.299.448 1.326 1.326 0 0 1-.448.299 1.46 1.46 0 0 1-.547.1h-.797c.1.199.233.447.398.746.2.266.332.498.399.697h.249c.199 0 .331.05.398.15.1.066.216.165.348.298a1.333 1.333 0 0 1 .398.946c0 .2-.033.382-.099.548a1.327 1.327 0 0 1-.299.448 1.327 1.327 0 0 1-.448.298c-.166.067-.348.1-.547.1h-.1c-.1.63-.298 1.161-.597 1.593-.266.398-.63.796-1.095 1.195a5.305 5.305 0 0 1-1.792 1.194 5.336 5.336 0 0 1-2.091.399h-.15l4.132 3.235c.1.1.166.183.2.25a.777.777 0 0 1 .149.198c.066.1.116.216.149.349.033.1.05.216.05.348 0 .166-.033.349-.1.548a1.326 1.326 0 0 1-.299.448 1.327 1.327 0 0 1-.447.299c-.166.066-.349.1-.548.1z"/></g><path fill="#fdd335" fill-rule="evenodd" d="M8.499 43.981 89.96 7.498l1.839 4.106-81.462 36.482z" clip-rule="evenodd"/></svg>