<svg xmlns="http://www.w3.org/2000/svg" width="100" height="100" fill="none" viewBox="0 0 100 100"><path fill="#FDD335" d="M79.216 57.22c.048.033.094.068.139.105.905.956 1.839 1.887 2.705 2.878.633.724 1.123 1.555 1.198 2.56.043.574 0 1.13-.41 1.59-.115.13.004.413.258.592.142-.59.32-1.16.41-1.745.156-1.015.268-2.038.374-3.06.045-.426.026-.86.036-1.29.001-.025.008-.06-.005-.074L83.134 58c-1.287-.273-2.307-.995-3.166-1.965a6.615 6.615 0 0 1-1.678-4.18c-.002-.04.004-.08.008-.168l.519.325c.759.474 1.532.926 2.272 1.427.888.599 1.7 1.286 2.171 2.293.298.634.417 1.29.273 1.988-.063.304.025.422.36.555a5.53 5.53 0 0 0-.002-.62c-.118-1.038-.208-2.08-.385-3.108-.14-.818-.386-1.62-.604-2.423-.032-.12-.158-.226-.264-.309a2.18 2.18 0 0 0-.43-.253.974.974 0 0 0-.376-.11c-2.121-.032-3.763-1-5.071-2.63a6.412 6.412 0 0 1-.995-1.716c-.032-.082-.054-.168-.097-.301.328.096.604.172.877.258.835.26 1.674.508 2.501.792.834.286 1.623.674 2.278 1.286.54.506.864 1.126.882 1.887.01.36.075.433.5.496-.077-.227-.136-.44-.221-.642-.38-.897-.736-1.805-1.16-2.68-.355-.731-.79-1.423-1.198-2.127-.04-.067-.14-.101-.216-.142-.035-.019-.087-.004-.122-.022-.394-.192-.79-.173-1.208-.07-.967.235-1.91.049-2.836-.241-1.356-.424-2.446-1.246-3.358-2.326a1.686 1.686 0 0 1-.118-.163.525.525 0 0 1-.033-.101c.256 0 .5-.009.743.002.667.028 1.335.05 2 .101.952.072 1.9.21 2.77.62.609.288 1.14.706 1.405 1.375.02.037.037.076.048.116.048.375.022.363.631.466a1.91 1.91 0 0 0-.116-.247 24.233 24.233 0 0 0-2.536-3.22c-.046-.048-.082-.106-.125-.158-.436-.53-.7-.684-1.377-.686-.211 0-.425.126-.634.206-.825.313-1.678.347-2.541.253a6.456 6.456 0 0 1-3.001-1.093c-.36-.248-.687-.548-1.028-.825l.03-.082c.097-.028.196-.05.296-.065 1.054-.11 2.106-.26 3.163-.31.988-.048 1.955.147 2.8.702.301.196.554.458.741.766.17.292.383.29.703.313-.072-.1-.15-.195-.234-.285-1.099-.997-2.21-1.978-3.477-2.757a.591.591 0 0 0-.278-.08 6.52 6.52 0 0 1-2.81-.72c-1.377-.716-2.335-1.827-2.935-3.26a2.057 2.057 0 0 1-.07-.264.605.605 0 0 1 .176-.008c.92.265 1.849.51 2.758.809.943.309 1.819.754 2.52 1.492.354.373.626.786.685 1.314.003.025.02.053.014.074-.14.416.18.526.43.724.984.779 1.955 1.574 2.913 2.385.476.402.913.851 1.382 1.293a.533.533 0 0 0-.2-.588 6.991 6.991 0 0 1-1.443-1.602 6.818 6.818 0 0 1-.95-2.397 8.11 8.11 0 0 1-.082-2.74c.082-.577.117-.597.583-.251a7.914 7.914 0 0 1 1.999 2.139c.296.437.547.904.748 1.393.314.839.523 1.708.21 2.61a1.65 1.65 0 0 1-.53.812c-.122.094-.124.199-.13.346-.02.616.407.964.753 1.366 1.08 1.255 2.075 2.573 2.891 4.022.038.054.08.105.127.151.096-.227.01-.397-.103-.551a6.517 6.517 0 0 1-1.212-2.8c-.29-1.73-.04-3.355.97-4.822.018-.026.04-.05.098-.122.184.207.356.425.514.653.59.982 1 2.063 1.213 3.19.126.64.231 1.279.172 1.93-.081.902-.453 1.643-1.202 2.175a.399.399 0 0 0-.118.27c-.012.21-.01.42.005.629.007.09.033.178.075.258.623 1.212 1.185 2.45 1.566 3.764.106.362.212.725.32 1.087.008.027.039.047.059.071l.083-.002c.006-.161.046-.331.01-.483-.124-.532-.299-1.052-.409-1.587a6.165 6.165 0 0 1-.008-2.411c.247-1.295.911-2.352 1.804-3.282.099-.103.22-.183.317-.287.14-.15.24-.098.297.06.12.331.239.664.33 1.003.297 1.114.314 2.25.197 3.387-.087.852-.254 1.681-.806 2.38-.321.39-.726.7-1.184.907a.605.605 0 0 0-.246.279 2.198 2.198 0 0 0-.235.657c-.024.208.061.428.09.644.132 1.018.275 2.036.387 3.057.067.61.086 1.226.127 1.853.176-.033.183-.174.182-.316-.003-.473-.033-.947-.007-1.417.08-1.446.673-2.68 1.577-3.778a8.53 8.53 0 0 1 2.39-1.971c.201-.115.263-.095.294.14a7.09 7.09 0 0 1-.187 2.734 9.948 9.948 0 0 1-1.063 2.633c-.543.912-1.28 1.563-2.314 1.837-.162.042-.396.037-.47.144-.213.309-.443.612-.448 1.04a20.14 20.14 0 0 1-.707 4.918c-.022.08-.058.157-.083.237-.024.078-.042.157-.063.236l.063.04c.072-.082.131-.175.175-.277.22-.91.54-1.783 1.119-2.517.417-.525.88-1.01 1.382-1.453.906-.802 1.967-1.346 3.11-1.725.15-.05.307-.08.462-.118.149-.036.233.022.216.18-.023.217-.02.448-.096.647a15.167 15.167 0 0 1-.662 1.548 9.096 9.096 0 0 1-1.696 2.3c-.743.739-1.59 1.283-2.63 1.463-.282.042-.567.042-.848 0a.4.4 0 0 0-.366.13c-.455.397-.627.953-.874 1.475-.448.948-.903 1.896-1.415 2.81-.4.715-.891 1.38-1.34 2.067a.43.43 0 0 0-.03.107c.251-.013.35-.187.472-.346.382-.499.743-1.019 1.167-1.48.89-.968 2.02-1.559 3.245-1.975a8.542 8.542 0 0 1 3.138-.415c.064.003.127.015.199.023.019.34-.132.605-.288.86a7.661 7.661 0 0 1-1.542 1.784c-.633.55-1.296 1.064-2.065 1.413-1.026.467-2.092.674-3.216.474-.008-.001-.018 0-.025-.004-.499-.325-.955-.138-1.385.142-.183.13-.345.29-.48.47-1.1 1.37-2.361 2.6-3.756 3.66-.106.081-.205.17-.305.258-.008.007 0 .032 0 .065.21.038.351-.09.493-.215.94-.828 2-1.438 3.223-1.71a9.605 9.605 0 0 1 4.006-.05c.55.11 1.091.27 1.637.408l.032.104c-.129.144-.248.298-.387.43-.525.496-1.158.823-1.808 1.106-.57.256-1.153.48-1.747.669-1.201.366-2.43.535-3.68.287a2.877 2.877 0 0 1-1.345-.641.478.478 0 0 0-.288-.097c-.489-.004-.904.167-1.318.45a20.28 20.28 0 0 1-3.966 2.073c-.386.153-.778.293-1.167.441a.643.643 0 0 0-.117.077l.038.086c.123-.008.244-.028.364-.06.51-.182 1.01-.392 1.524-.565a6.866 6.866 0 0 1 2.74-.327c1.007.077 1.99.26 2.917.66.679.292 1.32.675 1.976 1.02.038.02.061.072.104.125a3.235 3.235 0 0 1-1.323.654c-.79.205-1.592.362-2.4.47-.699.07-1.402.079-2.103.025-.877-.054-1.732-.246-2.519-.675a3.04 3.04 0 0 1-1.003-.896c-.039-.053-.083-.132-.133-.14-.372-.06-.732-.188-1.126-.094-1.094.26-2.193.5-3.292.737-.342.074-.692.111-1.04.16-.104.015-.21.015-.314.022-.04-.321.084-.461.349-.51.968-.173 1.938-.343 2.897-.557.649-.146 1.283-.357 1.918-.558.094-.03.172-.158.226-.258.18-.332.14-.69.11-1.051-.111-1.358.39-2.513 1.213-3.542.772-.965 1.763-1.636 2.898-2.097.062-.024.126-.044.191-.059.03 0 .06.005.09.014-.068.338-.13.672-.202 1.004-.162.739-.301 1.484-.5 2.212-.407 1.494-1.263 2.604-2.76 3.123a1.618 1.618 0 0 1-.417.068c-.249.018-.31.087-.296.406.13-.043.252-.081.373-.125a20.513 20.513 0 0 0 3.85-1.852c.561-.347 1.105-.723 1.66-1.079.163-.104.215-.235.25-.428.074-.43-.031-.792-.214-1.177-.461-.974-.432-2.002-.26-3.043a6.065 6.065 0 0 1 1.33-2.872c.32-.393.688-.745 1.034-1.117l.073.039c.038.218.08.436.114.656.123.79.284 1.578.354 2.373.101 1.162.172 2.335-.557 3.364-.34.48-.735.892-1.284 1.13-.33.143-.335.172-.28.626.183-.138.355-.244.5-.38.73-.68 1.486-1.336 2.171-2.06.604-.637 1.13-1.35 1.682-2.036a.37.37 0 0 0 .05-.256 5.843 5.843 0 0 0-.13-.643.5.5 0 0 0-.124-.21c-1.316-1.37-1.753-3.033-1.554-4.885a6.223 6.223 0 0 1 .921-2.649c.022-.036.044-.072.07-.105.009-.012.028-.016.075-.04l.17.343c.426.866.865 1.726 1.276 2.6.328.694.592 1.429.6 2.199.01.97-.192 1.897-1.004 2.558-.17.138-.17.33.002.59.086-.117.175-.226.25-.343.71-1.113 1.362-2.258 1.863-3.484.276-.677.512-1.371.753-2.062a.462.462 0 0 0-.04-.304 3.648 3.648 0 0 0-.3-.55.886.886 0 0 0-.283-.27c-1.85-1.047-2.855-2.665-3.198-4.748-.12-.728-.043-1.446.044-2.166.02-.093.048-.185.084-.273ZM24.662 76.36c.064-.341.015-.43-.255-.56-.65-.312-1.102-.83-1.47-1.438-.472-.779-.483-1.652-.41-2.505.102-1.19.303-2.37.463-3.554.002-.015.018-.028.038-.055.031.009.078.008.104.03 1.238 1.114 2.106 2.433 2.363 4.134a5.5 5.5 0 0 1-.48 3.292c-.112.234-.061.563-.03.842.012.11.162.222.273.3 1.332.973 2.769 1.79 4.283 2.437.446.186.894.369 1.343.548.095.029.192.05.291.062-.048-.291-.161-.402-.435-.418-.56-.032-1.023-.335-1.469-.649-.85-.598-1.33-1.46-1.59-2.44-.244-.926-.417-1.871-.622-2.808l-.107-.478.06-.053c.24.103.487.19.718.31.692.36 1.352.764 1.903 1.333 1 1.033 1.689 2.21 1.701 3.702.007.177-.002.353-.027.527-.047.336.009.679.16.982.053.09.136.16.235.192 1.558.532 3.166.9 4.8 1.096.243.029.313.196.37.382.007.024-.114.13-.17.125a10.608 10.608 0 0 1-.944-.117c-.59-.103-1.183-.202-1.768-.335a38.111 38.111 0 0 1-1.889-.497c-.345-.098-1.056.124-1.272.41-.405.535-.963.848-1.581 1.058-1.3.44-2.638.488-3.987.349-.982-.102-1.952-.28-2.873-.655-.282-.115-.545-.279-.868-.447.08-.082.168-.157.26-.225 1.013-.611 2.074-1.101 3.234-1.367a8.806 8.806 0 0 1 3.181-.179c.917.125 1.77.457 2.611.83.135.043.273.07.414.082l.032-.085a1.139 1.139 0 0 0-.195-.114 23.283 23.283 0 0 1-4.26-1.978 9.271 9.271 0 0 1-1.009-.656c-.359-.28-.769-.302-1.184-.32a.453.453 0 0 0-.258.132c-.492.414-1.072.603-1.694.682-1.028.131-2.03-.02-3.025-.276a11.454 11.454 0 0 1-3.163-1.354 3.381 3.381 0 0 1-1.08-.995c.375-.11.704-.222 1.04-.303a10.871 10.871 0 0 1 3.131-.302c1.836.095 3.45.719 4.818 1.969.125.114.253.245.49.14-.212-.174-.405-.324-.589-.486-.69-.61-1.407-1.192-2.059-1.841-.604-.603-1.125-1.289-1.709-1.913-.168-.18-.43-.273-.648-.406-.222-.136-.427-.117-.679-.025-.77.282-1.56.227-2.343.035-1.985-.486-3.42-1.755-4.631-3.335a2.206 2.206 0 0 1-.477-1.144c.375 0 .747-.015 1.117.002a8.29 8.29 0 0 1 5.005 1.928 7.926 7.926 0 0 1 1.598 1.865c.116.18.216.386.508.426a.734.734 0 0 0-.066-.185 23.117 23.117 0 0 1-2.341-3.962c-.257-.538-.436-1.115-.71-1.644-.153-.296-.425-.53-.65-.786-.024-.028-.095-.025-.142-.018-1 .144-1.877-.17-2.686-.73a7.944 7.944 0 0 1-2.192-2.365c-.397-.634-.8-1.267-1.006-1.998-.13-.462-.225-.683-.113-1.065a5.753 5.753 0 0 1 1.76.584c.562.277 1.098.603 1.603.974.489.379.948.794 1.375 1.243.446.45.756 1.001 1.028 1.576.262.555.347 1.182.629 1.728l.081-.027a.626.626 0 0 0-.01-.165c-.429-1.244-.624-2.534-.758-3.835-.055-.528-.018-1.07-.112-1.588-.058-.322-.28-.614-.437-.915-.02-.038-.1-.058-.154-.062-.892-.07-1.56-.546-2.127-1.2-.643-.743-1.02-1.631-1.323-2.554a9.242 9.242 0 0 1-.47-2.75 5.17 5.17 0 0 1 .077-.779c.03-.22.173-.147.275-.075.546.385 1.116.742 1.622 1.175a7.048 7.048 0 0 1 2.08 3.073c.293.839.324 1.717.27 2.6-.015.225-.1.472.182.672.019-.075.032-.152.04-.23.017-1.435.14-2.866.369-4.282.014-.168.049-.334.104-.493.156-.363.04-.697-.052-1.043a.815.815 0 0 0-.503-.59c-.858-.382-1.346-1.09-1.596-1.988-.414-1.489-.365-2.986-.072-4.48.077-.393.26-.764.4-1.143.068-.188.166-.105.263-.02a6.837 6.837 0 0 1 1.425 1.72 5.77 5.77 0 0 1 .814 3.213 8.655 8.655 0 0 1-.455 2.372c-.085.25-.156.49.023.785.107-.35.196-.666.3-.978.183-.55.346-1.108.57-1.64.35-.827.759-1.628 1.113-2.454.077-.178.01-.414.044-.618.041-.25-.049-.391-.25-.538-.662-.485-.978-1.171-1.057-1.981-.098-1.01.097-1.976.384-2.936a8.93 8.93 0 0 1 1.03-2.34c.126-.194.284-.366.477-.61.228.392.452.714.614 1.066.5 1.082.621 2.234.513 3.41a6.458 6.458 0 0 1-1.254 3.25c-.116.16-.212.318-.11.581.188-.298.354-.561.518-.825a25.608 25.608 0 0 1 2.563-3.421c.15-.17.312-.33.45-.51a.894.894 0 0 0 .131-.316c.036-.138.033-.288.078-.421a.307.307 0 0 0-.119-.374c-.427-.346-.591-.826-.647-1.35-.108-1.02.173-1.96.67-2.83.627-1.097 1.402-2.072 2.45-2.8.423-.294.435-.292.513.215.256 1.648.034 3.228-.723 4.712a6.436 6.436 0 0 1-1.69 2.046c-.206.17-.256.372-.284.675.114-.097.191-.152.257-.22a32.994 32.994 0 0 1 3.931-3.402.426.426 0 0 1 .08-.06c.419-.173.542-.468.544-.935.003-.506.333-.924.695-1.274.776-.752 1.72-1.205 2.735-1.517.838-.257 1.68-.495 2.521-.74.062-.009.124-.013.186-.013-.133.32-.23.61-.37.876a6.088 6.088 0 0 1-2.216 2.42 6.547 6.547 0 0 1-3.27.988.776.776 0 0 0-.366.132c-1.242.785-2.347 1.748-3.425 2.744a1.603 1.603 0 0 0-.142.175c.26.101.503.04.6-.157.26-.526.692-.86 1.206-1.09 1.01-.45 2.07-.566 3.16-.436l2.536.301c.07.015.137.035.203.06-.09.098-.149.175-.22.24a6.68 6.68 0 0 1-3.242 1.655c-1.168.226-2.323.177-3.445-.283-.17-.07-.383-.033-.576-.044-.024-.001-.05.018-.073.014-.46-.083-.7.235-.947.53-.69.823-1.386 1.64-2.06 2.476-.302.376-.558.79-.849 1.206.457.032.56-.035.669-.396.188-.618.618-1.033 1.146-1.351a4.424 4.424 0 0 1 1.913-.63c.971-.084 1.944-.158 2.916-.233.322-.025.643-.04.965-.06l.038.062c-.083.107-.164.216-.25.32-.876 1.047-1.946 1.817-3.24 2.23-.806.257-1.634.437-2.492.311a1.382 1.382 0 0 1-.318-.063c-.494-.198-.962-.023-1.43.102a.44.44 0 0 0-.212.196 27.066 27.066 0 0 0-2.278 4.595c-.095.247-.166.503-.251.763.357.004.508-.137.506-.455-.004-.934.458-1.617 1.167-2.149.973-.728 2.097-1.126 3.248-1.458.632-.181 1.258-.384 1.887-.575.077-.013.155-.02.233-.02-.144.33-.25.627-.397.903a7.088 7.088 0 0 1-3.141 3.085 5.897 5.897 0 0 1-2.7.634.979.979 0 0 0-.329.092c-.052.02-.089.085-.142.102-.462.15-.57.544-.686.956a22.104 22.104 0 0 0-.75 4.045c-.047.535-.087 1.07-.13 1.616.281-.057.467-.285.421-.483-.202-.873-.016-1.678.44-2.423.543-.887 1.327-1.528 2.186-2.078.725-.464 1.466-.902 2.199-1.353.112-.07.219-.148.372-.252.019.094.03.19.031.286-.143 1.544-.657 2.93-1.708 4.092-.798.883-1.718 1.59-2.883 1.868-.486.116-.67.524-1.008.777-.04.031-.035.139-.036.21-.007 1.35.11 2.699.352 4.026.111.622.279 1.233.424 1.847.022.053.051.102.087.147.297-.343.287-.41.077-.754-.313-.513-.35-1.077-.256-1.661.182-1.148.863-2.014 1.6-2.833.718-.8 1.486-1.553 2.233-2.324a2.5 2.5 0 0 1 .21-.167c.049.302.108.546.125.793.06.878.06 1.756-.203 2.608a7.373 7.373 0 0 1-1.051 2.083 5.864 5.864 0 0 1-2.006 1.753c-.137.076-.2.276-.316.4-.366.389-.277.801-.114 1.245a23.085 23.085 0 0 0 1.96 4.165c.193.315.39.628.588.94.048.075.108.141.17.22.167-.321.15-.433-.082-.622-.513-.418-.692-1.016-.857-1.62-.222-.817-.002-1.591.248-2.355.39-1.197 1.03-2.28 1.587-3.4.043-.088.08-.18.14-.31.063.059.121.125.172.196.647 1.189 1.056 2.446.944 3.819-.115 1.408-.59 2.672-1.594 3.699-.27.275-.325.961-.115 1.246a21.387 21.387 0 0 0 3.405 3.656c.255.217.515.429.773.641.01.009.032.003.067.005Z"/><g fill="#fff" clip-path="url(#clip0_1322_67699)"><path d="M36 50.124V29.782c0-2.656 1.699-4.82 4.261-5.402.39-.087.79-.13 1.189-.13 5.61-.008 11.219-.009 16.828-.003 2.678.003 4.892 1.857 5.35 4.517.118.681.083 1.393.084 2.09.016 12.364.028 24.728.037 37.092 0 .918-.02 1.835-.04 2.752-.05 2.361-1.645 4.458-3.898 5.077a5.889 5.889 0 0 1-1.525.209c-5.618.014-11.236.017-16.854.008a5.365 5.365 0 0 1-3.535-1.302 5.466 5.466 0 0 1-1.894-4.25c-.004-6.772-.005-13.544-.003-20.316Zm2.166-17.236v34.447h23.41V32.888h-23.41Zm23.406 36.645h-23.4c0 .518-.06 1.03.01 1.522.236 1.664 1.707 2.81 3.317 2.784 2.133-.034 4.267-.008 6.4-.008 3.459 0 6.917 0 10.375.002a3.19 3.19 0 0 0 1.943-.608c1.26-.92 1.489-2.23 1.355-3.692ZM38.158 30.699H61.56c0-.476.033-.94-.006-1.397-.133-1.563-1.54-2.884-3.09-2.887-5.726-.009-11.453-.008-17.178 0-.971.002-1.763.435-2.395 1.172-.775.904-.815 1.985-.732 3.112Z"/><path d="M40.416 51.195c-.015-5.25 4.237-9.552 9.45-9.563 5.208-.011 9.442 4.267 9.451 9.55a9.595 9.595 0 0 1-2.774 6.732 9.403 9.403 0 0 1-6.67 2.79 9.403 9.403 0 0 1-6.674-2.78 9.594 9.594 0 0 1-2.783-6.729Zm9.46 7.397c.965 0 1.92-.19 2.812-.564a7.32 7.32 0 0 0 2.382-1.61 7.402 7.402 0 0 0 1.588-2.411 7.463 7.463 0 0 0-.023-5.679 7.401 7.401 0 0 0-1.606-2.398 7.317 7.317 0 0 0-2.395-1.591 7.262 7.262 0 0 0-2.816-.542c-4.02.015-7.284 3.348-7.268 7.422.017 4.066 3.316 7.387 7.326 7.373Z"/><path d="M48.806 52.815v-.265l.001-5.357c.001-.447.186-.803.59-1.008a1.007 1.007 0 0 1 1.087.075c.339.234.465.577.465.98-.001 1.77-.002 3.538 0 5.306v.343c.21-.216.368-.384.531-.546.47-.47 1.127-.496 1.562-.066.436.432.422 1.1-.042 1.575-.778.797-1.559 1.592-2.342 2.385a1.07 1.07 0 0 1-.779.34 1.062 1.062 0 0 1-.78-.34c-.793-.805-1.589-1.61-2.376-2.42-.578-.596-.359-1.545.412-1.792a1.016 1.016 0 0 1 1.083.263c.182.18.354.37.53.556l.058-.029Z"/></g><defs><clipPath id="clip0_1322_67699"><path fill="#fff" d="M36 24.242h27.749v51.751H36z"/></clipPath></defs></svg>