<svg xmlns="http://www.w3.org/2000/svg" width="240" height="240" fill="none" viewBox="0 0 240 240"><path fill="#DAEEFD" d="M132.195 120c0 30.928-25.116 56-56.097 56C45.116 176 20 150.928 20 120s25.116-56 56.098-56c30.981 0 56.097 25.072 56.097 56Z"/><path fill="#191919" fill-rule="evenodd" d="M76.098 171.13c28.287 0 51.219-22.891 51.219-51.13 0-28.239-22.932-51.13-51.22-51.13-28.287 0-51.219 22.891-51.219 51.13 0 28.239 22.932 51.13 51.22 51.13Zm0 4.87c30.981 0 56.097-25.072 56.097-56s-25.116-56-56.097-56C45.116 64 20 89.072 20 120s25.116 56 56.098 56Z" clip-rule="evenodd"/><path fill="#fff" d="M220 120c0 30.928-25.116 56-56.098 56-30.981 0-56.097-25.072-56.097-56s25.116-56 56.097-56C194.884 64 220 89.072 220 120Z"/><path fill="#191919" fill-rule="evenodd" d="M163.902 171.13c28.288 0 51.22-22.891 51.22-51.13 0-28.239-22.932-51.13-51.22-51.13-28.287 0-51.219 22.891-51.219 51.13 0 28.239 22.932 51.13 51.219 51.13Zm0 4.87C194.884 176 220 150.928 220 120s-25.116-56-56.098-56c-30.981 0-56.097 25.072-56.097 56s25.116 56 56.097 56Z" clip-rule="evenodd"/><path fill="#191919" d="M179.122 109.288h-2.627a13.151 13.151 0 0 0-2.009-4.34c-.824-1.307-1.905-2.427-3.244-3.361v-.14h7.88c.515 0 .927-.14 1.236-.42.412-.373.618-.793.618-1.26 0-.467-.206-.84-.618-1.12-.309-.373-.721-.56-1.236-.56h-30.439c-.515 0-.927.187-1.236.56-.309.28-.515.607-.618.98v.56c.103 0 .155.047.155.14V100.747h.154v.14c.103 0 .155.047.155.14.103 0 .154.047.154.14h.155c.103 0 .154.047.154.14h.155l.154.14h.618l12.825.28c2.575 0 4.892.747 6.953 2.241 2.06 1.4 3.45 3.174 4.171 5.32h-23.949c-.515 0-.978.187-1.39.561-.309.28-.464.653-.464 1.12 0 .466.155.886.464 1.26.412.28.875.42 1.39.42h24.258c-.206 2.707-1.442 4.994-3.708 6.861-2.163 1.867-4.738 2.8-7.725 2.8h-10.507c-.721 0-1.391.234-2.009.7-.515.467-.772 1.074-.772 1.821 0 .373.103.746.309 1.12.206.28.463.513.772.7l20.705 14.842.618.28c.206.093.412.14.618.14.515 0 .927-.14 1.236-.42.412-.373.618-.793.618-1.26a.904.904 0 0 0-.309-.7 1.731 1.731 0 0 0-.464-.7l-18.386-13.162h7.571c4.017 0 7.468-1.26 10.352-3.781 2.987-2.52 4.583-5.554 4.789-9.101v-.14h2.473c.515 0 .927-.14 1.236-.42.412-.374.618-.794.618-1.26 0-.467-.206-.84-.618-1.12-.309-.374-.721-.561-1.236-.561ZM91.317 109.288H88.69a13.148 13.148 0 0 0-2.009-4.34c-.824-1.307-1.905-2.427-3.244-3.361v-.14h7.88c.515 0 .927-.14 1.236-.42.412-.373.618-.793.618-1.26 0-.467-.206-.84-.618-1.12-.31-.373-.721-.56-1.236-.56H60.879c-.515 0-.927.187-1.237.56-.309.28-.515.607-.618.98v.56c.103 0 .155.047.155.14V100.747h.154v.14c.103 0 .155.047.155.14.103 0 .154.047.154.14h.155c.103 0 .155.047.155.14h.154l.154.14h.619l12.824.28c2.575 0 4.892.747 6.953 2.241 2.06 1.4 3.45 3.174 4.171 5.32H60.88c-.515 0-.979.187-1.391.561-.31.28-.464.653-.464 1.12 0 .466.155.886.464 1.26.412.28.876.42 1.39.42h24.258c-.206 2.707-1.442 4.994-3.708 6.861-2.163 1.867-4.738 2.8-7.725 2.8H63.196c-.72 0-1.39.234-2.008.7-.516.467-.773 1.074-.773 1.821 0 .373.103.746.309 1.12.206.28.464.513.773.7L82.2 141.493l.618.28c.206.093.412.14.618.14.515 0 .927-.14 1.236-.42.412-.373.618-.793.618-1.26a.904.904 0 0 0-.31-.7 1.73 1.73 0 0 0-.463-.7l-18.386-13.162h7.57c4.018 0 7.469-1.26 10.353-3.781 2.987-2.52 4.583-5.554 4.79-9.101v-.14h2.472c.515 0 .927-.14 1.236-.42.412-.374.618-.794.618-1.26 0-.467-.206-.84-.618-1.12-.31-.374-.721-.561-1.236-.561Z"/></svg>