<svg xmlns="http://www.w3.org/2000/svg" width="48" height="48" fill="none" viewBox="0 0 48 48"><path fill="#000" d="M24.148 5.746c.446 0 .891.074 1.336.223.446.148.891.37 1.336.668l.297.222.074.075.149-.075c.247-.198.52-.346.816-.445.297-.099.619-.148.965-.148l.371-.075h.297c.445 0 .816.075 1.113.223.347.149.668.346.965.594l.223.222.074.075.52.593c.148.149.321.273.52.372.197.098.42.197.667.296l.223.075 1.484.445-1.039 1.113c-.841.94-1.583 1.88-2.227 2.82a22.22 22.22 0 0 0-1.632 2.598c1.138.445 2.3 1.41 3.488 2.895 1.237 1.435 2.152 3.142 2.746 5.12.445 1.436.668 2.87.668 4.305.05 1.386-.05 2.846-.297 4.38l-.148.667-.371 2.004V35.434c.05.05.099.148.148.297l.297.519c.297.594.445 1.113.445 1.559 0 .445-.222.915-.668 1.41-.346.445-.717.742-1.113.89-.396.1-.965.149-1.707.149l-.594-.074h-.816c-.198 0-.42.024-.668.074-.1 0-.223.025-.371.074l-.297.148-.371.149-1.41.594-.52.222a10.75 10.75 0 0 1-2.45.742c-.79.198-1.681.297-2.671.297-.99 0-1.855-.099-2.598-.297a11.265 11.265 0 0 1-2.3-.742l-1.559-.668-.371-.148a2.9 2.9 0 0 0-.594-.223l-.594-.148a4.995 4.995 0 0 0-.816-.074H13.98c-.84.05-1.484.024-1.93-.075-.395-.148-.766-.445-1.113-.89a4.549 4.549 0 0 1-.445-.817 4.169 4.169 0 0 1-.074-.816v-.223l.074-.148V36.992l.297-.742c.099-.247.173-.445.223-.594.05-.148.074-.321.074-.52V34.618l-.074-.37-.371-2.302c-.198-1.534-.297-2.919-.297-4.156.05-1.237.272-2.474.668-3.71v-.224l.148-.296a15.054 15.054 0 0 1 2.672-4.75c1.237-1.485 2.375-2.5 3.414-3.043a21.176 21.176 0 0 0-1.633-2.746 21.356 21.356 0 0 0-1.707-2.301l-.445-.52-1.04-1.113 1.485-.445c.297-.05.544-.124.742-.223l.743-.445.222-.223.817-.742c.148-.149.297-.248.445-.297l.445-.297.223-.074.223-.074c.445-.149.89-.198 1.336-.149.445.05.915.198 1.41.446l.297.148.222.148a4.8 4.8 0 0 1 1.188-.668 3.716 3.716 0 0 1 1.261-.37l.372-.075h.296Zm5.344 11.504a.57.57 0 0 0-.223.074h-.222l-.223.074-1.187.372a9.564 9.564 0 0 1-1.856.52 9.979 9.979 0 0 1-1.781.148 15.67 15.67 0 0 1-1.559-.075 23.373 23.373 0 0 1-1.558-.37l-.668-.223-.817-.297-.37-.149-.297-.074h-.149c-.495 0-1.385.668-2.672 2.004a12.965 12.965 0 0 0-2.82 4.527l-.149.371-.148.446a15.154 15.154 0 0 0-.52 3.34c0 1.088.1 2.325.297 3.71l.297 2.301.074.52a1.4 1.4 0 0 1 .075.445v.371c-.05.297-.1.57-.149.817-.05.247-.148.52-.297.816l-.222.594v.074l-.075.148v.149l.149.148c.099.149.198.248.297.297H14.277c.347-.05.668-.05.965 0 .346 0 .693.025 1.04.074.247.05.494.124.741.223.297.05.57.124.817.223l.52.222 1.484.668c.692.297 1.336.52 1.93.668.643.1 1.385.149 2.226.149.89 0 1.658-.05 2.3-.149a11.258 11.258 0 0 0 2.079-.668l.445-.222 1.485-.668c.05-.05.099-.075.148-.075a.66.66 0 0 1 .297-.074.798.798 0 0 1 .445-.148c.198-.05.371-.1.52-.149.297-.05.593-.074.89-.074a6.39 6.39 0 0 1 1.04-.074l.816.074h.668a.933.933 0 0 0 .37-.223l.075-.074.074-.074a.57.57 0 0 0 .075-.223 1.22 1.22 0 0 0-.075-.37l-.074-.15-.445-.741a5.26 5.26 0 0 1-.223-.668 2.439 2.439 0 0 1-.074-.594v-.371l.148-.446.223-1.41.223-.965c.198-1.385.272-2.72.222-4.007 0-1.287-.173-2.573-.52-3.86-.593-1.979-1.508-3.612-2.745-4.898-1.237-1.336-2.202-2.004-2.895-2.004Zm.149 5.121c.099 0 .198.025.297.074l.296.149c.1.099.149.198.149.297.05.099.074.198.074.297a.826.826 0 0 1-.074.37c0 .1-.05.198-.149.297l-.297.149c-.049 0-.099.025-.148.074h-2.746l.148.149.075.148.074.148.148.223.149.445c.05.1.099.223.148.372v.148h1.856c.05 0 .099.025.148.074.099 0 .173.025.223.074l.074.075.148.074c.1.099.149.198.149.297.05.099.074.198.074.297 0 .099-.025.222-.074.37 0 .1-.05.174-.149.223l-.297.149c-.049.05-.099.074-.148.074h-1.93l-.074.223c-.05.346-.148.668-.297.965a6.764 6.764 0 0 1-.52.742l-.222.297-.297.222a4.816 4.816 0 0 1-1.187.742 3.564 3.564 0 0 1-1.262.223h-1.336l4.008 2.969v.074l.074.074.074.149c.05.05.075.099.075.148.049.05.074.124.074.223s-.025.222-.075.37a.485.485 0 0 1-.222.224c-.05.098-.149.173-.297.222a.66.66 0 0 1-.297.074H25.855l-.148-.074-.223-.148-6.011-4.453a207.7 207.7 0 0 0-.149-.149l-.148-.297c0-.05-.025-.099-.074-.148v-.594c0-.05.024-.05.074 0 0-.148.025-.247.074-.297l.297-.297c.05 0 .099-.024.148-.074a.659.659 0 0 1 .297-.074h.371c.248.05.47.099.668.148l.742.149a1.4 1.4 0 0 1 .446.074h1.485c.296 0 .568-.025.816-.074.247-.1.494-.248.742-.445.148-.149.272-.322.37-.52.15-.198.273-.396.372-.594v-.074h-6.086c-.05 0-.099-.025-.148-.074l-.149-.075-.074-.074a.486.486 0 0 1-.223-.222V26.305c.05-.1.124-.198.223-.297a.864.864 0 0 1 .223-.149.659.659 0 0 1 .296-.074l.149-.074h5.789l-.074-.074a1.165 1.165 0 0 0-.223-.297 1.162 1.162 0 0 0-.223-.297l-.148-.223-.223-.148a1.672 1.672 0 0 0-.593-.297 2.648 2.648 0 0 0-.668-.223l-.297-.074h-3.711v-.074h-.075v-.074h-.074l-.074-.075h-.074v-.074h-.074v-.074l-.075-.074-.074-.223V22.891a.485.485 0 0 1 .223-.223.863.863 0 0 1 .148-.223.659.659 0 0 1 .297-.074h9.649ZM24.148 7.676a3.18 3.18 0 0 0-1.113.222c-.346.1-.693.297-1.039.594l-.297.223-.594.52-.593-.446c-.446-.346-.866-.569-1.262-.668a2.187 2.187 0 0 0-.965-.074l-.297.148c-.099.05-.198.124-.297.223l-.148.148-.148.149-.594.52a1.163 1.163 0 0 1-.297.222l-.223.223-.297.148-.222.149.37.52c.446.543.867 1.137 1.262 1.78.396.644.792 1.312 1.188 2.004l.371.668.223.371.222.075c.594.247 1.188.445 1.782.593.593.1 1.187.174 1.78.223h.595l.593.074c.792 0 1.559-.074 2.301-.223a12.748 12.748 0 0 0 2.078-.593l.223-.074v-.149a14.94 14.94 0 0 1 1.262-2.3 23.66 23.66 0 0 1 1.707-2.376l.52-.668-.15-.074-.222-.223-.297-.148-.222-.297-.817-.742c-.099-.148-.198-.223-.297-.223-.099-.05-.247-.074-.445-.074-.396 0-.742.05-1.039.149a.95.95 0 0 0-.594.37l-.074.075-.668 1.039-.816-.816c-.446-.446-.866-.767-1.262-.965a2.635 2.635 0 0 0-1.188-.297Z"/></svg>