<svg xmlns="http://www.w3.org/2000/svg" width="65" height="64" fill="none" viewBox="0 0 65 64"><path fill="#fff" d="M.5 0h64v64H.5z"/><g fill="#000" clip-path="url(#clip0_285_35421)"><path d="M48.276 28.457v1.117c0 .678.002 1.356 0 2.033-.004.838-.337 1.305-.938 1.316-.595.012-.95-.468-.95-1.297V14.689c0-1.303.006-2.606-.002-3.91-.011-1.845-1.229-3.089-3.067-3.092-5.75-.01-11.5-.01-17.25 0-1.784.004-3.011 1.242-3.012 3.023-.004 12.214-.003 24.427 0 36.64 0 1.863 1.194 3.074 3.059 3.077 5.28.01 10.562.004 15.842.006.208 0 .42-.01.624.026.511.088.852.508.825.984-.027.472-.418.857-.92.898-.138.012-.278.005-.417.005H26.28c-3.066-.001-5.122-2.068-5.122-5.143-.001-12.022.005-24.044-.01-36.066-.002-1.731.468-3.218 1.869-4.32.83-.651 1.784-1.034 2.835-1.037 5.907-.018 11.813-.032 17.72.001 2.665.015 4.694 2.23 4.7 5.044.013 4.743.008 9.486-.001 14.229 0 .355.099.608.355.865 3.828 3.835 7.646 7.678 11.46 11.525 1.141 1.151 1.752 2.571 1.76 4.171.031 7.07.015 14.142.012 21.213 0 .694-.379 1.147-.935 1.16-.574.014-.948-.444-.948-1.185-.002-6.897-.01-13.794.008-20.691.003-1.4-.443-2.566-1.436-3.557-3.073-3.065-6.129-6.148-9.192-9.223-.31-.312-.624-.62-.937-.93l-.142.056Z"/><path d="M42.988 33.204c-1.539 1.586-2.305 4.191-.278 6.238 1.49 1.505 2.989 3.003 4.492 4.495.52.515.582.836.254 1.473-1.176 2.286-.96 4.449.585 6.49.062.083.128.164.188.25.34.489.273 1.053-.162 1.393-.378.295-.929.215-1.293-.218-1.927-2.291-2.4-4.877-1.468-7.702.172-.522.118-.828-.274-1.207a133.075 133.075 0 0 1-3.746-3.764c-1.806-1.89-2.233-4.36-1.048-6.683.513-1.005 1.267-1.894 1.963-2.795.362-.468.985-.443 1.42-.022 2.79 2.706 5.578 5.416 8.366 8.124.91.883 1.822 1.762 2.73 2.646.296.29.466.663.255 1.033-.147.257-.438.556-.698.59-.29.039-.694-.119-.917-.33-2.097-2-4.166-4.03-6.245-6.05-1.27-1.233-2.543-2.464-3.817-3.695-.098-.095-.206-.178-.308-.266ZM44.394 62.068h4.252c.191 0 .383-.009.573.005.543.04.971.477.966.975-.006.491-.397.887-.94.942-.137.015-.277.008-.416.008H28.3c-.121 0-.244.005-.364-.005-.577-.046-.969-.44-.964-.962.005-.511.42-.924.973-.96.156-.01.312-.003.469-.003h14.06c.01-.227.027-.41.028-.595.002-1.372-.015-2.745.01-4.116.007-.386-.144-.579-.449-.782a24.38 24.38 0 0 1-1.836-1.361c-.52-.422-.593-1.05-.222-1.469.37-.417.9-.388 1.444.008a50.96 50.96 0 0 0 2.354 1.602c.408.263.596.596.594 1.076-.009 1.668-.003 3.335-.003 5.003v.634ZM34.686 11.576c-.901 0-1.802.006-2.703-.002-.682-.005-1.111-.394-1.101-.973.01-.559.43-.947 1.081-.95 1.837-.01 3.674-.01 5.51 0 .635.003 1.082.417 1.088.956.006.559-.452.962-1.12.968-.918.007-1.837.001-2.755.001ZM34.694 48.463c-.311 0-.624.017-.934-.005-.56-.038-.964-.463-.952-.971.012-.502.437-.928.986-.945a29.857 29.857 0 0 1 1.818 0c.582.017 1.018.458 1.008.979-.01.502-.423.904-.99.939-.311.019-.624.003-.936.003ZM23.967 62.07c.55.021 1.008.481.99.998-.017.542-.52.963-1.105.927-.574-.036-.988-.477-.955-1.018.031-.525.507-.929 1.07-.907Z"/></g><path fill="#F2B100" d="M37.172 28h-3.133v-6.218c0-.282.003-.592.008-.93.01-.339.023-.644.039-.915-.136.162-.263.3-.383.415a9.409 9.409 0 0 1-.336.32l-1.297 1.07-1.601-1.969 3.922-3.195h2.78V28Z"/><defs><clipPath id="clip0_285_35421"><path fill="#fff" d="M3.7 5.76h58.167V64H3.7z"/></clipPath></defs></svg>