<svg xmlns="http://www.w3.org/2000/svg" width="24" height="24" fill="none" viewBox="0 0 24 24"><path fill="#F9FBFC" d="M0 0h24v24H0z"/><path fill="#000" fill-rule="evenodd" stroke="#000" stroke-width=".2" d="M15.507 3H8.493C7.67 3 7 3.671 7 4.497v15.006C7 20.328 7.67 21 8.493 21h7.014C16.33 21 17 20.329 17 19.503V4.497C17 3.67 16.33 3 15.507 3Zm0 17.488a.985.985 0 0 0 .983-.985V4.497a.985.985 0 0 0-.983-.985H8.493a.985.985 0 0 0-.983.985v15.006c0 .543.441.985.983.985h7.014Z" clip-rule="evenodd"/><path fill="#000" d="M12.246 3.975h-1.523a.256.256 0 0 0 0 .511h1.523a.256.256 0 0 0 0-.511ZM13.278 4.23c0 .26-.392.26-.392 0 0-.262.392-.262.392 0Z"/><path fill="#191919" fill-rule="evenodd" d="M10.327 11.003h-.603a.221.221 0 0 0-.224.218v1.557c0 .12.1.218.224.218a.221.221 0 0 0 .224-.218v-.56h.38a.636.636 0 0 0 .441-.179.602.602 0 0 0 .001-.861.627.627 0 0 0-.443-.175Zm-.379.778h.38a.178.178 0 0 0 .124-.049.169.169 0 0 0 .051-.122.165.165 0 0 0-.05-.122.174.174 0 0 0-.126-.05h-.379v.343ZM12.095 11h-.605a.221.221 0 0 0-.224.218v1.563c0 .057.024.113.066.154.042.04.099.064.158.064h.606a.637.637 0 0 0 .443-.18.602.602 0 0 0 .184-.43v-.78a.603.603 0 0 0-.184-.431.636.636 0 0 0-.444-.178Zm.127 1.513a.172.172 0 0 0 .053-.123v-.78a.172.172 0 0 0-.053-.123.182.182 0 0 0-.126-.05h-.382v1.127h.382a.182.182 0 0 0 .126-.05Z" clip-rule="evenodd"/><path fill="#191919" d="M14.5 11.218a.215.215 0 0 1-.066.154.228.228 0 0 1-.158.064h-.784v.347h.52c.123 0 .223.097.223.218 0 .12-.1.218-.224.218h-.52v.563c0 .12-.1.218-.223.218a.221.221 0 0 1-.225-.218v-1.564c0-.12.1-.218.225-.218h1.006c.06 0 .117.023.159.064.042.04.067.096.067.154Z"/></svg>