<svg xmlns="http://www.w3.org/2000/svg" width="24" height="24" fill="none" viewBox="0 0 24 24"><path fill="#F9FBFC" d="M0 0h24v24H0z"/><path fill="#000" fill-rule="evenodd" stroke="#000" stroke-width=".2" d="M15.507 3H8.493C7.67 3 7 3.671 7 4.497v15.006C7 20.328 7.67 21 8.493 21h7.014C16.33 21 17 20.329 17 19.503V4.497C17 3.67 16.33 3 15.507 3Zm0 17.488a.985.985 0 0 0 .983-.985V4.497a.985.985 0 0 0-.983-.985H8.493a.985.985 0 0 0-.983.985v15.006c0 .543.441.985.983.985h7.014Z" clip-rule="evenodd"/><path fill="#000" d="M12.246 3.975h-1.523a.256.256 0 0 0 0 .511h1.523a.256.256 0 0 0 0-.511ZM13.278 4.23c0 .26-.392.26-.392 0 0-.262.392-.262.392 0Z"/><path fill="#191919" d="M12.793 14a.281.281 0 0 1-.08-.012.55.55 0 0 1-.065-.023l-.08-.035-1.778-1.24a.688.688 0 0 1-.066-.035.73.73 0 0 1-.053-.081.24.24 0 0 1-.04-.081.459.459 0 0 1 .013-.255.416.416 0 0 1 .12-.128.405.405 0 0 1 .131-.081.605.605 0 0 1 .171-.023h.896c.255 0 .43-.05.527-.15.106-.101.167-.175.185-.221h-1.805a.433.433 0 0 1-.145-.023.359.359 0 0 1-.119-.07.309.309 0 0 1-.079-.104.304.304 0 0 1-.026-.128c0-.039.009-.077.026-.116a.355.355 0 0 1 .198-.174.305.305 0 0 1 .145-.034l1.765.011a3.197 3.197 0 0 0-.158-.174c-.079-.1-.25-.15-.514-.15l-1.093-.024-.119-.011a.296.296 0 0 1-.17-.105.351.351 0 0 1-.08-.174v-.092a.244.244 0 0 1 .04-.082.316.316 0 0 1 .065-.08.29.29 0 0 1 .119-.082.433.433 0 0 1 .145-.023h2.595c.053 0 .101.008.145.023a.355.355 0 0 1 .198.174.306.306 0 0 1 .026.128.364.364 0 0 1-.026.127.31.31 0 0 1-.08.104.358.358 0 0 1-.118.07.436.436 0 0 1-.145.023h-.21c.026.047.061.105.105.174a.586.586 0 0 1 .105.162h.066c.053 0 .088.012.106.035a.611.611 0 0 1 .092.07.31.31 0 0 1 .079.104.28.28 0 0 1 .026.116.306.306 0 0 1-.026.128.31.31 0 0 1-.08.104.358.358 0 0 1-.118.07.434.434 0 0 1-.145.023h-.026a.826.826 0 0 1-.158.37c-.07.094-.167.186-.29.28a1.43 1.43 0 0 1-.474.277 1.58 1.58 0 0 1-.553.093h-.04l1.094.754a.258.258 0 0 1 .052.058c.018.015.03.03.04.046.017.023.03.05.04.081.008.023.012.05.012.081a.362.362 0 0 1-.026.128.355.355 0 0 1-.198.174.433.433 0 0 1-.144.023Z"/></svg>