<svg xmlns="http://www.w3.org/2000/svg" width="24" height="24" fill="none" viewBox="0 0 24 24"><path fill="#F9FBFC" d="M0 0h24v24H0z"/><path fill="#000" fill-rule="evenodd" stroke="#000" stroke-width=".2" d="M15.507 3H8.493C7.67 3 7 3.671 7 4.497v15.006C7 20.328 7.67 21 8.493 21h7.014C16.33 21 17 20.329 17 19.503V4.497C17 3.67 16.33 3 15.507 3Zm0 17.488a.985.985 0 0 0 .983-.985V4.497a.985.985 0 0 0-.983-.985H8.493a.985.985 0 0 0-.983.985v15.006c0 .543.441.985.983.985h7.014Z" clip-rule="evenodd"/><path fill="#000" d="M12.246 3.975h-1.523a.256.256 0 0 0 0 .511h1.523a.256.256 0 0 0 0-.511ZM13.278 4.23c0 .26-.392.26-.392 0 0-.262.392-.262.392 0Z"/><path fill="#191919" d="M13.5 9.75h-.25v-.5a1.25 1.25 0 0 0-2.5 0v.5h-.25c-.275 0-.5.225-.5.5v2.5c0 .275.225.5.5.5h3c.275 0 .5-.225.5-.5v-2.5c0-.275-.225-.5-.5-.5ZM12 12a.501.501 0 0 1-.5-.5c0-.275.225-.5.5-.5s.5.225.5.5-.225.5-.5.5Zm.775-2.25h-1.55v-.5a.776.776 0 0 1 1.55 0v.5Z"/><path fill="#000" d="M11.1 15.421a.17.17 0 0 1-.028.094.152.152 0 0 1-.095.067.424.424 0 0 1-.088.014l-.083.006c.032.022.062.046.092.07.029.025.05.048.064.068.01.014.018.03.022.047a.163.163 0 0 1-.093.2.146.146 0 0 1-.06.013.167.167 0 0 1-.076-.017.154.154 0 0 1-.059-.052.293.293 0 0 1-.025-.046 1.149 1.149 0 0 1-.065-.2l-.02.07a1.961 1.961 0 0 1-.047.13.26.26 0 0 1-.025.046.155.155 0 0 1-.058.052.168.168 0 0 1-.075.017.15.15 0 0 1-.065-.014.189.189 0 0 1-.051-.037.184.184 0 0 1-.034-.052.152.152 0 0 1-.006-.11.151.151 0 0 1 .024-.047.342.342 0 0 1 .064-.068c.03-.024.06-.048.092-.07a1.704 1.704 0 0 1-.146-.012.512.512 0 0 1-.052-.013.166.166 0 0 1-.093-.22.17.17 0 0 1 .148-.101c.022 0 .041.003.057.008a.335.335 0 0 1 .079.045c.03.022.06.045.09.07a5.557 5.557 0 0 1-.02-.058 1.177 1.177 0 0 1-.027-.111.268.268 0 0 1-.004-.044.179.179 0 0 1 .047-.117.16.16 0 0 1 .23 0 .178.178 0 0 1 .048.117.666.666 0 0 1-.016.096 1.614 1.614 0 0 1-.034.119c.03-.025.06-.048.09-.07a.443.443 0 0 1 .079-.047.18.18 0 0 1 .057-.009.15.15 0 0 1 .065.015.153.153 0 0 1 .084.09c.009.019.013.04.013.061ZM12.5 15.421a.17.17 0 0 1-.028.094.152.152 0 0 1-.095.067.424.424 0 0 1-.088.014l-.083.006c.032.022.062.046.092.07.029.025.05.048.064.068.01.014.018.03.022.047a.163.163 0 0 1-.093.2.147.147 0 0 1-.06.013.168.168 0 0 1-.076-.017.154.154 0 0 1-.059-.052.293.293 0 0 1-.025-.046 1.149 1.149 0 0 1-.065-.2l-.02.07a2.198 2.198 0 0 1-.047.13.254.254 0 0 1-.025.046.154.154 0 0 1-.059.052.168.168 0 0 1-.075.017.15.15 0 0 1-.064-.014.189.189 0 0 1-.051-.037.184.184 0 0 1-.034-.052.152.152 0 0 1-.006-.11.151.151 0 0 1 .024-.047.342.342 0 0 1 .064-.068c.03-.024.06-.048.092-.07a1.704 1.704 0 0 1-.146-.012.512.512 0 0 1-.052-.013.166.166 0 0 1-.093-.22.17.17 0 0 1 .148-.101c.022 0 .041.003.057.008a.333.333 0 0 1 .079.045c.03.022.06.045.09.07a4.055 4.055 0 0 1-.035-.117 1.328 1.328 0 0 1-.011-.052.268.268 0 0 1-.005-.044.179.179 0 0 1 .047-.117.159.159 0 0 1 .23 0 .178.178 0 0 1 .048.117.666.666 0 0 1-.016.096 1.443 1.443 0 0 1-.034.119c.03-.025.06-.048.09-.07a.443.443 0 0 1 .079-.047.18.18 0 0 1 .057-.009.15.15 0 0 1 .065.015.153.153 0 0 1 .084.09c.009.019.013.04.013.061ZM13.9 15.421a.17.17 0 0 1-.028.094.153.153 0 0 1-.095.067.417.417 0 0 1-.088.014l-.083.006c.032.022.062.046.092.07.029.025.05.048.064.068.01.014.018.03.022.047a.163.163 0 0 1-.093.2.147.147 0 0 1-.06.013.168.168 0 0 1-.076-.017.154.154 0 0 1-.059-.052.293.293 0 0 1-.025-.046 1.149 1.149 0 0 1-.065-.2l-.02.07a2.198 2.198 0 0 1-.047.13.254.254 0 0 1-.025.046.154.154 0 0 1-.059.052.168.168 0 0 1-.075.017.15.15 0 0 1-.064-.014.189.189 0 0 1-.051-.037.184.184 0 0 1-.034-.052.15.15 0 0 1-.013-.061.163.163 0 0 1 .03-.096.342.342 0 0 1 .065-.068c.03-.024.06-.048.092-.07a1.697 1.697 0 0 1-.146-.012.512.512 0 0 1-.052-.013.166.166 0 0 1-.093-.22.17.17 0 0 1 .148-.101c.022 0 .041.003.058.008a.333.333 0 0 1 .078.045c.03.022.06.045.09.07a4.055 4.055 0 0 1-.035-.117 1.328 1.328 0 0 1-.011-.052.268.268 0 0 1-.005-.044.179.179 0 0 1 .047-.117.159.159 0 0 1 .23 0 .178.178 0 0 1 .048.117.666.666 0 0 1-.032.155l-.019.06c.03-.025.06-.048.09-.07a.443.443 0 0 1 .08-.047.182.182 0 0 1 .057-.009.15.15 0 0 1 .065.015.154.154 0 0 1 .084.09c.009.019.013.04.013.061Z"/></svg>