<svg xmlns="http://www.w3.org/2000/svg" width="24" height="24" fill="none" viewBox="0 0 24 24"><path fill="#F9FBFC" d="M0 0h24v24H0z"/><path fill="#000" fill-rule="evenodd" stroke="#000" stroke-width=".2" d="M15.507 3H8.493C7.67 3 7 3.671 7 4.497v15.006C7 20.328 7.67 21 8.493 21h7.014C16.33 21 17 20.329 17 19.503V4.497C17 3.67 16.33 3 15.507 3Zm0 17.488a.985.985 0 0 0 .983-.985V4.497a.985.985 0 0 0-.983-.985H8.493a.985.985 0 0 0-.983.985v15.006c0 .543.441.985.983.985h7.014Z" clip-rule="evenodd"/><path fill="#000" d="M12.246 3.975h-1.523a.256.256 0 0 0 0 .511h1.523a.256.256 0 0 0 0-.511ZM13.278 4.23c0 .26-.392.26-.392 0 0-.262.392-.262.392 0Z"/><path fill="#191919" stroke="#191919" d="M12.75 10.75a.75.75 0 1 1-1.5 0 .75.75 0 0 1 1.5 0ZM10 13.875c0-.024.008-.082.112-.179.108-.099.281-.201.511-.294A4.121 4.121 0 0 1 12 13.125c.355 0 .916.093 1.377.277.23.093.403.195.51.294.105.097.113.155.113.179V14h-4v-.125Z"/></svg>