<svg xmlns="http://www.w3.org/2000/svg" width="36" height="36" fill="none" viewBox="0 0 36 36"><path fill="#fff" d="M27.622 33V20.601l-.671-1.217c-.448-.886-1.305-1.329-2.573-1.329-1.268.074-2.2.259-2.798.554-.522.221-1.081.664-1.678 1.328V33h-6.378V13.295h6.378v2.878l1.566-1.992c1.045-1.328 2.649-1.919 4.812-1.771 2.014.147 3.692.848 5.035 2.103 1.417 1.255 2.275 3.173 2.573 5.756H34V33zM5.804 10.75c-1.044 0-1.94-.37-2.685-1.108C2.373 8.904 2 7.982 2 6.875c0-1.034.373-1.92 1.119-2.657C3.865 3.406 4.759 3 5.804 3s1.94.369 2.686 1.107 1.118 1.66 1.118 2.768c0 1.033-.373 1.955-1.118 2.767-.746.738-1.642 1.107-2.686 1.107zM9.05 33h-6.49V13.295h6.49z"/></svg>