<svg xmlns="http://www.w3.org/2000/svg" width="240" height="240" fill="none" viewBox="0 0 240 240"><path fill="#FDD335" d="M120 72a62.995 62.995 0 0 0-25.257 5.303c-8.008 3.502-15.283 8.633-21.412 15.103-6.129 6.47-10.99 14.15-14.307 22.603A73.04 73.04 0 0 0 54 141.67h26.533c0-5.471 1.02-10.889 3.004-15.943 1.983-5.055 4.89-9.648 8.555-13.516 3.665-3.869 8.016-6.938 12.805-9.032A37.678 37.678 0 0 1 120 100.008V72Z"/><path fill="#191919" fill-rule="evenodd" d="M117.25 74.966a60.445 60.445 0 0 0-21.455 5.02c-7.674 3.355-14.646 8.273-20.52 14.473-5.873 6.199-10.532 13.56-13.71 21.66a69.928 69.928 0 0 0-4.755 22.648h21.062a46.64 46.64 0 0 1 3.124-14.151c2.122-5.407 5.232-10.32 9.152-14.458 3.92-4.138 8.574-7.421 13.696-9.661A40.384 40.384 0 0 1 117.25 97.2V74.966Zm0-2.905a63.07 63.07 0 0 0-22.507 5.242c-8.008 3.502-15.283 8.633-21.412 15.103-6.129 6.47-10.99 14.15-14.307 22.603A72.96 72.96 0 0 0 54 141.67h26.533c0-5.471 1.02-10.889 3.004-15.943 1.983-5.055 4.89-9.648 8.555-13.516 3.665-3.869 8.016-6.938 12.805-9.032A37.678 37.678 0 0 1 120 100.008V72c-.918 0-1.835.02-2.75.06Z" clip-rule="evenodd"/><path fill="#fff" d="M186.001 141.67c0-9.54-1.857-18.979-5.454-27.731-3.597-8.752-8.859-16.631-15.459-23.148-6.601-6.518-14.399-11.535-22.911-14.74a62.797 62.797 0 0 0-26.575-3.896l1.718 27.15a38.267 38.267 0 0 1 16.196 2.374c5.188 1.953 9.94 5.011 13.963 8.983 4.022 3.972 7.229 8.774 9.421 14.107a44.485 44.485 0 0 1 3.324 16.901h25.777Z"/><path fill="#191919" fill-rule="evenodd" d="M183.191 138.767a69.886 69.886 0 0 0-5.167-23.673c-3.447-8.387-8.49-15.938-14.815-22.183-6.325-6.246-13.798-11.054-21.956-14.126a60.233 60.233 0 0 0-22.72-3.864l1.353 21.386a40.943 40.943 0 0 1 14.554 2.637c5.542 2.088 10.62 5.354 14.917 9.598 4.298 4.243 7.724 9.373 10.066 15.072a47.44 47.44 0 0 1 3.463 15.153h20.305Zm2.752 0c.038.966.058 1.934.058 2.903h-25.777a44.485 44.485 0 0 0-3.324-16.901c-2.192-5.333-5.399-10.135-9.421-14.107-4.023-3.972-8.775-7.03-13.963-8.983a38.267 38.267 0 0 0-16.196-2.375l-1.718-27.15a62.85 62.85 0 0 1 26.575 3.896c8.512 3.206 16.31 8.223 22.911 14.74 6.6 6.518 11.862 14.397 15.459 23.149a72.906 72.906 0 0 1 5.396 24.828Z" clip-rule="evenodd"/><path fill="#fff" fill-rule="evenodd" d="m120.949 168-16.161-58.489 36.932 48.347c-5.729 5.294-12.881 8.915-20.771 10.142Z" clip-rule="evenodd"/><path fill="#191919" fill-rule="evenodd" d="M122.897 164.682c5.53-1.241 10.616-3.758 14.967-7.247l-26.586-34.804 11.619 42.051ZM120.949 168c7.89-1.227 15.042-4.848 20.771-10.142l-36.932-48.347L120.949 168Z" clip-rule="evenodd"/></svg>