<svg xmlns="http://www.w3.org/2000/svg" width="65" height="65" fill="none" viewBox="0 0 65 65"><path fill="#fff" d="M.5.5h64v64H.5z"/><path fill="#fdd335" d="M43.274 21.584a8.602 8.602 0 1 0-17.205 0 8.602 8.602 0 0 0 17.205 0z"/><g fill="#000"><path d="M46.574 44.962c1.765-.731 3.427-1.454 5.115-2.11 2.422-.942 4.817-2.005 7.525-1.781 2.56.212 4.56 2.42 4.358 4.93-.131 1.622-1.144 2.741-2.44 3.537a81.832 81.832 0 0 1-5.782 3.253c-4.494 2.28-9.039 4.46-13.538 6.732-2.968 1.498-6.076 1.938-9.373 1.726-4.189-.27-8.272-1.052-12.33-2.062-1.03-.256-2.094-.368-3.145-.538-1.57-.253-2.824.437-4.025 1.329-1.926 1.429-2.346 1.443-4.261-.001-3.01-2.271-4.683-5.439-5.836-8.929a15.1 15.1 0 0 1-.707-6.221c.115-1.213.391-1.382 1.537-1.777 3.251-1.119 6.478-2.31 9.711-3.481 3.858-1.397 7.815-2.21 11.932-1.829 1.182.11 2.405.366 3.488.834 3.067 1.325 6.164 1.393 9.391.774a13.517 13.517 0 0 1 4.25-.121c2.472.327 4.078 2.357 4.13 4.865.005.247 0 .494 0 .87zM32.811 58.946c4.125 0 5.129-.183 7.776-1.49 5.472-2.7 10.933-5.424 16.375-8.186a19.621 19.621 0 0 0 3.323-2.106c1.381-1.098 1.255-2.387-.23-3.348-.335-.217-.802-.4-1.178-.353-1.268.16-2.594.24-3.766.69-3.914 1.51-7.761 3.187-11.65 4.758-1.866.754-3.727 1.571-5.664 2.076-2.378.62-4.792.093-7.163-.347-.65-.12-.893-.681-.819-1.29.07-.578.431-1.019 1.052-1.002.668.017 1.341.114 1.995.254 3.64.78 6.866-.33 9.893-2.208 1.257-.78 1.62-1.882 1.263-3.094-.35-1.184-1.296-1.897-2.776-1.859-1.28.033-2.574.16-3.828.415-2.763.561-5.434.412-8.078-.603-1.223-.469-2.486-.938-3.771-1.116-3.685-.51-7.259.22-10.728 1.4-3.202 1.091-6.345 2.353-9.53 3.492-.59.211-.826.448-.827 1.106-.007 2.86.876 5.459 2.228 7.922.869 1.584 1.973 2.988 3.46 4.06.45.325.781.363 1.322.019 1.073-.682 2.2-1.426 3.407-1.717 2.111-.51 4.235.028 6.297.585 4.182 1.129 8.42 1.86 11.617 1.942zM34.524 36.08c-7.883-.022-14.183-6.408-14.165-14.361.017-7.73 6.513-14.147 14.279-14.106 7.836.043 14.193 6.462 14.156 14.297-.036 7.858-6.413 14.19-14.27 14.17zm11.902-14.182c.064-6.443-5.275-11.85-11.761-11.909-6.527-.06-11.84 5.214-11.911 11.825-.07 6.459 5.17 11.804 11.66 11.89 6.575.089 11.946-5.19 12.012-11.806z"/><path d="M36.217 28.068c-.067 0-.134-.011-.202-.034s-.123-.044-.168-.067l-.201-.1-4.537-3.596a1.654 1.654 0 0 1-.168-.1 2.197 2.197 0 0 1-.134-.236c-.045-.067-.079-.146-.101-.235s-.034-.18-.034-.27c0-.178.023-.335.068-.47.067-.134.168-.257.302-.37.112-.111.224-.19.336-.234.135-.045.28-.068.437-.068H34.1c.65 0 1.098-.145 1.344-.436.269-.292.426-.505.47-.639h-4.603a.987.987 0 0 1-.37-.067c-.112-.045-.213-.112-.302-.202a.908.908 0 0 1-.269-.672.899.899 0 0 1 .269-.638c.09-.09.19-.157.302-.202a.706.706 0 0 1 .37-.1l4.503.033a8.955 8.955 0 0 0-.403-.504c-.202-.291-.639-.437-1.311-.437l-2.79-.067-.301-.034c-.18-.045-.325-.145-.437-.302s-.18-.325-.202-.504v-.27a.747.747 0 0 1 .1-.234c.046-.09.102-.168.169-.236.09-.112.19-.19.302-.235a.987.987 0 0 1 .37-.067h6.62c.134 0 .257.022.37.067s.212.112.302.202c.09.09.157.19.201.302s.068.235.068.37c0 .112-.023.235-.068.37a.895.895 0 0 1-.201.302c-.09.09-.19.157-.303.202s-.235.067-.37.067h-.537c.067.134.157.302.269.504.134.179.224.336.269.47h.168c.134 0 .224.034.269.101.067.045.145.112.235.202a.895.895 0 0 1 .269.638.987.987 0 0 1-.068.37.895.895 0 0 1-.201.302c-.09.09-.19.157-.303.202s-.235.067-.37.067h-.066c-.068.426-.202.784-.404 1.075a4.03 4.03 0 0 1-.739.807 3.583 3.583 0 0 1-1.21.806c-.425.18-.896.27-1.411.27H34l2.788 2.183a.72.72 0 0 1 .135.168c.044.045.078.09.1.135a.747.747 0 0 1 .101.235.745.745 0 0 1 .034.235c0 .112-.023.235-.067.37-.045.112-.112.213-.202.302a.908.908 0 0 1-.672.269z"/></g></svg>