<svg xmlns="http://www.w3.org/2000/svg" xmlns:xlink="http://www.w3.org/1999/xlink" width="200" height="144" fill="none" viewBox="0 0 200 144"><filter id="a" width="40.103" height="40.761" x="15.031" y="55.031" color-interpolation-filters="sRGB" filterUnits="userSpaceOnUse"><feFlood flood-opacity="0" result="BackgroundImageFix"/><feColorMatrix in="SourceAlpha" result="hardAlpha" type="matrix" values="0 0 0 0 0 0 0 0 0 0 0 0 0 0 0 0 0 0 127 0"/><feOffset dy=".658"/><feColorMatrix type="matrix" values="0 0 0 0 0.94902 0 0 0 0 0.784314 0 0 0 0 0.0666667 0 0 0 1 0"/><feBlend in2="BackgroundImageFix" mode="normal" result="effect1_dropShadow_69_12609"/><feBlend in="SourceGraphic" in2="effect1_dropShadow_69_12609" mode="normal" result="shape"/></filter><linearGradient id="b" x1="55.134" x2="14.384" y1="75.082" y2="74.435" gradientUnits="userSpaceOnUse"><stop offset="0" stop-color="#fce907"/><stop offset="1" stop-color="#e49b1c"/></linearGradient><linearGradient id="c" x1="52.546" x2="17.618" y1="75.081" y2="75.081" gradientUnits="userSpaceOnUse"><stop offset="0" stop-color="#ebae13"/><stop offset="1" stop-color="#f8c44c"/></linearGradient><linearGradient id="d" x1="45.387" x2="23.726" y1="75.052" y2="75.052" gradientUnits="userSpaceOnUse"><stop offset="0" stop-color="#da9729"/><stop offset="1" stop-color="#a06c15"/></linearGradient><linearGradient id="e"><stop offset="0" stop-color="#e7ebf9"/><stop offset="1" stop-color="#cad3f1"/></linearGradient><linearGradient xlink:href="#e" id="f" x1="132.261" x2="143.228" y1="62.621" y2="71.54" gradientUnits="userSpaceOnUse"/><linearGradient xlink:href="#e" id="g" x1="140.334" x2="140.334" y1="90.383" y2="93.431" gradientUnits="userSpaceOnUse"/><clipPath id="h"><path d="M88 96h48v48H88z"/></clipPath><mask id="i" width="48" height="48" x="88" y="96" maskUnits="userSpaceOnUse"><path fill="#fff" d="M88 96h48v48H88z"/></mask><circle cx="100" cy="72" r="72" fill="#fff"/><path fill="#d2ad8b" d="m139 28 .773-.634a1 1 0 0 0-1.65.153zm16 19.5-1.88-11.393-8.927 7.324zm-24.956-3.177-.625.78a1 1 0 0 0 1.502-.299zm8.183-15.689 10.291 12.542 1.546-1.268-10.291-12.542zm-.104-1.115-8.955 16.323 1.753.962 8.956-16.323zm-7.453 16.024L89.617 10.611l-1.252 1.56 41.054 32.933z"/><g filter="url(#a)"><circle cx="35.082" cy="75.082" r="20.051" fill="url(#b)"/></g><path stroke="url(#c)" stroke-width=".711" d="M31.806 59.169c.769.35 1.67.23 2.322-.306a1.501 1.501 0 0 1 1.908 0 2.212 2.212 0 0 0 2.322.306 1.501 1.501 0 0 1 1.843.494 2.212 2.212 0 0 0 2.164.896c.708-.118 1.4.282 1.652.954a2.212 2.212 0 0 0 1.858 1.426c.715.069 1.28.634 1.35 1.349.081.84.634 1.561 1.425 1.858.673.252 1.073.944.954 1.652a2.212 2.212 0 0 0 .897 2.164c.584.417.79 1.19.494 1.843-.35.77-.232 1.67.305 2.322a1.501 1.501 0 0 1 0 1.909 2.212 2.212 0 0 0-.305 2.321c.297.654.09 1.426-.494 1.844a2.212 2.212 0 0 0-.897 2.163c.119.708-.281 1.401-.954 1.653a2.212 2.212 0 0 0-1.425 1.858 1.501 1.501 0 0 1-1.35 1.35 2.212 2.212 0 0 0-1.858 1.425 1.501 1.501 0 0 1-1.652.954 2.212 2.212 0 0 0-2.164.896 1.501 1.501 0 0 1-1.843.494 2.212 2.212 0 0 0-2.322.306 1.501 1.501 0 0 1-1.908 0 2.212 2.212 0 0 0-2.322-.306 1.501 1.501 0 0 1-1.843-.494 2.212 2.212 0 0 0-2.164-.896 1.501 1.501 0 0 1-1.653-.954 2.212 2.212 0 0 0-1.858-1.426 1.501 1.501 0 0 1-1.349-1.35 2.212 2.212 0 0 0-1.426-1.857 1.501 1.501 0 0 1-.954-1.653 2.212 2.212 0 0 0-.896-2.163 1.501 1.501 0 0 1-.494-1.844c.35-.769.231-1.67-.305-2.322a1.501 1.501 0 0 1 0-1.908 2.212 2.212 0 0 0 .305-2.322 1.501 1.501 0 0 1 .494-1.843 2.212 2.212 0 0 0 .896-2.163c-.118-.709.282-1.401.954-1.653a2.212 2.212 0 0 0 1.426-1.858c.07-.715.635-1.28 1.35-1.35a2.212 2.212 0 0 0 1.857-1.425 1.501 1.501 0 0 1 1.653-.954 2.212 2.212 0 0 0 2.164-.896 1.501 1.501 0 0 1 1.843-.494z" opacity=".5"/><path fill="url(#d)" d="M34.168 85.141a10.647 10.647 0 0 1-7.19-5.024l-.033-.056-.03-.05-.013-.023a10.639 10.639 0 0 1-.83-8.867.839.839 0 0 1 .947-.547 10.754 10.754 0 0 1 2.94 1.015.3.3 0 0 0 .373-.078.302.302 0 0 0 .059-.123 8.494 8.494 0 0 1 3.471-5.203l.011-.007c.145-.105.295-.202.45-.291l.064-.038a5.118 5.118 0 0 1 7.496 5.548 5.119 5.119 0 0 1-.21 9.779 8.502 8.502 0 0 1-5.576.113.303.303 0 0 0-.357.141.302.302 0 0 0-.037.133 10.743 10.743 0 0 1-.589 3.034.84.84 0 0 1-.79.561.841.841 0 0 1-.156-.017zm.553-14.161-1.905 4.761a.997.997 0 0 0 .788 1.357h.018l4.945.679a1.747 1.747 0 1 0-.098-3.443l-1.474.288a.44.44 0 0 1-.429-.706l1.032-1.288a1.685 1.685 0 0 0-.154-2.264 1.683 1.683 0 0 0-1.146-.46 1.714 1.714 0 0 0-1.577 1.076zm-10.881.152a.85.85 0 1 1 1.557-.205.852.852 0 0 1-1.557.205zm2.835-1.637a.85.85 0 1 1 1.474-.85.85.85 0 0 1-1.474.85z"/><rect width="42" height="40.727" x="88" y="10" fill="#6d6d6d" rx="20.364"/><path fill="#f9f9f9" d="m101.675 37.864 10.823-15.85h3.827l-10.823 15.85zm1.517-7.246c-.8 0-1.517-.166-2.151-.498a3.864 3.864 0 0 1-1.516-1.517c-.363-.664-.544-1.464-.544-2.4 0-.936.181-1.728.544-2.377a3.864 3.864 0 0 1 1.516-1.517c.634-.347 1.351-.52 2.151-.52s1.517.173 2.151.52a3.71 3.71 0 0 1 1.495 1.517c.377.649.566 1.441.566 2.377 0 .936-.189 1.736-.566 2.4a3.71 3.71 0 0 1-1.495 1.517c-.634.332-1.351.498-2.151.498zm0-2.445c.257 0 .483-.136.68-.408.211-.286.317-.807.317-1.562s-.106-1.268-.317-1.54c-.197-.286-.423-.43-.68-.43-.241 0-.467.144-.679.43-.211.272-.317.785-.317 1.54s.106 1.276.317 1.562c.212.272.438.408.679.408zm11.616 9.917c-.8 0-1.517-.166-2.151-.498a3.856 3.856 0 0 1-1.517-1.517c-.363-.664-.544-1.464-.544-2.4 0-.936.181-1.728.544-2.377a3.856 3.856 0 0 1 1.517-1.517c.634-.348 1.351-.521 2.151-.521s1.517.173 2.151.52a3.709 3.709 0 0 1 1.494 1.518c.377.649.566 1.441.566 2.377 0 .936-.189 1.736-.566 2.4a3.709 3.709 0 0 1-1.494 1.517c-.634.332-1.351.498-2.151.498zm0-2.445c.256 0 .483-.136.679-.408.211-.287.317-.807.317-1.562s-.106-1.268-.317-1.54c-.196-.286-.423-.43-.679-.43-.242 0-.468.144-.68.43-.211.272-.317.785-.317 1.54s.106 1.275.317 1.562c.212.272.438.408.68.408z"/><path fill="#f7f9ff" d="M154.965 70.875H125.08v17.68h29.885z"/><path fill="#8591b0" fill-rule="evenodd" d="M139.71 79.41c1.204 0 2.179.975 2.179 2.179v5.746h-4.358v-5.746a2.18 2.18 0 0 1 2.179-2.18z" clip-rule="evenodd"/><path fill="#cfd7f3" d="M126.325 71.484h-2.491v17.07h2.491zM135.664 71.484h-2.491v17.07h2.491zM146.871 71.484h-2.491v17.07h2.491zM155.587 71.484h-2.49v17.07h2.49z"/><path fill="#9fb1de" fill-rule="evenodd" d="M120.721 72.094h38.602v-4.267h-38.602z" clip-rule="evenodd"/><path fill="url(#f)" fill-rule="evenodd" d="M118.854 69.655h42.96v-2.152l-21.48-10.65-21.48 10.65z" clip-rule="evenodd"/><path fill="#9fb1de" fill-rule="evenodd" d="M120.721 91.602h38.602v-4.267h-38.602z" clip-rule="evenodd"/><path fill="url(#g)" fill-rule="evenodd" d="M120.073 93.431h40.521a1.22 1.22 0 0 0 1.22-1.219v-.61a1.22 1.22 0 0 0-1.22-1.219h-40.521a1.22 1.22 0 0 0-1.219 1.22v.61c0 .673.546 1.219 1.219 1.219z" clip-rule="evenodd"/><path fill="#fff" d="M139.711 67.217c1.891 0 3.424-1.501 3.424-3.353s-1.533-3.353-3.424-3.353-3.424 1.501-3.424 3.353 1.533 3.353 3.424 3.353z"/><path fill="#c1c4e1" fill-rule="evenodd" d="M129.749 80.629c.86 0 1.556.697 1.556 1.556v3.321h-3.113v-3.32c0-.86.697-1.557 1.557-1.557zM150.295 80.629c.859 0 1.556.697 1.556 1.556v3.321h-3.113v-3.32c0-.86.697-1.557 1.557-1.557zM129.749 73.923c.86 0 1.556.697 1.556 1.556v3.32h-3.113v-3.32c0-.86.697-1.556 1.557-1.556zM150.295 73.923c.859 0 1.556.697 1.556 1.556v3.32h-3.113v-3.32c0-.86.697-1.556 1.557-1.556zM139.711 73.923c.859 0 1.556.697 1.556 1.556v2.102h-3.113v-2.102c0-.86.697-1.556 1.557-1.556z" clip-rule="evenodd"/><g fill="#b3c0e2"><path d="M126.948 71.484h-3.736v1.22h3.736zM147.493 71.484h-3.735v1.22h3.735zM136.286 71.484h-3.735v1.22h3.735zM156.21 71.484h-3.736v1.22h3.736zM126.948 86.726h-3.736v1.219h3.736zM136.286 86.726h-3.735v1.219h3.735zM147.493 86.726h-3.735v1.219h3.735zM156.21 86.726h-3.736v1.219h3.736z"/></g><path stroke="#b7c4e6" stroke-linejoin="round" stroke-width=".61" d="m140.022 59.292 19.301 8.535h-38.602z" clip-rule="evenodd"/><path fill="#98a9d4" d="M140.583 66.608a.348.348 0 0 1-.098-.015.615.615 0 0 1-.081-.028l-.098-.042-2.196-1.513a.361.361 0 0 1-.146-.141c-.022-.029-.038-.062-.049-.1s-.016-.075-.016-.112c0-.076.013-.142.04-.198a.433.433 0 0 1 .139-.156.48.48 0 0 1 .171-.099.67.67 0 0 1 .203-.028h1.106c.314 0 .534-.061.659-.184.124-.122.197-.212.219-.268h-2.228a.54.54 0 0 1-.179-.029.439.439 0 0 1-.244-.212.363.363 0 0 1-.033-.155.367.367 0 0 1 .131-.269c.043-.037.092-.068.146-.092s.114-.035.179-.035l2.179.014c-.021-.028-.084-.101-.187-.219s-.317-.177-.642-.177l-1.35-.028-.138-.021a.338.338 0 0 1-.22-.12.37.37 0 0 1-.089-.212l-.009-.113a.413.413 0 0 1 .131-.198.357.357 0 0 1 .146-.1.543.543 0 0 1 .179-.028h3.204c.065 0 .125.01.179.029a.44.44 0 0 1 .244.212.378.378 0 0 1-.098.438.439.439 0 0 1-.146.085.54.54 0 0 1-.179.028h-.26c.032.057.078.125.138.205s.1.148.122.205h.081c.065 0 .112.012.139.035l.105.092c.044.038.076.08.098.127s.032.095.032.142a.363.363 0 0 1-.13.283.439.439 0 0 1-.146.084.54.54 0 0 1-.179.029h-.032a.997.997 0 0 1-.188.445 1.919 1.919 0 0 1-.365.346c-.174.151-.366.264-.578.34a2.043 2.043 0 0 1-.691.113h-.049l1.35.919a.657.657 0 0 1 .073.07c.016.02.03.038.041.057a.306.306 0 0 1 .065.198.38.38 0 0 1-.033.148.355.355 0 0 1-.097.134.445.445 0 0 1-.147.085.537.537 0 0 1-.178.028z"/><path fill="#6c7898" fill-rule="evenodd" d="M118.853 70.51a.853.853 0 0 1-.853-.854v-2.152c0-.325.184-.621.474-.765l21.48-10.65a.853.853 0 0 1 .758 0l21.48 10.65c.291.144.475.44.475.765v2.152a.854.854 0 0 1-.854.853h-1.636v1.585a.854.854 0 0 1-.854.854h-2.295a.857.857 0 0 1-.588.578v12.378a.857.857 0 0 1 .588.578h2.295c.471 0 .854.382.854.853v2.195h.417c1.145 0 2.073.928 2.073 2.073v.61a2.073 2.073 0 0 1-2.073 2.072h-40.521A2.073 2.073 0 0 1 118 92.212v-.61c0-1.075.819-1.96 1.868-2.062v-2.205c0-.471.382-.853.854-.853h1.671c.083-.28.306-.5.588-.578V73.526a.855.855 0 0 1-.588-.578h-1.671a.854.854 0 0 1-.854-.854V70.51zm0-.854v-2.152l21.48-10.65 21.48 10.65v2.152h-2.49v2.438h-3.114v.61h-.622v14.022h.622v.61h3.114v3.047h1.271a1.22 1.22 0 0 1 1.219 1.22v.61a1.22 1.22 0 0 1-1.219 1.219h-40.521a1.22 1.22 0 0 1-1.22-1.22v-.61c0-.673.546-1.219 1.22-1.219h.649v-3.048h2.489v-.61h.623V72.705h-.623v-.61h-2.489v-2.438z" clip-rule="evenodd"/><g clip-path="url(#h)"><g mask="url(#i)"><path fill="#fff" stroke="#191919" stroke-width="2.4" d="M95.393 104.362h33.213c.503 0 .935.356 1.031.85l4.664 24a1.05 1.05 0 0 1-1.031 1.25H90.73a1.05 1.05 0 0 1-1.032-1.25l4.664-24a1.05 1.05 0 0 1 1.031-.85z"/><path fill="#fdd335" d="M100.43 111.116a2.249 2.249 0 0 1 2.23-1.954h18.68c1.128 0 2.082.835 2.23 1.954l1.592 12a2.25 2.25 0 0 1-2.23 2.546h-21.864a2.25 2.25 0 0 1-2.23-2.546z"/><g fill="#191919"><path d="M108.372 119.903v1.119h-4.981v-.885l2.684-2.685c.302-.305.505-.57.608-.794.11-.23.164-.457.164-.681 0-.333-.106-.587-.318-.763-.213-.177-.525-.265-.937-.265-.688 0-1.216.248-1.583.743l-.878-.712a2.6 2.6 0 0 1 1.062-.865c.45-.21.952-.315 1.506-.315.733 0 1.319.183 1.756.549.438.366.657.865.657 1.495 0 .387-.077.75-.232 1.089-.154.339-.45.726-.888 1.16l-1.805 1.81zM114.979 119.405h-1.197v1.617h-1.216v-1.617h-3.707v-.916l3.33-4.588h1.342l-3.137 4.385h2.21v-1.435h1.178v1.435h1.197zM118.504 119.33l-.653.65v1.043h-.877v-5.486h.877v3.312l1.817-1.775h1.053l-1.565 1.657 1.712 2.292h-1.066z"/><path fill-rule="evenodd" d="M108.373 119.765c.073 0 .132.062.132.139v1.119a.135.135 0 0 1-.132.139h-4.981c-.072 0-.131-.062-.131-.139v-.885a.14.14 0 0 1 .041-.101l2.683-2.685c.298-.301.488-.552.58-.754l.001-.001c.102-.214.15-.42.15-.62 0-.297-.093-.508-.268-.654-.18-.149-.458-.234-.855-.234-.655 0-1.141.233-1.479.689a.127.127 0 0 1-.184.024l-.879-.712a.144.144 0 0 1-.025-.193 2.726 2.726 0 0 1 1.115-.908 3.639 3.639 0 0 1 1.558-.327c.754 0 1.372.188 1.839.579.472.395.706.934.706 1.604 0 .407-.081.79-.244 1.149-.165.361-.474.761-.917 1.2l-1.566 1.571zm-3.186.138 1.805-1.81c.438-.434.734-.821.888-1.16.155-.339.232-.702.232-1.089 0-.63-.219-1.129-.656-1.495-.438-.366-1.024-.549-1.757-.549-.554 0-1.056.105-1.506.315a2.62 2.62 0 0 0-.98.756l-.037.048-.045.061.879.712c.366-.495.894-.743 1.583-.743.411 0 .724.088.936.265.212.176.318.43.318.763 0 .224-.054.451-.164.681-.103.224-.305.489-.608.794l-2.683 2.685v.885h4.981v-1.119zm9.924-.498c0 .077-.059.139-.131.139h-1.066v1.479c0 .077-.059.139-.131.139h-1.217c-.072 0-.131-.062-.131-.139v-1.479h-3.575a.135.135 0 0 1-.132-.139v-.915c0-.031.009-.06.027-.084l3.33-4.588a.13.13 0 0 1 .105-.055h1.342c.049 0 .095.03.117.077a.144.144 0 0 1-.012.146l-2.979 4.162h1.815v-1.296c0-.076.059-.139.132-.139h1.178c.072 0 .131.063.131.139v1.296h1.066c.072 0 .131.062.131.138zm-1.329-1.119v-1.434h-1.178v1.434h-2.21l3.137-4.384h-1.342l-3.33 4.587v.916h3.707v1.617h1.216v-1.617h1.197v-1.119zm6.019 2.736-1.298-1.693-.652.651v1.042h-.877v-5.486h.877v3.313l1.817-1.775h1.053l-1.565 1.656 1.712 2.292zm-.469-2.28 1.482-1.569c.038-.04.049-.1.029-.152a.134.134 0 0 0-.122-.085h-1.052a.126.126 0 0 0-.09.037l-1.596 1.559v-2.995a.135.135 0 0 0-.132-.139h-.876a.135.135 0 0 0-.132.139v5.486c0 .077.059.139.132.139h.876a.135.135 0 0 0 .132-.139v-.983l.508-.506 1.209 1.576a.127.127 0 0 0 .102.052h1.066a.132.132 0 0 0 .119-.079.145.145 0 0 0-.015-.146z" clip-rule="evenodd"/></g></g></g><path fill="#dbdbdb" d="m86.5 43.5-11.48 1.249 6.822 9.317zM59.09 64.807 79.83 49.623l-1.181-1.613-20.739 15.183zM112 74.5l-11.788-6.806v13.612zm-53.5 1.179h42.891V73.32H58.5zM86.5 104l-11.48-1.249 6.822-9.317zM59.09 82.693 79.83 97.877l-1.181 1.613-20.739-15.183z"/></svg>