<svg xmlns="http://www.w3.org/2000/svg" width="36" height="36" fill="none" viewBox="0 0 36 36"><path fill="#fff" d="m35.648 9.906-.351-1.476c-.188-1.032-.563-1.828-1.125-2.39-.656-.798-1.336-1.243-2.04-1.337-.702-.14-1.218-.21-1.546-.21a108.178 108.178 0 0 0-8.227-.423L18 4l-4.43.07c-2.906.047-5.625.14-8.156.282-.328.046-.844.14-1.547.28-.703.141-1.383.587-2.039 1.337-.562.562-.96 1.336-1.195 2.32L.352 9.766.14 11.734A61.582 61.582 0 0 0 0 16.094v2.883C0 20.57.047 22 .14 23.266l.212 1.898.28 1.547c.235.984.634 1.758 1.196 2.32.656.75 1.36 1.196 2.11 1.336.796.094 1.406.211 1.828.352 1.453.093 3.843.164 7.171.21L18 31h4.36c2.953-.047 5.695-.188 8.226-.422.328-.047.844-.14 1.547-.281.703-.14 1.383-.563 2.039-1.266.562-.562.937-1.336 1.125-2.32l.351-1.547.141-1.898c.14-1.313.211-2.743.211-4.29v-2.882c0-1.594-.07-3.024-.21-4.29l-.142-1.898zM13.5 24.25v-13.5l11.25 6.75z"/></svg>