<svg xmlns="http://www.w3.org/2000/svg" width="65" height="65" fill="none" viewBox="0 0 65 65"><path fill="#fff" d="M.5.5h64v64H.5z"/><g fill="#fdd335"><ellipse cx="10.317" cy="34.275" rx="2.397" ry="2.385"/><ellipse cx="27.518" cy="26.97" rx="3.804" ry="3.826"/><ellipse cx="46.002" cy="29.156" rx="2.717" ry="2.733"/><ellipse cx="53.605" cy="18.225" rx="2.717" ry="2.733"/></g><path fill="#191919" fill-rule="evenodd" d="M53.727 14.712c-.634.15-1.403.596-1.912 1.107-1.255 1.262-1.501 3.334-.58 4.873l.327.546-1.648 2.312-1.647 2.313-.351-.052c-.829-.121-1.884-.035-2.498.205-.741.29-1.733 1.237-2.078 1.985-.217.469-.244.49-.558.43l-4.97-.959-4.64-.897-.175-.568A4.933 4.933 0 0 0 31.6 23.76c-.77-.725-1.478-1.088-2.55-1.308-1.044-.214-2.03-.08-3.063.416-1.706.82-2.745 2.341-2.903 4.253l-.063.762-4.807 2.135-4.807 2.135-.46-.382c-1.234-1.026-2.651-1.264-4.156-.7-.449.169-.769.395-1.274.903-.895.9-1.157 1.542-1.163 2.844-.003.873.02.98.382 1.716.44.893 1.005 1.46 1.903 1.903.517.255.683.284 1.65.284.95 0 1.14-.032 1.658-.276a4.28 4.28 0 0 0 1.942-1.912c.273-.557.333-.814.369-1.573.026-.538.09-.926.159-.955.063-.026 2.163-.957 4.666-2.069l4.551-2.02.153.237c.084.13.377.478.651.773 1.96 2.11 5.06 2.208 7.164.228.62-.583 1.39-1.795 1.39-2.188 0-.087.035-.18.077-.204.042-.025 2.283.38 4.979.9 3.4.658 4.925.993 4.977 1.095.04.08.193.405.337.72.354.77 1.087 1.497 1.903 1.886.605.29.756.318 1.687.318.896 0 1.095-.034 1.607-.276a4.107 4.107 0 0 0 2.323-4.245c-.073-.54-.43-1.422-.754-1.86-.146-.197-.06-.342 1.489-2.52 1.16-1.632 1.693-2.3 1.813-2.278.093.018.56.056 1.039.085.707.042.98.012 1.465-.159 2.05-.723 3.156-2.874 2.536-4.928-.209-.692-.698-1.478-1.18-1.895-.958-.83-2.354-1.179-3.563-.892zm-27.74 1.63c-4.98 1.05-8.514 4.968-9.057 10.04-.064.602-.087 1.295-.05 1.539.09.608.466.976.997.976.854 0 1.055-.336 1.135-1.903.071-1.392.267-2.183.855-3.445 1.535-3.3 4.646-5.284 8.267-5.276 2.45.006 4.477.792 6.228 2.412 1.437 1.331 2.286 2.86 2.826 5.093.119.495.594.959.982.959.333 0 .824-.26.955-.509.172-.322.122-.954-.15-1.9a11.368 11.368 0 0 0-7.977-7.832c-1.403-.373-3.648-.442-5.011-.155zm29.726.705c1.065.662 1.068 2.455.007 3.152-1.706 1.119-3.732-.847-2.667-2.589.543-.889 1.73-1.14 2.66-.563zM29.25 24.685c.765.288 1.528 1.122 1.76 1.923.42 1.452-.283 2.96-1.678 3.602-.48.22-.661.249-1.337.208-.904-.054-1.409-.276-1.978-.87a3.054 3.054 0 0 1-.597-3.302c.281-.647 1.044-1.38 1.668-1.602.63-.223 1.502-.207 2.162.041zm18.487 3.284c.185.006.748.607.915.975.364.807.197 1.61-.456 2.187-.97.856-2.382.606-2.923-.519-.705-1.466.493-3.07 2.037-2.726.197.045.389.082.427.083zm-10.552 2.393c-.16.084-.46.521-.8 1.16-.662 1.247-1.168 1.92-2.068 2.756-1.12 1.038-2.563 1.802-4.152 2.197-.492.122-1.113.172-2.082.169-1.697-.007-2.571-.214-4.04-.957-1.249-.633-2.127-1.337-3.05-2.445-.792-.95-1.117-1.103-1.7-.799-.384.2-.653.755-.556 1.146.037.146.328.598.648 1.002 1.437 1.818 3.588 3.216 5.916 3.846.893.241 1.176.268 2.833.27 1.685.003 1.928-.02 2.861-.275 1.201-.327 2.807-1.09 3.723-1.768l.653-.483.208.21.208.209-.369.41c-.503.56-.662 1.118-.497 1.744.114.433.412.77 3.01 3.406 5.648 5.73 7.9 7.945 8.225 8.089.39.172.926.187 1.326.037.342-.128 3.045-2.793 3.273-3.227.246-.469.202-1.211-.103-1.727-.393-.666-10.465-10.733-10.932-10.928-.753-.314-1.519-.157-2.153.44l-.283.266-.214-.215-.215-.215.428-.583c.495-.674 1.155-1.888 1.333-2.455.137-.436.03-.846-.303-1.148-.25-.228-.82-.295-1.128-.132zm-25.973 2.754c1.035.531 1.302 1.971.535 2.888-1.076 1.286-3.142.662-3.279-.99-.025-.304-.017-.668.018-.807.082-.327.531-.863.928-1.107.426-.261 1.273-.253 1.798.016zM47.77 47.204l-.972.978-4.882-4.91-4.882-4.91.97-.98.968-.978 4.885 4.912 4.884 4.911z" clip-rule="evenodd"/></svg>