<svg xmlns="http://www.w3.org/2000/svg" width="64" height="65" fill="none" viewBox="0 0 64 65"><path fill="#fff" d="M0 .5h64v64H0z"/><g fill="#000"><path fill-rule="evenodd" stroke="#000" stroke-width=".348" d="M38.976 4.98H17.394c-2.533 0-4.594 2.066-4.594 4.606V55.76c0 2.54 2.06 4.606 4.594 4.606h21.582c2.533 0 4.594-2.066 4.594-4.606V9.586c0-2.54-2.061-4.606-4.594-4.606zm0 53.811A3.03 3.03 0 0 0 42 55.76V9.586a3.03 3.03 0 0 0-3.025-3.032H17.394a3.03 3.03 0 0 0-3.024 3.032V55.76a3.03 3.03 0 0 0 3.024 3.031z" clip-rule="evenodd"/><path d="M28.945 7.978h-4.688a.787.787 0 0 0 0 1.574h4.688a.787.787 0 0 0 0-1.574zM32.026 55.751h-7.677a.774.774 0 0 0-.777.77c0 .424.348.768.777.768h7.677a.774.774 0 0 0 .777-.769.773.773 0 0 0-.777-.769zM32.116 8.762c0 .805-1.207.805-1.207 0 0-.804 1.207-.804 1.207 0z"/></g><path fill="#fdd335" fill-rule="evenodd" d="M35.524 26.1H20.299c-.631 0-1.236.275-1.682.764a2.743 2.743 0 0 0-.697 1.846v8.35c0 .692.25 1.356.697 1.845.446.49 1.051.765 1.682.765h15.225c.63 0 1.236-.275 1.682-.765.446-.49.697-1.153.697-1.845v-8.35c0-.692-.25-1.356-.697-1.845a2.278 2.278 0 0 0-1.682-.765z" clip-rule="evenodd"/><path fill="#191919" d="M18.436 28.919h19.117v3.1H18.436z"/><path fill="#000" d="M34.08 37.214c.696-.707 1.338-1.367 1.987-2.02.959-.963 1.918-1.926 2.885-2.88.397-.39.874-.388 1.181-.023.285.34.246.745-.13 1.127-.827.837-1.661 1.667-2.493 2.499-.911.91-1.826 1.817-2.734 2.73-.505.509-.883.512-1.394-.001a694.67 694.67 0 0 0-2.048-2.05c-.41-.409-.467-.9-.136-1.222.344-.334.8-.278 1.22.15l1.662 1.69z"/></svg>