<svg xmlns="http://www.w3.org/2000/svg" xmlns:xlink="http://www.w3.org/1999/xlink" width="200" height="144" fill="none" viewBox="0 0 200 144"><filter id="a" width="30.713" height="27.028" x="80.789" y="23.25" color-interpolation-filters="sRGB" filterUnits="userSpaceOnUse"><feFlood flood-opacity="0" result="BackgroundImageFix"/><feColorMatrix in="SourceAlpha" result="hardAlpha" type="matrix" values="0 0 0 0 0 0 0 0 0 0 0 0 0 0 0 0 0 0 127 0"/><feOffset dy=".658"/><feColorMatrix type="matrix" values="0 0 0 0 0.94902 0 0 0 0 0.784314 0 0 0 0 0.0666667 0 0 0 1 0"/><feBlend in2="BackgroundImageFix" mode="normal" result="effect1_dropShadow_83_16677"/><feBlend in="SourceGraphic" in2="effect1_dropShadow_83_16677" mode="normal" result="shape"/></filter><filter id="b" width="45.571" height="46.23" x="30.308" y="9.308" color-interpolation-filters="sRGB" filterUnits="userSpaceOnUse"><feFlood flood-opacity="0" result="BackgroundImageFix"/><feColorMatrix in="SourceAlpha" result="hardAlpha" type="matrix" values="0 0 0 0 0 0 0 0 0 0 0 0 0 0 0 0 0 0 127 0"/><feOffset dy=".658"/><feColorMatrix type="matrix" values="0 0 0 0 0.94902 0 0 0 0 0.784314 0 0 0 0 0.0666667 0 0 0 1 0"/><feBlend in2="BackgroundImageFix" mode="normal" result="effect1_dropShadow_83_16677"/><feBlend in="SourceGraphic" in2="effect1_dropShadow_83_16677" mode="normal" result="shape"/></filter><filter id="c" width="20.67" height="32.005" x="47.319" y="61.722" color-interpolation-filters="sRGB" filterUnits="userSpaceOnUse"><feFlood flood-opacity="0" result="BackgroundImageFix"/><feColorMatrix in="SourceAlpha" result="hardAlpha" type="matrix" values="0 0 0 0 0 0 0 0 0 0 0 0 0 0 0 0 0 0 127 0"/><feOffset dy=".658"/><feColorMatrix type="matrix" values="0 0 0 0 0.94902 0 0 0 0 0.784314 0 0 0 0 0.0666667 0 0 0 1 0"/><feBlend in2="BackgroundImageFix" mode="normal" result="effect1_dropShadow_83_16677"/><feBlend in="SourceGraphic" in2="effect1_dropShadow_83_16677" mode="normal" result="shape"/></filter><linearGradient id="d"><stop offset="0" stop-color="#fce907"/><stop offset="1" stop-color="#e49b1c"/></linearGradient><linearGradient xlink:href="#d" id="e" x1="112.551" x2="79.218" y1="36.435" y2="35.702" gradientUnits="userSpaceOnUse"/><linearGradient id="f"><stop offset="0" stop-color="#ebae13"/><stop offset="1" stop-color="#f8c44c"/></linearGradient><linearGradient xlink:href="#f" id="g" x1="108.439" x2="83.852" y1="43.717" y2="29.152" gradientUnits="userSpaceOnUse"/><linearGradient id="h"><stop offset="0" stop-color="#da9729"/><stop offset="1" stop-color="#a06c15"/></linearGradient><linearGradient xlink:href="#h" id="i" x1="103.408" x2="88.16" y1="40.716" y2="31.683" gradientUnits="userSpaceOnUse"/><linearGradient xlink:href="#d" id="j" x1="75.879" x2="29.573" y1="32.093" y2="31.358" gradientUnits="userSpaceOnUse"/><linearGradient xlink:href="#f" id="k" x1="72.939" x2="33.248" y1="32.093" y2="32.093" gradientUnits="userSpaceOnUse"/><linearGradient xlink:href="#h" id="l" x1="64.803" x2="40.188" y1="32.058" y2="32.058" gradientUnits="userSpaceOnUse"/><linearGradient xlink:href="#d" id="m" x1="65.401" x2="49.654" y1="77.395" y2="77.282" gradientUnits="userSpaceOnUse"/><linearGradient xlink:href="#f" id="n" x1="63.684" x2="51.624" y1="74.366" y2="80.422" gradientUnits="userSpaceOnUse"/><linearGradient xlink:href="#h" id="o" x1="61.2" x2="53.722" y1="75.584" y2="79.34" gradientUnits="userSpaceOnUse"/><clipPath id="p"><path d="M85 52h87v87H85z"/></clipPath><circle cx="100" cy="72" r="72" fill="#fff"/><g clip-path="url(#p)"><path fill="#fffae7" d="m152.491 71.357-59.486.044a4 4 0 0 0-3.997 4.002l.022 29.494a4 4 0 0 0 4.002 3.996l59.487-.044a4 4 0 0 0 3.996-4.002l-.022-29.494a4 4 0 0 0-4.002-3.996z"/><path fill="#454545" fill-rule="evenodd" d="m93.004 69.405 59.486-.044a5.999 5.999 0 0 1 6.003 5.994l.022 29.493a5.999 5.999 0 0 1-5.994 6.003l-59.487.044a5.998 5.998 0 0 1-6.003-5.994l-.022-29.493a5.999 5.999 0 0 1 5.994-6.003zm.001 2 59.486-.045a3.998 3.998 0 0 1 4.002 3.996l.022 29.494a4 4 0 0 1-3.996 4.002l-59.486.044a4 4 0 0 1-4.002-3.996l-.022-29.494a3.999 3.999 0 0 1 3.996-4.002z" clip-rule="evenodd"/><path fill="#d7d8b2" fill-rule="evenodd" d="M147.244 77.612c.001 1.64 1.345 2.967 3.002 2.966l.013 17.809c-1.657 0-2.998 1.33-2.997 2.97l-23.994.018c6.626-.005 11.993-5.325 11.988-11.881-.005-6.557-5.38-11.869-12.006-11.864-6.625.005-11.993 5.324-11.988 11.881s5.38 11.869 12.006 11.864l-24.994.018c-.001-1.639-1.345-2.967-3.001-2.966L95.26 80.62c1.656-.001 2.998-1.331 2.997-2.97z" clip-rule="evenodd"/><path fill="#fffae7" d="m164.242 84.906-59.486.044a3.998 3.998 0 0 0-3.996 4.002l.022 29.493a3.998 3.998 0 0 0 4.002 3.996l59.486-.044a3.998 3.998 0 0 0 3.996-4.002l-.022-29.493a3.998 3.998 0 0 0-4.002-3.996z"/><path fill="#454545" fill-rule="evenodd" d="m104.749 82.959 59.486-.044a6 6 0 0 1 6.004 5.994l.021 29.493a5.998 5.998 0 0 1-5.994 6.003l-59.486.044a5.998 5.998 0 0 1-6.003-5.994l-.022-29.493a5.999 5.999 0 0 1 5.994-6.003zm.002 2 59.486-.045a3.999 3.999 0 0 1 4.002 3.997l.022 29.493a4 4 0 0 1-3.996 4.002l-59.487.044a4 4 0 0 1-4.002-3.996l-.022-29.494a4 4 0 0 1 3.997-4.001z" clip-rule="evenodd"/><path fill="#d7d8b2" fill-rule="evenodd" d="M158.992 91.173c.001 1.64 1.345 2.967 3.001 2.966l.013 17.808c-1.656.001-2.998 1.331-2.997 2.971l-23.994.017c6.626-.005 11.993-5.324 11.989-11.881-.005-6.557-5.38-11.868-12.006-11.863s-11.993 5.324-11.988 11.881c.004 6.557 5.38 11.868 12.005 11.863l-24.993.019c-.002-1.639-1.345-2.967-3.002-2.966l-.013-17.808c1.657-.002 2.998-1.332 2.997-2.97z" clip-rule="evenodd"/><ellipse cx="122.5" cy="59.5" fill="#f6d40d" opacity=".5" rx="3.5" ry="7.5" transform="rotate(68.294 122.5 59.5)"/></g><ellipse cx="78.263" cy="114.026" fill="#f6d40d" opacity=".5" rx="3.5" ry="7.5" transform="rotate(68.294 78.263 114.026)"/><g filter="url(#a)"><ellipse cx="96.145" cy="36.435" fill="url(#e)" rx="16.406" ry="11.849" transform="rotate(30.641 96.145 36.435)"/></g><path stroke="url(#g)" stroke-width=".711" d="m103.11 29.82.231.051c.475.105.85.47.968.942.15.598.567 1.093 1.131 1.341l.417.184a.98.98 0 0 1 .583.952 1.693 1.693 0 0 0 .727 1.487l.466.322a.722.722 0 0 1 .254.876 1.433 1.433 0 0 0 .293 1.56l.367.377a.568.568 0 0 1 .004.788 1.277 1.277 0 0 0-.158 1.562l.179.286a.524.524 0 0 1-.205.743c-.54.277-.798.906-.61 1.482l.014.044a.576.576 0 0 1-.442.746l-.045.009a1.234 1.234 0 0 0-1.006 1.247.524.524 0 0 1-.554.537l-.337-.02a1.28 1.28 0 0 0-1.294.89.567.567 0 0 1-.693.374l-.507-.14a1.433 1.433 0 0 0-1.508.492.723.723 0 0 1-.891.199l-.506-.254a1.691 1.691 0 0 0-1.653.077.98.98 0 0 1-1.115-.055l-.362-.277a1.995 1.995 0 0 0-1.72-.347 1.283 1.283 0 0 1-1.291-.397l-.155-.178a2.237 2.237 0 0 0-1.688-.764c-.56 0-1.074-.304-1.342-.795a2.237 2.237 0 0 0-1.481-1.113l-.23-.05a1.284 1.284 0 0 1-.97-.943 1.994 1.994 0 0 0-1.13-1.34l-.417-.185a.98.98 0 0 1-.583-.952 1.69 1.69 0 0 0-.727-1.486l-.466-.322a.722.722 0 0 1-.254-.877 1.433 1.433 0 0 0-.292-1.559l-.368-.377a.568.568 0 0 1-.004-.789 1.279 1.279 0 0 0 .158-1.561l-.179-.286a.524.524 0 0 1 .205-.744c.54-.277.798-.905.61-1.482l-.014-.043a.577.577 0 0 1 .442-.747l.045-.008a1.234 1.234 0 0 0 1.006-1.247.524.524 0 0 1 .554-.537l.337.02a1.279 1.279 0 0 0 1.294-.89.568.568 0 0 1 .693-.375l.507.141c.557.154 1.15-.04 1.508-.493a.722.722 0 0 1 .891-.198l.506.254a1.69 1.69 0 0 0 1.653-.077.98.98 0 0 1 1.116.054l.361.278a1.994 1.994 0 0 0 1.72.347c.47-.123.97.03 1.291.397l.156.177c.425.487 1.04.766 1.687.765.559-.001 1.074.304 1.342.795.31.567.85.973 1.481 1.112z" opacity=".5"/><path fill="url(#i)" d="M92.472 41.167a10.736 10.736 0 0 1-2.389-2.608c-.611-.957-1.007-1.96-1.16-2.944l-.006-.042-.005-.038-.003-.017c-.129-.91-.046-1.781.244-2.564a4.607 4.607 0 0 1 1.446-1.998c.126-.103.258-.2.397-.292a.574.574 0 0 1 .397-.073.917.917 0 0 1 .434.19 11.045 11.045 0 0 1 1.764 1.742.32.32 0 0 0 .185.114c.035.007.07.008.1.002a.163.163 0 0 0 .079-.039c.063-.056.128-.112.193-.166.952-.774 2.305-1.14 3.818-1.032l.01.001c.133.007.268.02.403.04l.057.008c1.024.157 2.049.65 2.853 1.371.805.723 1.325 1.616 1.447 2.488.117.825-.131 1.569-.694 2.087.531.516.925 1.11 1.139 1.72.213.61.239 1.212.073 1.742-.165.53-.515.968-1.012 1.267-.497.299-1.123.448-1.81.431a4.622 4.622 0 0 1-.522-.044 5.184 5.184 0 0 1-.961-.232 9.5 9.5 0 0 1-3.96-2.268.338.338 0 0 0-.197-.09.215.215 0 0 0-.096.014.143.143 0 0 0-.066.052 4.747 4.747 0 0 1-.931 1.005c-.127.102-.26.2-.397.292a.55.55 0 0 1-.338.079.878.878 0 0 1-.492-.198zm4.654-6.969-2.775 1.627a.497.497 0 0 0-.115.093.475.475 0 0 0-.086.455.916.916 0 0 0 .347.47l.013.008 3.276 2.407c.127.092.265.17.409.23.171.072.348.116.521.131.173.016.337.001.485-.042a.906.906 0 0 0 .374-.21.75.75 0 0 0 .206-.346.901.901 0 0 0 .008-.428 1.304 1.304 0 0 0-.193-.446 1.759 1.759 0 0 0-.363-.396 1.966 1.966 0 0 0-.479-.284l-1.124-.469a.489.489 0 0 1-.175-.124.349.349 0 0 1-.087-.171.206.206 0 0 1 .032-.157.225.225 0 0 1 .14-.085l1.115-.225c.111-.023.213-.06.302-.112a.757.757 0 0 0 .28-.281.769.769 0 0 0 .097-.388 1.068 1.068 0 0 0-.105-.434 1.526 1.526 0 0 0-.289-.413 1.809 1.809 0 0 0-1.14-.545c-.255-.02-.49.027-.674.135zm-7.705-4.46a.419.419 0 0 1 .019-.204.368.368 0 0 1 .115-.16.466.466 0 0 1 .193-.09.677.677 0 0 1 .241-.006c.085.011.172.037.254.076s.16.09.227.15.123.126.165.198.068.146.078.218a.383.383 0 0 1-.134.363.562.562 0 0 1-.435.098.902.902 0 0 1-.332-.119.905.905 0 0 1-.266-.235.634.634 0 0 1-.125-.289zm2.488.35a.384.384 0 0 1 .135-.363.563.563 0 0 1 .434-.097c.172.024.344.105.48.226s.224.27.245.417a.383.383 0 0 1-.135.363.562.562 0 0 1-.435.097.907.907 0 0 1-.332-.119.91.91 0 0 1-.266-.235.636.636 0 0 1-.126-.289z"/><g filter="url(#b)"><circle cx="53.093" cy="32.093" r="22.786" fill="url(#j)"/></g><path stroke="url(#k)" stroke-width=".711" d="M49.39 13.966c.857.39 1.861.258 2.588-.34a1.755 1.755 0 0 1 2.23 0c.727.598 1.731.73 2.588.34a1.755 1.755 0 0 1 2.154.577 2.465 2.465 0 0 0 2.411.999 1.754 1.754 0 0 1 1.932 1.115 2.465 2.465 0 0 0 2.07 1.589 1.755 1.755 0 0 1 1.577 1.577c.09.937.707 1.74 1.589 2.07a1.754 1.754 0 0 1 1.115 1.932 2.465 2.465 0 0 0 .999 2.41c.682.489.924 1.391.577 2.155-.39.857-.258 1.86.34 2.588a1.755 1.755 0 0 1 0 2.23 2.465 2.465 0 0 0-.34 2.587 1.754 1.754 0 0 1-.577 2.154 2.465 2.465 0 0 0-1 2.412 1.754 1.754 0 0 1-1.114 1.931 2.465 2.465 0 0 0-1.589 2.07 1.755 1.755 0 0 1-1.577 1.578c-.937.09-1.74.707-2.07 1.588a1.754 1.754 0 0 1-1.932 1.115 2.465 2.465 0 0 0-2.411 1 1.755 1.755 0 0 1-2.154.576 2.465 2.465 0 0 0-2.588.341 1.755 1.755 0 0 1-2.23 0 2.465 2.465 0 0 0-2.587-.34 1.754 1.754 0 0 1-2.155-.578 2.465 2.465 0 0 0-2.41-.999 1.754 1.754 0 0 1-1.932-1.115 2.465 2.465 0 0 0-2.07-1.588 1.755 1.755 0 0 1-1.578-1.577 2.465 2.465 0 0 0-1.588-2.071 1.754 1.754 0 0 1-1.115-1.931 2.465 2.465 0 0 0-1-2.412 1.754 1.754 0 0 1-.576-2.154c.39-.857.257-1.86-.341-2.587a1.755 1.755 0 0 1 0-2.23c.598-.727.73-1.731.34-2.588a1.755 1.755 0 0 1 .578-2.154 2.465 2.465 0 0 0 .999-2.411 1.754 1.754 0 0 1 1.115-1.932 2.465 2.465 0 0 0 1.588-2.07 1.755 1.755 0 0 1 1.577-1.577 2.465 2.465 0 0 0 2.07-1.589 1.754 1.754 0 0 1 1.932-1.115 2.465 2.465 0 0 0 2.411-.999 1.754 1.754 0 0 1 2.155-.577z" opacity=".5"/><path fill="url(#l)" d="M52.054 43.524a12.1 12.1 0 0 1-8.17-5.71l-.038-.063a1.167 1.167 0 0 1-.033-.058l-.015-.025a12.087 12.087 0 0 1-1.21-9.205c.078-.294.167-.584.267-.872a.953.953 0 0 1 1.076-.62 12.225 12.225 0 0 1 3.341 1.154.34.34 0 0 0 .49-.23 9.653 9.653 0 0 1 3.945-5.913l.013-.008c.164-.119.334-.23.51-.33l.074-.043a5.816 5.816 0 0 1 8.517 6.305 5.815 5.815 0 0 1-.239 11.112 9.66 9.66 0 0 1-6.336.128.343.343 0 0 0-.447.312 12.205 12.205 0 0 1-.67 3.448.952.952 0 0 1-1.075.618zm.628-16.093-2.164 5.411a1.132 1.132 0 0 0 .896 1.542h.02l5.619.771a1.982 1.982 0 0 0 1.922-3.063 1.984 1.984 0 0 0-2.033-.849l-1.675.328a.501.501 0 0 1-.487-.803l1.172-1.464a1.914 1.914 0 0 0-.175-2.572 1.914 1.914 0 0 0-1.302-.524 1.947 1.947 0 0 0-1.793 1.224zm-12.364.173a.965.965 0 1 1 1.673-.966.967.967 0 0 1-1.673.966zm3.221-1.86a.967.967 0 1 1 1.677-.965.967.967 0 0 1-1.676.965z"/><g filter="url(#c)"><ellipse cx="57.654" cy="77.395" fill="url(#m)" rx="7.747" ry="17.098" transform="rotate(-26.667 57.654 77.395)"/></g><path stroke="url(#n)" stroke-width=".711" d="m51.559 64.922.084.058a.806.806 0 0 0 1.222-.412.095.095 0 0 1 .159-.037l.502.51a.842.842 0 0 0 1.214-.016.13.13 0 0 1 .2.012l.65.884c.263.358.717.52 1.146.407a.373.373 0 0 1 .42.18l.554.992c.23.412.623.707 1.083.812.302.07.552.282.67.569l.334.81c.204.498.564.916 1.025 1.193.398.238.687.622.807 1.07l.115.425c.156.584.474 1.11.917 1.522.44.41.72.964.784 1.563.066.6.3 1.17.674 1.644l.273.346c.287.363.422.824.376 1.286a2.497 2.497 0 0 0 .344 1.534l.451.752c.16.266.18.593.056.877-.19.432-.188.924.005 1.354l.465 1.037a.373.373 0 0 1-.107.444 1.084 1.084 0 0 0-.358 1.162l.321 1.049a.13.13 0 0 1-.11.168.842.842 0 0 0-.737.964l.109.708a.095.095 0 0 1-.124.105.806.806 0 0 0-1.06.734l-.005.102a.172.172 0 0 1-.27.136l-.084-.058a.806.806 0 0 0-1.222.412.095.095 0 0 1-.158.037l-.503-.51a.842.842 0 0 0-1.213.016.13.13 0 0 1-.201-.012l-.65-.884a1.083 1.083 0 0 0-1.146-.407.373.373 0 0 1-.42-.18l-.554-.992a1.667 1.667 0 0 0-1.082-.812.956.956 0 0 1-.67-.569l-.334-.81a2.498 2.498 0 0 0-1.026-1.193 1.787 1.787 0 0 1-.807-1.07l-.114-.425a3.212 3.212 0 0 0-.917-1.522 2.502 2.502 0 0 1-.785-1.563 3.212 3.212 0 0 0-.673-1.644l-.273-.346a1.786 1.786 0 0 1-.376-1.286 2.498 2.498 0 0 0-.344-1.534l-.452-.752a.956.956 0 0 1-.055-.877c.19-.432.188-.924-.005-1.354l-.465-1.037a.373.373 0 0 1 .107-.444c.346-.277.487-.738.357-1.162l-.321-1.05a.13.13 0 0 1 .11-.167.842.842 0 0 0 .737-.964l-.108-.708a.095.095 0 0 1 .124-.105.806.806 0 0 0 1.06-.734l.004-.102a.172.172 0 0 1 .27-.136z" opacity=".5"/><path fill="url(#o)" d="M61.188 85.218c-.62.045-1.333-.162-2.093-.607-.76-.445-1.548-1.118-2.312-1.975l-.033-.036a1.002 1.002 0 0 1-.03-.034l-.012-.015a17.453 17.453 0 0 1-1.973-2.773 19.756 19.756 0 0 1-1.708-3.84c-.05-.156-.064-.3-.043-.407s.079-.168.161-.174c.11-.007.223-.007.339.001.335.023.692.111 1.065.263.022.01.042.01.059.004.016-.008.028-.023.035-.045a.206.206 0 0 0 .005-.083.44.44 0 0 0-.027-.104c-.042-.11-.082-.22-.122-.328-.566-1.575-.804-3.077-.671-4.239l.001-.007c.01-.105.024-.205.044-.3l.008-.04c.155-.702.569-1.069 1.153-1.021.585.047 1.292.506 1.97 1.277.64.727 1.206 1.68 1.588 2.672.416.07.888.335 1.366.767.478.431.944 1.012 1.348 1.682.403.67.73 1.402.945 2.12.214.716.309 1.39.273 1.95-.01.14-.026.272-.051.394a1.803 1.803 0 0 1-.211.575c-.365.816-1.028 1.187-1.882 1.053a.058.058 0 0 0-.052.015.1.1 0 0 0-.024.06c-.003.027 0 .06.007.094s.02.072.038.108a19.598 19.598 0 0 1 .958 2.414c.043.135.06.262.05.363-.01.101-.049.172-.109.202a.16.16 0 0 1-.06.014zM55.96 74.331l1.165 3.958c.019.064.042.127.069.19.087.206.213.396.348.528.136.133.27.197.374.18l.007-.004 1.967-.34a.323.323 0 0 0 .191-.111.596.596 0 0 0 .119-.307c.017-.13.011-.283-.017-.45a2.705 2.705 0 0 0-.15-.524 3.264 3.264 0 0 0-.26-.52 2.715 2.715 0 0 0-.33-.435 1.532 1.532 0 0 0-.352-.285.606.606 0 0 0-.317-.09.317.317 0 0 0-.236.116l-.398.475c-.024.028-.06.036-.102.023a.333.333 0 0 1-.135-.099.758.758 0 0 1-.182-.388l-.137-1.16a2.28 2.28 0 0 0-.076-.366 3.025 3.025 0 0 0-.504-.986c-.109-.14-.224-.258-.339-.347s-.226-.147-.329-.171a.35.35 0 0 0-.243.02c-.116.06-.191.197-.215.392s.005.439.083.701zm-3.698 2.003a1.584 1.584 0 0 1-.277-.477 1.219 1.219 0 0 1-.063-.252.642.642 0 0 1 .003-.21c.012-.06.035-.106.067-.136s.075-.045.123-.042.102.024.159.06a.842.842 0 0 1 .171.154c.114.129.213.3.276.476a.918.918 0 0 1 .061.462c-.016.08-.051.135-.102.161-.052.026-.118.022-.191-.012s-.152-.098-.227-.184zm.352-1.74c-.113-.129-.213-.3-.276-.476-.063-.176-.085-.342-.06-.462.024-.12.092-.183.19-.177.097.007.216.083.33.213.113.129.213.3.276.476a.917.917 0 0 1 .06.462c-.015.08-.05.135-.102.161-.052.026-.117.022-.19-.013a.738.738 0 0 1-.228-.183z"/><ellipse cx="81.5" cy="64.5" fill="#f6d40d" rx="3.5" ry="7.5"/></svg>