<svg xmlns="http://www.w3.org/2000/svg" width="200" height="144" fill="none" viewBox="0 0 200 144"><filter id="a" width="228" height="127" x="-14" y="9" color-interpolation-filters="sRGB" filterUnits="userSpaceOnUse"><feFlood flood-opacity="0" result="BackgroundImageFix"/><feColorMatrix in="SourceAlpha" result="hardAlpha" type="matrix" values="0 0 0 0 0 0 0 0 0 0 0 0 0 0 0 0 0 0 127 0"/><feOffset/><feGaussianBlur stdDeviation="6"/><feComposite in2="hardAlpha" operator="out"/><feColorMatrix type="matrix" values="0 0 0 0 0 0 0 0 0 0 0 0 0 0 0 0 0 0 0.25 0"/><feBlend in2="BackgroundImageFix" mode="normal" result="effect1_dropShadow_84_18289"/><feBlend in="SourceGraphic" in2="effect1_dropShadow_84_18289" mode="normal" result="shape"/></filter><filter id="b" width="108" height="143" x="87" y="22" color-interpolation-filters="sRGB" filterUnits="userSpaceOnUse"><feFlood flood-opacity="0" result="BackgroundImageFix"/><feColorMatrix in="SourceAlpha" result="hardAlpha" type="matrix" values="0 0 0 0 0 0 0 0 0 0 0 0 0 0 0 0 0 0 127 0"/><feOffset/><feGaussianBlur stdDeviation="6"/><feComposite in2="hardAlpha" operator="out"/><feColorMatrix type="matrix" values="0 0 0 0 0 0 0 0 0 0 0 0 0 0 0 0 0 0 0.25 0"/><feBlend in2="BackgroundImageFix" mode="normal" result="effect1_dropShadow_84_18289"/><feBlend in="SourceGraphic" in2="effect1_dropShadow_84_18289" mode="normal" result="shape"/></filter><mask id="c" width="144" height="144" x="28" y="0" maskUnits="userSpaceOnUse"><circle cx="100" cy="72" r="72" fill="#fff"/></mask><mask id="d" width="15" height="18" x="57.48" y="47.589" fill="#000" maskUnits="userSpaceOnUse"><path fill="#fff" d="M57.48 47.589h15v18h-15z"/><path fill="#000" d="M70.813 52.756H69.81a4.831 4.831 0 0 0-.767-1.615 4.391 4.391 0 0 0-1.24-1.25v-.052h3.01a.687.687 0 0 0 .472-.156c.158-.14.236-.296.236-.47s-.078-.312-.236-.416a.588.588 0 0 0-.472-.208H59.188a.588.588 0 0 0-.473.208.756.756 0 0 0-.236.365v.208c.04 0 .06.018.06.052v.157h.058v.052c.04 0 .06.017.06.052.039 0 .058.017.058.052h.06c.039 0 .059.017.059.052h.059l.059.052h.236l4.898.104c.983 0 1.868.278 2.655.833.787.521 1.318 1.181 1.594 1.98h-9.147a.782.782 0 0 0-.532.208c-.118.104-.177.243-.177.417s.06.33.177.468a.941.941 0 0 0 .532.157h9.265c-.079 1.007-.551 1.857-1.417 2.552-.826.694-1.81 1.041-2.95 1.041h-4.013c-.276 0-.531.087-.767.26a.86.86 0 0 0-.295.678c0 .139.039.278.118.417a1 1 0 0 0 .295.26l7.907 5.52.236.105a.573.573 0 0 0 .236.052.687.687 0 0 0 .473-.156c.157-.139.236-.295.236-.469a.333.333 0 0 0-.118-.26.645.645 0 0 0-.177-.26l-7.023-4.897h2.892c1.534 0 2.852-.468 3.954-1.406 1.14-.937 1.75-2.066 1.829-3.385v-.052h.944a.688.688 0 0 0 .472-.157c.158-.138.236-.295.236-.468s-.078-.313-.236-.417a.588.588 0 0 0-.472-.208z"/></mask><circle cx="99" cy="68" r="34" fill="#fff"/><circle cx="100" cy="72" r="72" fill="#fff"/><g mask="url(#c)"><g filter="url(#a)"><path fill="#fcfcfc" d="M-2 21h204v103H-2z"/></g><g filter="url(#b)"><rect width="84" height="119" x="99" y="34" fill="#fcfcfc" rx="6"/></g><g fill="#d9d9d9"><path d="M111 55h54v5h-54zM111 83.5a2.5 2.5 0 0 1 2.5-2.5h25a2.5 2.5 0 1 1 0 5h-25a2.5 2.5 0 0 1-2.5-2.5zM113.5 95a2.5 2.5 0 1 0 0 5h25a2.5 2.5 0 1 0 0-5zM111 110.5a2.5 2.5 0 0 1 2.5-2.5h25a2.5 2.5 0 1 1 0 5h-25a2.5 2.5 0 0 1-2.5-2.5zM113.5 119a2.5 2.5 0 1 0 0 5h25a2.5 2.5 0 1 0 0-5zM153 83.5a2.5 2.5 0 0 1 2.5-2.5h10a2.5 2.5 0 1 1 0 5h-10a2.5 2.5 0 0 1-2.5-2.5zM155.5 95a2.5 2.5 0 1 0 0 5h10a2.5 2.5 0 1 0 0-5zM153 110.5a2.5 2.5 0 0 1 2.5-2.5h10a2.5 2.5 0 1 1 0 5h-10a2.5 2.5 0 0 1-2.5-2.5zM155.5 119a2.5 2.5 0 1 0 0 5h10a2.5 2.5 0 1 0 0-5z"/></g></g><path fill="#fdd335" d="M83.831 56.658c0 10.35-8.39 18.738-18.738 18.738-10.35 0-18.738-8.389-18.738-18.738S54.744 37.92 65.093 37.92 83.83 46.31 83.83 56.658zm-33.209 0c0 7.992 6.479 14.47 14.47 14.47 7.993 0 14.471-6.478 14.471-14.47s-6.478-14.47-14.47-14.47c-7.992 0-14.47 6.478-14.47 14.47z"/><g fill="#191919"><path fill-rule="evenodd" d="M65 39.786c-9.363 0-16.954 7.59-16.954 16.954S55.636 73.694 65 73.694s16.955-7.59 16.955-16.954S74.364 39.786 65 39.786zM45.437 56.74c0-10.804 8.759-19.563 19.563-19.563 10.804 0 19.563 8.759 19.563 19.563S75.804 76.303 65 76.303c-10.804 0-19.563-8.759-19.563-19.563z" clip-rule="evenodd"/><path d="M70.813 52.756H69.81a4.831 4.831 0 0 0-.767-1.615 4.391 4.391 0 0 0-1.24-1.25v-.052h3.01a.687.687 0 0 0 .472-.156c.158-.14.236-.296.236-.47s-.078-.312-.236-.416a.588.588 0 0 0-.472-.208H59.188a.588.588 0 0 0-.473.208.756.756 0 0 0-.236.365v.208c.04 0 .06.018.06.052v.157h.058v.052c.04 0 .06.017.06.052.039 0 .058.017.058.052h.06c.039 0 .059.017.059.052h.059l.059.052h.236l4.898.104c.983 0 1.868.278 2.655.833.787.521 1.318 1.181 1.594 1.98h-9.147a.782.782 0 0 0-.532.208c-.118.104-.177.243-.177.417s.06.33.177.468a.941.941 0 0 0 .532.157h9.265c-.079 1.007-.551 1.857-1.417 2.552-.826.694-1.81 1.041-2.95 1.041h-4.013c-.276 0-.531.087-.767.26a.86.86 0 0 0-.295.678c0 .139.039.278.118.417a1 1 0 0 0 .295.26l7.907 5.52.236.105a.573.573 0 0 0 .236.052.687.687 0 0 0 .473-.156c.157-.139.236-.295.236-.469a.333.333 0 0 0-.118-.26.645.645 0 0 0-.177-.26l-7.023-4.897h2.892c1.534 0 2.852-.468 3.954-1.406 1.14-.937 1.75-2.066 1.829-3.385v-.052h.944a.688.688 0 0 0 .472-.157c.158-.138.236-.295.236-.468s-.078-.313-.236-.417a.588.588 0 0 0-.472-.208z"/><path d="m69.81 52.756-.315.084.064.242h.251zm-.767-1.615-.274.177.005.008.005.007zm-1.24-1.25h-.325v.173l.142.097zm0-.052v-.326h-.325v.326zm3.482-1.042-.248.211.03.036.038.025zm-12.57 0 .216.245.018-.016.015-.018zm-.235.365-.314-.09-.013.044v.046zm0 .208h-.327v.326h.327zm.059.209h-.326v.325h.326zm.059 0h.326v-.327h-.326zm0 .051h-.326v.327h.326zm.059.053h-.326v.326h.325zm.059.052h-.327v.326h.326zm.118.052h-.327v.326h.327zm.059 0 .215-.245-.092-.081h-.123zm.059.052-.216.244.092.082h.124zm.236 0 .007-.326h-.007zm4.898.104-.007.326h.007zm2.655.833-.188.267.008.005zm1.594 1.98v.326h.457l-.15-.433zm-9.678 1.093-.249.212.03.035.039.025zm9.796.157.325.025.027-.351h-.352zm-1.417 2.552-.204-.255-.005.005zm-7.73 1.302-.194-.263-.011.009-.011.01zm-.177 1.094-.284.16.01.019.013.017zm.295.26.186-.267-.01-.008-.011-.006zm7.907 5.52-.186.268.026.018.029.013zm.945 0-.216-.243zm.118-.728-.305.115.028.076.06.053zm-.177-.26.215-.245-.014-.012-.015-.011zm-7.023-4.897v-.326h-1.038l.852.594zm6.846-1.406-.208-.252-.004.004zm1.829-3.385.325.02.001-.01v-.01zm0-.052v-.326h-.326v.326zm1.416-1.042-.248.211.03.035.038.026zm-.472-.534H69.81v.652h1.003zm-.688.242a5.158 5.158 0 0 0-.819-1.723l-.527.384c.33.453.569.955.716 1.507zm-.809-1.708a4.72 4.72 0 0 0-1.33-1.343l-.366.54c.478.324.86.71 1.15 1.157zM68.13 49.89v-.052h-.652v.052zm-.326.274h3.01v-.652h-3.01zm3.01 0c.255 0 .496-.069.687-.238l-.432-.489c-.044.04-.118.075-.256.075zm.687-.238c.212-.187.346-.427.346-.713h-.652c0 .06-.022.133-.126.224zm.346-.713a.803.803 0 0 0-.382-.689l-.36.544c.076.05.09.092.09.145zm-.313-.628a.914.914 0 0 0-.72-.323v.652c.109 0 .172.034.223.093zm-.72-.323H59.187v.652h11.625zm-11.626 0a.914.914 0 0 0-.72.323l.496.422c.05-.06.114-.093.224-.093zm-.688.29c-.16.141-.276.315-.334.52l.627.178a.431.431 0 0 1 .138-.21zm-.02.609h-.327V49.214h.652v-.006c0-.001 0 0 0 0V49.164c0-.001 0 0 0 0v-.003c0-.001 0 0 0 0h-.326zm-.327.052V49.319h.652v-.002c0-.001 0 0 0 0v-.001c0-.001 0 0 0 0V49.303c0-.001 0 0 0 0v-.001c0-.001 0 0 0 0V49.291c0-.001 0 0 0 0v-.001c0-.001 0 0 0 0V49.28c0-.001 0 0 0 0v-.001c0-.001 0 0 0 0V49.268c0-.001 0 0 0 0v-.001c0-.001 0 0 0 0V49.256c0-.001 0 0 0 0v-.001c0-.001 0 0 0 0V49.244c0-.001 0 0 0 0v-.001c0-.001 0 0 0 0V49.233c0-.001 0 0 0 0v-.001c0-.001 0 0 0 0v-.001c0-.001 0 0 0 0V49.221c0-.001 0 0 0 0v-.001c0-.001 0 0 0 0v-.007zm.326.104h-.326V49.37h.652v-.006c0-.001 0 0 0 0v-.003c0-.001 0 0 0 0v-.002c0-.001 0 0 0 0V49.321c0-.001 0 0 0 0v-.004h-.326zm0 .378a.278.278 0 0 1-.267-.274h.653a.375.375 0 0 0-.386-.378zm-.267-.274V49.475h.653v-.003c0-.001 0 0 0 0V49.435c0-.001 0 0 0 0V49.425c0-.001 0 0 0 0v-.003zm0 .052V49.579h.653v-.003c0-.001 0 0 0 0v-.001c0-.001 0 0 0 0V49.562c0-.001 0 0 0 0v-.001c0-.001 0 0 0 0V49.551c0-.001 0 0 0 0v-.001c0-.001 0 0 0 0V49.54c0-.001 0 0 0 0v-.001c0-.001 0 0 0 0V49.527c0-.001 0 0 0 0v-.001c0-.001 0 0 0 0V49.515c0-.001 0 0 0 0v-.001c0-.001 0 0 0 0V49.504c0-.001 0 0 0 0v-.001c0-.001 0 0 0 0v-.001c0-.001 0 0 0 0V49.492c0-.001 0 0 0 0v-.001c0-.001 0 0 0 0V49.48c0-.001 0 0 0 0v-.001c0-.001 0 0 0 0v-.005zm.326.43H58.598v-.652h-.002c-.001 0 0 0 0 0H58.557c-.001 0 0 0 0 0H58.547c-.001 0 0 0 0 0h-.003c-.001 0 0 0 0 0h-.004c-.001 0 0 0 0 0h-.002zm.06-.325h-.327V49.63h.653v-.005c0-.001 0 0 0 0V49.578h-.327zm0 .378a.278.278 0 0 1-.267-.274h.652a.375.375 0 0 0-.386-.378zm.058.052a.278.278 0 0 1-.267-.274h.653a.374.374 0 0 0-.386-.378zm.06.052H58.775v-.652H58.737c-.001 0 0 0 0 0H58.715c-.001 0 0 0 0 0zm.059 0a.278.278 0 0 1-.267-.274h.652a.375.375 0 0 0-.385-.378zm.059.052H58.893v-.652H58.853c-.001 0 0 0 0 0h-.005c-.001 0 0 0 0 0h-.001c-.001 0 0 0 0 0h-.001c-.001 0 0 0 0 0h-.005c-.001 0 0 0 0 0h-.005c-.001 0 0 0 0 0h-.003zm-.157-.082.044.04.011.01.003.002c.005.004-.005-.005 0 0 .002.001-.001-.001 0 0 .003.003-.002-.002 0 0s0 0 .217-.244l.215-.245c-.005-.004.005.005 0 0-.001 0 0 0 0 0h-.001v-.001h-.001c0-.001 0 0 0 0v-.001h-.001l-.005-.005-.003-.002-.002-.002-.001-.002c-.01-.007-.026-.022-.045-.039zm.275.134H59.01v-.652H58.967c-.001 0 0 0 0 0h-.004c-.001 0 0 0 0 0h-.007c-.001 0 0 0 0 0h-.002c-.001 0 0 0 0 0h-.003zm.059 0h.059v-.652h-.06zm.059 0H59.188v-.652H59.168c-.001 0 0 0 0 0h-.003c-.001 0 0 0 0 0h-.003c-.001 0 0 0 0 0h-.003c-.001 0 0 0 0 0h-.003c-.001 0 0 0 0 0h-.003c-.001 0 0 0 0 0h-.003c-.001 0 0 0 0 0h-.003c-.001 0 0 0 0 0h-.003c-.001 0 0 0 0 0h-.003c-.001 0 0 0 0 0h-.003c-.001 0 0 0 0 0h-.003c-.001 0 0 0 0 0h-.003c-.001 0 0 0 0 0h-.003c-.001 0 0 0 0 0h-.003c-.001 0 0 0 0 0h-.003c-.001 0 0 0 0 0h-.003c-.001 0 0 0 0 0H59.097c-.001 0 0 0 0 0h-.003c-.001 0 0 0 0 0h-.003c-.001 0 0 0 0 0h-.003c-.001 0 0 0 0 0h-.003c-.001 0 0 0 0 0h-.003c-.001 0 0 0 0 0h-.003c-.001 0 0 0 0 0h-.003c-.001 0 0 0 0 0h-.003c-.001 0 0 0 0 0h-.003c-.001 0 0 0 0 0h-.001zm.11 0 4.899.104.014-.652-4.898-.104zm4.906.104c.917 0 1.737.258 2.467.774l.376-.533a4.82 4.82 0 0 0-2.843-.893zm2.475.78c.735.485 1.216 1.09 1.465 1.813l.617-.213c-.302-.874-.883-1.589-1.722-2.144zm1.774 1.38h-9.147v.653h9.147zm-9.147 0c-.282 0-.535.103-.747.29l.431.49a.456.456 0 0 1 .316-.127zm-.747.29a.853.853 0 0 0-.288.662h.652c0-.091.027-.137.067-.173zm-.288.662c0 .255.09.485.255.68l.497-.423a.38.38 0 0 1-.1-.257zm.324.74c.213.141.453.21.71.21v-.651a.615.615 0 0 1-.35-.102zm.71.21h9.266v-.651h-9.265zm8.94-.35c-.07.907-.492 1.678-1.295 2.322l.408.509c.928-.745 1.451-1.675 1.538-2.781zm-1.3 2.327c-.764.642-1.672.965-2.741.965v.652c1.213 0 2.272-.37 3.16-1.118zm-2.741.965h-4.013v.652h4.013zm-4.013 0c-.35 0-.672.112-.96.324l.386.526a.942.942 0 0 1 .574-.198zm-.983.342c-.272.24-.405.557-.405.922h.652c0-.19.062-.325.184-.433zm-.405.922c0 .203.058.397.16.577l.567-.321a.515.515 0 0 1-.075-.256zm.183.613c.106.14.237.255.39.345l.331-.562a.677.677 0 0 1-.2-.176zm.37.331 7.907 5.521.373-.534-7.908-5.521zm7.962 5.552.03.013c.01.005-.004-.001.007.004.004.001.003 0 .007.003h.002l.002.001.002.001h.001v.001l.008.003.007.004c.01.004-.007-.003.004.001h.002v.001h.001l.008.004.004.002.003.001.008.004h.002l.001.001.002.001h.002l.004.002c.009.005-.006-.002.003.002h.002l.001.001h.001l.001.001h.001c.002.001 0 0 0 0l.001.001.119.052.263-.596-.03-.013-.007-.003-.007-.004-.007-.003-.008-.003-.004-.002-.003-.001-.008-.004-.014-.006-.008-.003a.24.24 0 0 0-.007-.004l-.004-.001c-.007-.003.003 0-.003-.002h-.002l-.002-.002h-.003v-.001l-.03-.013-.004-.002-.004-.002a.236.236 0 0 0-.008-.003h-.001l-.002-.001c-.016-.008.013.005-.004-.002l-.003-.002-.004-.001-.03-.013a.661.661 0 0 1-.014-.007l-.015-.006zm.236.104c.116.052.24.08.367.08v-.652a.256.256 0 0 1-.104-.024zm.367.08c.256 0 .497-.069.688-.238l-.431-.488c-.045.039-.119.074-.257.074zm.688-.238c.212-.186.347-.426.347-.713h-.652c0 .06-.023.133-.126.225zm.347-.713a.659.659 0 0 0-.229-.505l-.431.49.007.007v.008zm-.14-.375a.971.971 0 0 0-.266-.39l-.431.489a.319.319 0 0 1 .088.13zm-.295-.413-7.022-4.896-.373.535 7.022 4.896zm-7.209-4.302h2.892v-.653h-2.892zm2.892 0c1.606 0 3-.494 4.165-1.485l-.423-.496c-1.039.884-2.28 1.328-3.742 1.328zm4.16-1.48c1.203-.989 1.864-2.198 1.948-3.619l-.65-.039c-.073 1.218-.632 2.266-1.711 3.153zm1.949-3.638v-.052h-.652v.052zm-.326.274h.944v-.652h-.944zm.944 0c.256 0 .497-.07.688-.238l-.431-.49c-.045.04-.119.076-.257.076zm.688-.238c.212-.187.346-.427.346-.713h-.652c0 .06-.022.133-.125.224zm.346-.713a.804.804 0 0 0-.382-.689l-.36.544c.076.05.09.091.09.145zm-.313-.628a.914.914 0 0 0-.72-.323v.652c.109 0 .172.033.223.093z" mask="url(#d)"/><path d="M47.673 93.439v-9.495h3.703c.832 0 1.542.132 2.13.394.587.262 1.04.642 1.356 1.14.316.497.475 1.089.475 1.776s-.159 1.28-.475 1.777c-.317.488-.769.863-1.356 1.126-.588.262-1.298.393-2.13.393H48.42l.61-.624v3.513zm6.348 0-2.414-3.445h1.451l2.441 3.445zm-4.991-3.377-.61-.665h2.915c.868 0 1.524-.185 1.967-.556.452-.38.678-.909.678-1.587s-.226-1.203-.678-1.573c-.443-.371-1.098-.557-1.967-.557H48.42l.61-.678zm11.51 3.458c-.77 0-1.448-.158-2.035-.474a3.481 3.481 0 0 1-1.357-1.303c-.316-.551-.475-1.184-.475-1.898 0-.715.154-1.348.462-1.9a3.393 3.393 0 0 1 1.288-1.288 3.666 3.666 0 0 1 1.858-.474c.697 0 1.312.153 1.845.46.534.308.95.742 1.248 1.303.307.551.461 1.198.461 1.94 0 .054-.004.117-.013.19 0 .072-.005.14-.014.203H57.69v-.936h5.439l-.53.325a2.417 2.417 0 0 0-.284-1.234 2.115 2.115 0 0 0-.827-.84c-.344-.209-.746-.313-1.208-.313a2.33 2.33 0 0 0-1.207.312 2.093 2.093 0 0 0-.827.855 2.546 2.546 0 0 0-.298 1.247v.217c0 .48.108.91.325 1.289.226.37.538.66.936.868.398.208.854.312 1.37.312.425 0 .81-.072 1.153-.217.352-.145.66-.362.922-.651l.719.84c-.326.38-.732.67-1.22.869a4.173 4.173 0 0 1-1.615.298zm5.293-.081v-7.826c0-.706.203-1.266.61-1.682.416-.425 1.004-.638 1.764-.638.28 0 .547.037.8.109.262.063.484.167.664.312l-.393.99a1.412 1.412 0 0 0-.461-.244 1.557 1.557 0 0 0-.543-.095c-.38 0-.669.108-.868.326-.199.207-.298.52-.298.935v.963l.027.597v6.253zm-1.22-6.117V86.25h4.584v1.072zm8.907 6.198c-.769 0-1.447-.158-2.035-.474a3.481 3.481 0 0 1-1.356-1.303c-.316-.551-.475-1.184-.475-1.898 0-.715.154-1.348.461-1.9a3.393 3.393 0 0 1 1.289-1.288 3.666 3.666 0 0 1 1.858-.474c.696 0 1.311.153 1.845.46.533.308.95.742 1.248 1.303.307.551.46 1.198.46 1.94 0 .054-.004.117-.013.19 0 .072-.004.14-.013.203h-6.117v-.936h5.438l-.528.325a2.417 2.417 0 0 0-.285-1.234 2.115 2.115 0 0 0-.828-.84c-.343-.209-.746-.313-1.207-.313a2.33 2.33 0 0 0-1.207.312 2.093 2.093 0 0 0-.827.855 2.546 2.546 0 0 0-.299 1.247v.217c0 .48.109.91.326 1.289.226.37.538.66.936.868.397.208.854.312 1.37.312.425 0 .809-.072 1.152-.217.353-.145.66-.362.923-.651l.719.84c-.326.38-.733.67-1.221.869a4.173 4.173 0 0 1-1.614.298zm5.104-.081V86.25h1.248v1.953l-.122-.488a2.208 2.208 0 0 1 1.003-1.14c.47-.261 1.05-.393 1.736-.393v1.262a.992.992 0 0 0-.162-.014h-.136c-.696 0-1.248.208-1.655.624-.407.416-.61 1.017-.61 1.804v3.581z"/></g></svg>