<svg xmlns="http://www.w3.org/2000/svg" xmlns:xlink="http://www.w3.org/1999/xlink" width="183" height="128" fill="none" viewBox="0 0 183 128"><linearGradient id="a"><stop offset="0" stop-color="#4042e2"/><stop offset="1" stop-color="#4f52ff"/></linearGradient><linearGradient xlink:href="#a" id="b" x1="39.682" x2="50.688" y1="64.092" y2="63.269" gradientUnits="userSpaceOnUse"/><linearGradient xlink:href="#a" id="c" x1="7266.52" x2="8659" y1="48849.4" y2="48512.8" gradientUnits="userSpaceOnUse"/><linearGradient id="d"><stop offset="0" stop-color="#09005d"/><stop offset="1" stop-color="#1a0f91"/></linearGradient><linearGradient xlink:href="#d" id="e" x1="53615.2" x2="-76228.6" y1="18481.9" y2="142816" gradientUnits="userSpaceOnUse"/><linearGradient id="f"><stop offset="0" stop-color="#dae3fe"/><stop offset="1" stop-color="#e9effd"/></linearGradient><linearGradient xlink:href="#f" id="g" x1="3960.84" x2="5927.25" y1="23100.7" y2="23100.7" gradientUnits="userSpaceOnUse"/><linearGradient xlink:href="#f" id="h" x1="186.758" x2="189.132" y1="2757.76" y2="2757.76" gradientUnits="userSpaceOnUse"/><linearGradient xlink:href="#a" id="i" x1="-30117.5" x2="65939.5" y1="156124" y2="62591.9" gradientUnits="userSpaceOnUse"/><linearGradient xlink:href="#f" id="j" x1="24362.1" x2="79308.8" y1="76927.2" y2="76927.2" gradientUnits="userSpaceOnUse"/><linearGradient id="k"><stop offset="0" stop-color="#e1473d"/><stop offset="1" stop-color="#e9605a"/></linearGradient><linearGradient xlink:href="#k" id="l" x1="24643.9" x2="59100.5" y1="2900.5" y2="2900.5" gradientUnits="userSpaceOnUse"/><linearGradient xlink:href="#k" id="m" x1="24644.3" x2="59101.5" y1="3163.5" y2="3163.5" gradientUnits="userSpaceOnUse"/><linearGradient xlink:href="#k" id="n" x1="3507.53" x2="4124.37" y1="6263.95" y2="6263.95" gradientUnits="userSpaceOnUse"/><linearGradient xlink:href="#k" id="o" x1="24884.5" x2="45979.5" y1="3327.11" y2="3327.11" gradientUnits="userSpaceOnUse"/><linearGradient xlink:href="#k" id="p" x1="491.879" x2="-1606.6" y1="4888.46" y2="7502.82" gradientUnits="userSpaceOnUse"/><linearGradient xlink:href="#k" id="q" x1="3479.86" x2="4096.68" y1="6962.67" y2="6962.67" gradientUnits="userSpaceOnUse"/><linearGradient xlink:href="#k" id="r" x1="2702.29" x2="3055.61" y1="5245.77" y2="5245.77" gradientUnits="userSpaceOnUse"/><linearGradient xlink:href="#k" id="s" x1="24726.9" x2="45822.9" y1="3695.29" y2="3695.29" gradientUnits="userSpaceOnUse"/><linearGradient xlink:href="#k" id="t" x1="3452.45" x2="4069.3" y1="7661.6" y2="7661.6" gradientUnits="userSpaceOnUse"/><linearGradient xlink:href="#k" id="u" x1="2681" x2="3034.33" y1="5772.86" y2="5772.86" gradientUnits="userSpaceOnUse"/><linearGradient xlink:href="#k" id="v" x1="24565.5" x2="45660.5" y1="4062.27" y2="4062.27" gradientUnits="userSpaceOnUse"/><linearGradient xlink:href="#d" id="w" x1="4522.68" x2="2201.38" y1="262.318" y2="5175.45" gradientUnits="userSpaceOnUse"/><linearGradient xlink:href="#f" id="x" x1="3576.66" x2="3839.29" y1="593.943" y2="593.943" gradientUnits="userSpaceOnUse"/><linearGradient xlink:href="#d" id="y" x1="9856.91" x2="8877.89" y1="-243.316" y2="4173.55" gradientUnits="userSpaceOnUse"/><linearGradient xlink:href="#f" id="z" x1="3700.64" x2="4087.69" y1="614.288" y2="614.288" gradientUnits="userSpaceOnUse"/><linearGradient xlink:href="#d" id="A" x1="14484.2" x2="14040.8" y1="74.167" y2="3850.74" gradientUnits="userSpaceOnUse"/><linearGradient id="B"><stop offset="0" stop-color="#fe7062"/><stop offset="1" stop-color="#ff928e"/></linearGradient><linearGradient xlink:href="#B" id="C" x1="12845.8" x2="20438.3" y1="7774.62" y2="8954.33" gradientUnits="userSpaceOnUse"/><linearGradient xlink:href="#B" id="D" x1="12962.4" x2="20630.2" y1="7649.66" y2="8892.84" gradientUnits="userSpaceOnUse"/><linearGradient xlink:href="#B" id="E" x1="9850.78" x2="15861.7" y1="9529.14" y2="10298.8" gradientUnits="userSpaceOnUse"/><linearGradient xlink:href="#B" id="F" x1="10207.9" x2="16501" y1="10226.9" y2="11059.3" gradientUnits="userSpaceOnUse"/><linearGradient xlink:href="#d" id="G" x1="8461.78" x2="8130.41" y1="12610.6" y2="13838.7" gradientUnits="userSpaceOnUse"/><linearGradient xlink:href="#d" id="H" x1="13541.6" x2="14120" y1="9428.63" y2="9695.07" gradientUnits="userSpaceOnUse"/><linearGradient xlink:href="#a" id="I" x1="8545.09" x2="9016.54" y1="983.577" y2="983.577" gradientUnits="userSpaceOnUse"/><linearGradient xlink:href="#d" id="J" x1="8310.11" x2="8755.81" y1="3627.14" y2="3627.14" gradientUnits="userSpaceOnUse"/><linearGradient id="K"><stop offset="0" stop-color="#ff928e"/><stop offset="1" stop-color="#feb3b1"/></linearGradient><linearGradient xlink:href="#K" id="L" x1="2378.36" x2="2415.85" y1="3101.65" y2="3101.65" gradientUnits="userSpaceOnUse"/><linearGradient xlink:href="#a" id="M" x1="2861.7" x2="2930.93" y1="1366.19" y2="1366.19" gradientUnits="userSpaceOnUse"/><linearGradient xlink:href="#d" id="N" x1="4239.77" x2="4389.02" y1="5846.81" y2="5846.81" gradientUnits="userSpaceOnUse"/><linearGradient xlink:href="#K" id="O" x1="2555.34" x2="2608.79" y1="3523.05" y2="3523.05" gradientUnits="userSpaceOnUse"/><linearGradient xlink:href="#d" id="P" x1="19711.3" x2="28061.3" y1="38227.5" y2="32241.4" gradientUnits="userSpaceOnUse"/><linearGradient xlink:href="#B" id="Q" x1="14646.7" x2="11590.5" y1="10029.9" y2="7000.68" gradientUnits="userSpaceOnUse"/><linearGradient xlink:href="#a" id="R" x1="3707.93" x2="3736.05" y1="3304.62" y2="3241.05" gradientUnits="userSpaceOnUse"/><linearGradient xlink:href="#K" id="S" x1="4213.83" x2="3789" y1="6500.55" y2="6686.14" gradientUnits="userSpaceOnUse"/><linearGradient xlink:href="#B" id="T" x1="6382.86" x2="4677.96" y1="6070.71" y2="4738.79" gradientUnits="userSpaceOnUse"/><linearGradient xlink:href="#B" id="U" x1="5224.93" x2="3829.65" y1="4511.6" y2="3555.56" gradientUnits="userSpaceOnUse"/><linearGradient xlink:href="#K" id="V" x1="9008.76" x2="9428.89" y1="3915.91" y2="3915.91" gradientUnits="userSpaceOnUse"/><linearGradient xlink:href="#K" id="W" x1="6349.72" x2="6343.7" y1="4873.28" y2="5646.01" gradientUnits="userSpaceOnUse"/><linearGradient xlink:href="#a" id="X" x1="39102.7" x2="50620.5" y1="15907.7" y2="15907.7" gradientUnits="userSpaceOnUse"/><linearGradient xlink:href="#a" id="Y" x1="50492.9" x2="62512.1" y1="28038.9" y2="28038.9" gradientUnits="userSpaceOnUse"/><linearGradient xlink:href="#f" id="Z" x1="9808.91" x2="16059" y1="13644.1" y2="13644.1" gradientUnits="userSpaceOnUse"/><linearGradient xlink:href="#K" id="aa" x1="7113.29" x2="7005.26" y1="11374.3" y2="11899.2" gradientUnits="userSpaceOnUse"/><linearGradient xlink:href="#k" id="ab" x1="-2130.68" x2="-827.82" y1="8295.99" y2="7841.82" gradientUnits="userSpaceOnUse"/><linearGradient xlink:href="#K" id="ac" x1="2226.92" x2="2259.91" y1="3813.4" y2="3692.91" gradientUnits="userSpaceOnUse"/><linearGradient xlink:href="#K" id="ad" x1="6134.59" x2="6062.38" y1="1467.51" y2="1682.75" gradientUnits="userSpaceOnUse"/><linearGradient xlink:href="#K" id="ae" x1="3334.31" x2="3388.22" y1="2201" y2="2201" gradientUnits="userSpaceOnUse"/><linearGradient xlink:href="#f" id="af" x1="451.942" x2="716.999" y1="5166.18" y2="5166.18" gradientUnits="userSpaceOnUse"/><linearGradient xlink:href="#f" id="ag" x1="132.24" x2="137.011" y1="477.669" y2="477.669" gradientUnits="userSpaceOnUse"/><g opacity=".7"><path fill="#78a3fb" d="M110.626 74.025a.129.129 0 0 0 .071.13l1.404.683c.082.735.282 1.45.594 2.12l-.848 1.312a.126.126 0 0 0 .006.148l1.157 1.473c.017.021.039.037.064.044a.129.129 0 0 0 .078-.002l1.478-.51a6.8 6.8 0 0 0 1.921 1.083l.328 1.525c.005.026.019.05.039.068.019.018.044.029.071.032l1.861.226a.131.131 0 0 0 .077-.015.133.133 0 0 0 .054-.056l.683-1.402a6.83 6.83 0 0 0 2.125-.593l1.312.847a.13.13 0 0 0 .149-.007l1.476-1.155a.124.124 0 0 0 .043-.064.13.13 0 0 0-.001-.079l-.511-1.474a6.799 6.799 0 0 0 1.088-1.918l1.521-.328a.128.128 0 0 0 .067-.039.127.127 0 0 0 .033-.07l.225-1.859c.004-.026-.001-.053-.014-.076s-.032-.043-.056-.054l-1.405-.682a6.848 6.848 0 0 0-.593-2.122l.848-1.31a.127.127 0 0 0 .021-.076.131.131 0 0 0-.028-.073l-1.155-1.474a.13.13 0 0 0-.143-.042l-1.478.51a6.802 6.802 0 0 0-1.921-1.082l-.327-1.525a.128.128 0 0 0-.11-.1l-1.861-.225a.127.127 0 0 0-.077.014.128.128 0 0 0-.055.056l-.683 1.403a6.838 6.838 0 0 0-2.124.592l-1.313-.847a.126.126 0 0 0-.148.007l-1.476 1.155a.132.132 0 0 0-.044.064.138.138 0 0 0 .002.078l.51 1.476a6.82 6.82 0 0 0-1.084 1.918l-1.526.327a.126.126 0 0 0-.068.039.128.128 0 0 0-.034.07zm6.73-.536a1.67 1.67 0 0 1 1.513-1.065 1.669 1.669 0 0 1 1.564.987 1.658 1.658 0 0 1-.316 1.821 1.666 1.666 0 0 1-2.761-1.745zM122.686 62.509a.071.071 0 0 0 .008.043.08.08 0 0 0 .032.03l.78.379c.045.408.156.805.329 1.178l-.471.727a.074.074 0 0 0 .004.083l.643.818c.008.012.021.02.035.025s.029.004.043-.001l.821-.283c.321.256.681.46 1.067.601l.179.847a.072.072 0 0 0 .062.055l1.034.126c.014.002.029-.001.042-.008s.024-.019.03-.032l.379-.779a3.822 3.822 0 0 0 1.181-.328l.729.47a.07.07 0 0 0 .041.013.072.072 0 0 0 .041-.013l.82-.64c.011-.01.02-.023.024-.037s.004-.03-.001-.043l-.283-.82c.257-.32.46-.68.602-1.064l.847-.18c.015-.002.028-.01.038-.02s.017-.025.019-.04l.125-1.032a.072.072 0 0 0-.039-.072l-.781-.379a3.78 3.78 0 0 0-.329-1.179l.471-.727c.008-.012.013-.027.013-.042s-.005-.029-.013-.04l-.642-.82a.077.077 0 0 0-.036-.023.075.075 0 0 0-.044 0l-.821.283a3.778 3.778 0 0 0-1.067-.6l-.179-.847a.07.07 0 0 0-.061-.056l-1.033-.125a.072.072 0 0 0-.043.008.069.069 0 0 0-.03.03l-.38.78a3.775 3.775 0 0 0-1.179.329l-.729-.47c-.012-.01-.027-.014-.042-.014s-.029.005-.041.013l-.82.642a.073.073 0 0 0-.024.036.072.072 0 0 0 0 .043l.284.82c-.257.32-.46.68-.602 1.065l-.848.179c-.014.003-.028.01-.038.022s-.016.025-.018.04zm3.738-.298a.929.929 0 0 1 .84-.592.927.927 0 0 1 .869.549.926.926 0 0 1-.176 1.01.923.923 0 0 1-1.002.226.927.927 0 0 1-.531-1.193z" opacity=".7"/><g fill="#bdd0fb"><path d="M134.078 98.24a.2.2 0 0 1-.165-.088l-.269-.42a.208.208 0 0 1-.03-.151.21.21 0 0 1 .032-.072.19.19 0 0 1 .058-.054.19.19 0 0 1 .152-.023.194.194 0 0 1 .123.094c.089.137.171.275.261.41a.195.195 0 0 1 .009.2.199.199 0 0 1-.173.104zM131.208 87.078h-.015a.194.194 0 0 1-.179-.21c.012-.166.027-.33.045-.495a.195.195 0 0 1 .216-.175.198.198 0 0 1 .176.216c-.017.161-.033.323-.045.483a.195.195 0 0 1-.064.13.194.194 0 0 1-.134.05z" opacity=".7"/></g></g><path fill="#bdd0fb" d="M154.256 87.335h-.025a.171.171 0 0 1-.143-.194c.021-.138.041-.277.058-.416a.17.17 0 0 1 .19-.148.172.172 0 0 1 .114.064c.027.036.04.081.034.126-.018.142-.038.284-.059.425a.17.17 0 0 1-.169.143zM151.395 75.817a.17.17 0 0 1-.137-.069 13.976 13.976 0 0 0-.255-.333.171.171 0 0 1-.036-.126.172.172 0 0 1 .304-.085c.088.113.175.227.261.342a.165.165 0 0 1 .028.06.164.164 0 0 1-.019.128.16.16 0 0 1-.044.049.176.176 0 0 1-.102.034z" opacity=".7"/><path fill="#6988f5" fill-opacity=".4" d="M115.789 104.687a.359.359 0 0 0 .2.365l3.929 1.909a19 19 0 0 0 1.661 5.934l-2.375 3.667a.357.357 0 0 0 .02.416l3.235 4.122a.355.355 0 0 0 .4.118l4.133-1.426a19.047 19.047 0 0 0 5.374 3.028l.917 4.266a.36.36 0 0 0 .31.281l5.207.63a.365.365 0 0 0 .215-.04.363.363 0 0 0 .151-.159l1.911-3.923a19.073 19.073 0 0 0 5.944-1.658l3.672 2.371a.359.359 0 0 0 .417-.019l4.128-3.23a.36.36 0 0 0 .118-.4l-1.428-4.127a18.96 18.96 0 0 0 3.032-5.367l4.273-.915a.358.358 0 0 0 .282-.309l.631-5.199a.358.358 0 0 0-.199-.366l-3.93-1.908a18.97 18.97 0 0 0-1.661-5.935l2.375-3.666a.359.359 0 0 0-.019-.417l-3.236-4.121a.354.354 0 0 0-.399-.118l-4.135 1.425a19.033 19.033 0 0 0-5.375-3.028l-.917-4.267a.358.358 0 0 0-.31-.28l-5.207-.631a.36.36 0 0 0-.367.199l-1.908 3.924a19.071 19.071 0 0 0-5.944 1.657l-3.672-2.368a.36.36 0 0 0-.416.019l-4.129 3.229a.357.357 0 0 0-.117.4l1.427 4.126a19.019 19.019 0 0 0-3.032 5.366l-4.273.916a.36.36 0 0 0-.281.31zm18.833-1.505a4.655 4.655 0 0 1 4.23-2.975 4.664 4.664 0 0 1 4.373 2.763c.373.841.488 1.774.331 2.68a4.652 4.652 0 0 1-3.568 3.742 4.658 4.658 0 0 1-5.678-4.424 4.634 4.634 0 0 1 .312-1.789z" opacity=".7"/><path fill="#bdd0fb" d="M142.158 117.314a.358.358 0 0 1-.155-.034.35.35 0 0 1-.126-.096l-.233-.277a.168.168 0 0 1-.041-.125.16.16 0 0 1 .06-.117.171.171 0 0 1 .125-.04.182.182 0 0 1 .065.02.16.16 0 0 1 .051.042l.233.278a.022.022 0 0 0 .009.007.036.036 0 0 0 .011.002l.237-.09a.178.178 0 0 1 .135-.002c.021.009.04.022.056.039a.168.168 0 0 1 .038.057.175.175 0 0 1-.047.189.156.156 0 0 1-.06.034l-.227.089a.366.366 0 0 1-.131.024zm-6.858-.154a.366.366 0 0 1-.149-.032l-.405-.178a.173.173 0 0 1-.071-.217c.017-.038.048-.069.087-.086s.082-.02.122-.006l.405.178c.015 0 .024 0 .031-.006l.112-.12a.15.15 0 0 1 .054-.039.16.16 0 0 1 .13-.005c.021.008.04.02.057.035a.191.191 0 0 1 .039.054c.009.02.014.042.015.065a.169.169 0 0 1-.046.122l-.111.12a.372.372 0 0 1-.27.114zm7.95-.254a.169.169 0 0 1-.109-.04.168.168 0 0 1-.039-.213.17.17 0 0 1 .087-.076l.794-.309a.166.166 0 0 1 .133 0 .162.162 0 0 1 .092.095.17.17 0 0 1-.004.133.162.162 0 0 1-.04.054.158.158 0 0 1-.058.035l-.794.309a.167.167 0 0 1-.062.012zm-9.217-.285a.181.181 0 0 1-.069-.014l-.779-.344a.166.166 0 0 1-.104-.092.165.165 0 0 1 0-.139.193.193 0 0 1 .041-.057.183.183 0 0 1 .062-.036c.023-.007.047-.01.071-.007.023.003.046.01.067.022l.78.343a.175.175 0 0 1 .083.078.173.173 0 0 1-.045.21.172.172 0 0 1-.107.038zm2.1-.269a.17.17 0 0 1-.126-.286l.58-.623a.177.177 0 0 1 .118-.055c.023 0 .045.003.066.011s.04.02.057.035c.016.015.03.033.039.054.009.02.015.042.015.065.001.022-.002.044-.01.065s-.02.04-.035.057l-.58.623a.166.166 0 0 1-.121.053zm5.086-.034a.179.179 0 0 1-.072-.015.182.182 0 0 1-.058-.045l-.55-.649a.168.168 0 0 1-.033-.058.163.163 0 0 1 .01-.131.176.176 0 0 1 .041-.053.2.2 0 0 1 .059-.032c.022-.007.044-.009.067-.007a.178.178 0 0 1 .116.061l.55.649a.168.168 0 0 1 .025.182.182.182 0 0 1-.063.072.175.175 0 0 1-.092.026zm3.616-.027a.17.17 0 0 1-.061-.329l.073-.028a.023.023 0 0 0 .012-.01.025.025 0 0 0 .005-.015l-.021-.529a.172.172 0 0 1 .288-.133.196.196 0 0 1 .039.055c.009.02.014.043.014.065l.02.528a.365.365 0 0 1-.232.356l-.073.029a.18.18 0 0 1-.061.007zm-12.343-.39a.17.17 0 0 1-.08-.02.161.161 0 0 1-.058-.058.365.365 0 0 1-.052-.188v-.032l.06-.724a.17.17 0 0 1 .34.028l-.061.726a.179.179 0 0 1-.057.241.189.189 0 0 1-.092.027zm6.599-.381a.17.17 0 0 1-.12-.29.17.17 0 0 1 .12-.05c.278 0 .559-.016.838-.042a.184.184 0 0 1 .066.007.183.183 0 0 1 .058.032.176.176 0 0 1 .061.116.184.184 0 0 1-.007.066.175.175 0 0 1-.148.119c-.287.025-.578.04-.864.042zm-.852-.026h-.016a10.617 10.617 0 0 1-.86-.098.17.17 0 0 1-.074-.305.17.17 0 0 1 .127-.031c.273.043.553.077.832.094a.183.183 0 0 1 .119.054c.015.017.027.036.035.057s.011.043.011.065a.16.16 0 0 1-.016.065.17.17 0 0 1-.038.054c-.017.015-.036.027-.057.035s-.043.011-.066.011zm6.746-.799a.171.171 0 0 1-.171-.164l-.032-.851a.169.169 0 0 1 .163-.176.17.17 0 0 1 .163.099c.009.02.014.042.015.065l.031.851a.169.169 0 0 1-.163.176zm-12.382-.479h-.014a.17.17 0 0 1-.155-.184l.062-.734c-.02-.035-.027-.074-.02-.113a.166.166 0 0 1 .056-.099.166.166 0 0 1 .106-.042.167.167 0 0 1 .109.034l.094.071v.1l-.067.811a.175.175 0 0 1-.056.109.167.167 0 0 1-.115.044zm12.901-.945a.17.17 0 0 1-.161-.114.168.168 0 0 1 .055-.19c.218-.171.433-.353.638-.541a.167.167 0 0 1 .122-.045.17.17 0 0 1 .11.295c-.212.195-.434.386-.658.56a.165.165 0 0 1-.106.035zm-13.515-.434a.172.172 0 0 1-.114-.043 10.669 10.669 0 0 1-.619-.603.171.171 0 0 1 .016-.23.167.167 0 0 1 .116-.046.164.164 0 0 1 .115.044c.192.202.394.397.601.583a.167.167 0 0 1 .045.188.17.17 0 0 1-.159.109zm14.763-.72a.167.167 0 0 1-.114-.045.165.165 0 0 1-.056-.118.18.18 0 0 1 .01-.065.175.175 0 0 1 .035-.057c.188-.205.37-.42.542-.64a.172.172 0 0 1 .239-.03.173.173 0 0 1 .065.114.166.166 0 0 1-.035.125 10.33 10.33 0 0 1-.559.661.156.156 0 0 1-.059.042.163.163 0 0 1-.072.014zm-7.691-.181h-.203c-.046-.001-.088-.02-.119-.053s-.048-.076-.046-.121a.15.15 0 0 1 .013-.066.14.14 0 0 1 .038-.055.168.168 0 0 1 .124-.045c.276.008.552-.001.827-.026a.162.162 0 0 1 .126.038.178.178 0 0 1 .042.052.18.18 0 0 1 .011.131.175.175 0 0 1-.084.1.162.162 0 0 1-.064.018 7.86 7.86 0 0 1-.669.029zm-1.046-.077h-.026a7.106 7.106 0 0 1-.852-.185.168.168 0 0 1-.102-.081.166.166 0 0 1-.015-.129.17.17 0 0 1 .21-.118c.267.076.538.135.811.177.042.007.08.029.106.063a.165.165 0 0 1 .036.117.167.167 0 0 1-.053.111.17.17 0 0 1-.114.047zm2.539-.083a.17.17 0 0 1-.037-.336 7.13 7.13 0 0 0 .799-.227.167.167 0 0 1 .132.005.19.19 0 0 1 .054.04.177.177 0 0 1 .034.058.165.165 0 0 1 .009.066c-.001.023-.007.045-.017.065a.176.176 0 0 1-.099.087 7.348 7.348 0 0 1-.838.239.325.325 0 0 1-.044.003zm-9.735-.17a.17.17 0 0 1-.133-.064 9.553 9.553 0 0 1-.443-.59.173.173 0 0 1-.093-.071c-.021-.034-.03-.074-.025-.114s.024-.076.054-.103.068-.043.109-.045l.137-.005.052.077c.151.219.31.433.474.638a.166.166 0 0 1 .021.18.17.17 0 0 1-.062.071.174.174 0 0 1-.091.026zm18.984-.062h-.032a.17.17 0 0 1 .03-.338c.005 0 .01-.002.015-.004a.025.025 0 0 0 .011-.012l.246-.556a.169.169 0 0 1 .216-.07.168.168 0 0 1 .086.086c.018.038.02.081.007.121l-.245.556a.369.369 0 0 1-.338.217zm-.864-.071h-.014l-.852-.071a.173.173 0 0 1-.111-.062.175.175 0 0 1-.037-.121.172.172 0 0 1 .176-.156l.852.071c.043.005.083.025.112.058s.044.075.042.119a.169.169 0 0 1-.052.115.173.173 0 0 1-.116.048zm-12.559-.077a.185.185 0 0 1-.066-.013l-.12-.052a7.446 7.446 0 0 1-.662-.333.174.174 0 0 1-.084-.103.173.173 0 0 1 .061-.183.173.173 0 0 1 .192-.01c.204.117.415.223.631.318l.114.049a.166.166 0 0 1 .084.077.169.169 0 0 1-.042.211.172.172 0 0 1-.108.039zm5.777-.186a.174.174 0 0 1-.107-.037.173.173 0 0 1-.049-.206.166.166 0 0 1 .079-.08 6.66 6.66 0 0 0 .719-.414.163.163 0 0 1 .128-.024.161.161 0 0 1 .062.026.159.159 0 0 1 .046.047.16.16 0 0 1 .025.062.163.163 0 0 1-.026.127.165.165 0 0 1-.048.047c-.242.16-.495.305-.755.434a.176.176 0 0 1-.078.019zm-13.566-.188a.174.174 0 0 1-.121-.048.167.167 0 0 1-.052-.119.172.172 0 0 1 .167-.174l.852-.031a.147.147 0 0 1 .066.009.162.162 0 0 1 .058.034.175.175 0 0 1 .007.242.163.163 0 0 1-.054.039.177.177 0 0 1-.065.015l-.851.033zm-.825-.065a.153.153 0 0 1-.078-.019.161.161 0 0 1-.06-.053.408.408 0 0 1-.037-.072l-.293-.753a.166.166 0 0 1 0-.133.15.15 0 0 1 .038-.056.178.178 0 0 1 .124-.048.18.18 0 0 1 .121.056.17.17 0 0 1 .034.058l.292.752a.168.168 0 0 1 .011.177c-.014.028-.036.051-.063.067s-.057.024-.089.024zm7.138-.403a.17.17 0 0 1-.102-.034 7.142 7.142 0 0 1-.665-.563c-.02-.015-.036-.033-.048-.054s-.019-.044-.021-.068a.155.155 0 0 1 .008-.071.173.173 0 0 1 .167-.115.169.169 0 0 1 .126.063c.2.191.411.37.633.535.03.021.052.052.064.086a.172.172 0 0 1-.166.224zm8.674-.279a.167.167 0 0 1-.097-.031.166.166 0 0 1-.062-.081.166.166 0 0 1 .048-.188c.211-.179.411-.372.598-.576a.163.163 0 0 1 .054-.039.167.167 0 0 1 .131-.005.166.166 0 0 1 .112.153c.001.023-.003.045-.011.066s-.019.041-.035.057a6.912 6.912 0 0 1-.628.606.17.17 0 0 1-.117.039zm6.997-.185a.17.17 0 0 1-.155-.238l.343-.778a.183.183 0 0 1 .036-.062.165.165 0 0 1 .196-.042c.022.009.041.023.057.041s.028.039.036.061c.007.023.01.047.007.071a.156.156 0 0 1-.022.067l-.344.779a.17.17 0 0 1-.161.103zm-16.894-.712a.169.169 0 0 1-.132-.062 7.37 7.37 0 0 1-.287-.378.163.163 0 0 1-.028-.127.174.174 0 0 1 .069-.11.175.175 0 0 1 .128-.029.174.174 0 0 1 .11.07c.086.121.178.243.272.359a.166.166 0 0 1 .023.18.167.167 0 0 1-.155.097zm-6.53 0a.171.171 0 0 1-.093-.03.172.172 0 0 1-.061-.078l-.31-.793a.166.166 0 0 1-.001-.133.167.167 0 0 1 .096-.092.169.169 0 0 1 .133.004.17.17 0 0 1 .089.098l.31.793a.165.165 0 0 1-.017.159.161.161 0 0 1-.062.054.16.16 0 0 1-.08.019zm17.574-.352a.175.175 0 0 1-.144-.08.156.156 0 0 1-.023-.062.163.163 0 0 1 .029-.127c.16-.225.306-.461.437-.704a.168.168 0 0 1 .231-.069.17.17 0 0 1 .07.23 7.133 7.133 0 0 1-.46.74.168.168 0 0 1-.065.053.164.164 0 0 1-.082.017zm6.344-.48a.172.172 0 0 1-.116-.045l-.624-.578a.174.174 0 0 1-.054-.119.18.18 0 0 1 .01-.065.187.187 0 0 1 .035-.057.207.207 0 0 1 .054-.039.167.167 0 0 1 .187.031l.625.577a.171.171 0 0 1-.116.295zm-24.116-.678a.167.167 0 0 1-.097-.031.168.168 0 0 1-.067-.183.163.163 0 0 1 .054-.086l.651-.549a.167.167 0 0 1 .123-.038.17.17 0 0 1 .097.298l-.651.549a.165.165 0 0 1-.117.038zm18.579-.336a.148.148 0 0 1-.062-.011.174.174 0 0 1-.094-.091.157.157 0 0 1-.014-.064.149.149 0 0 1 .012-.066 6.78 6.78 0 0 0 .255-.789.176.176 0 0 1 .078-.105.182.182 0 0 1 .13-.019.17.17 0 0 1 .06.03.169.169 0 0 1 .062.18 7.133 7.133 0 0 1-.268.828c-.013.032-.036.06-.066.079s-.064.028-.1.027zm4.288-.142a.17.17 0 0 1-.116-.045l-.546-.506.018-.092.034-.195a.182.182 0 0 1 .022-.063.18.18 0 0 1 .107-.077.19.19 0 0 1 .067-.003.169.169 0 0 1 .139.132.168.168 0 0 1 .001.067l-.019.109.408.378c.017.015.03.034.04.054a.177.177 0 0 1 .005.13.187.187 0 0 1-.035.057.16.16 0 0 1-.132.052zm-21.566-.619a.166.166 0 0 1-.097-.03.17.17 0 0 1-.067-.183.176.176 0 0 1 .054-.087l.274-.232c-.013-.103-.026-.206-.037-.309a.171.171 0 0 1 .278-.15c.035.029.057.07.062.115.013.131.029.261.047.387l.013.093-.417.352a.171.171 0 0 1-.117.041zm21.231-.863h-.015a.172.172 0 0 1-.148-.117c-.007-.021-.009-.044-.007-.066.023-.277.036-.558.036-.836a.17.17 0 1 1 .34.001c0 .287-.013.577-.037.864a.172.172 0 0 1-.176.151zm-3.53-.017h-.021a.179.179 0 0 1-.064-.021.174.174 0 0 1-.079-.103.17.17 0 0 1-.005-.067c.035-.274.054-.55.055-.827a.173.173 0 0 1 .171-.169c.022 0 .044.005.065.013a.175.175 0 0 1 .104.158 7.007 7.007 0 0 1-.058.869.165.165 0 0 1-.06.105.166.166 0 0 1-.115.039zm-17.463-.663a.171.171 0 0 1-.119-.048.173.173 0 0 1-.051-.119v-.219c0-.214.006-.43.019-.644a.172.172 0 0 1 .298-.103c.03.034.045.078.042.123-.012.207-.018.417-.018.624v.212c0 .046-.017.089-.048.122s-.074.051-.12.052zm20.99-1.025a.168.168 0 0 1-.115-.045.165.165 0 0 1-.055-.11c-.016-.208-.04-.419-.069-.627l-.013-.093.232-.195a.17.17 0 0 1 .238.022.17.17 0 0 1-.018.238l-.088.077c.024.185.044.371.059.555a.171.171 0 0 1-.155.183zm-3.526-.015a.168.168 0 0 1-.113-.043.169.169 0 0 1-.057-.107 6.681 6.681 0 0 0-.148-.816.171.171 0 0 1 .127-.2.17.17 0 0 1 .126.019.17.17 0 0 1 .078.1c.069.282.121.569.155.857a.163.163 0 0 1-.005.066.17.17 0 0 1-.144.123zm-13.697-.574a.193.193 0 0 1-.034 0 .2.2 0 0 1-.062-.026.187.187 0 0 1-.046-.047.16.16 0 0 1-.025-.062.163.163 0 0 1 0-.066c.061-.285.138-.566.232-.841a.174.174 0 0 1 .087-.086.171.171 0 0 1 .236.19c-.089.262-.162.53-.218.801a.17.17 0 0 1-.17.137zm-3.662-.078a.104.104 0 0 1-.025 0 .158.158 0 0 1-.063-.022.167.167 0 0 1-.081-.17c.017-.118.036-.232.056-.353l-.232-.213a.17.17 0 0 1-.039-.053.168.168 0 0 1 .031-.187.17.17 0 0 1 .24-.009l.368.34-.017.093c-.027.143-.051.286-.072.431a.17.17 0 0 1-.167.143zm21.626-.651a.172.172 0 0 1-.098-.03.17.17 0 0 1-.012-.27l.65-.55a.174.174 0 0 1 .124-.04c.045.004.087.026.116.06a.17.17 0 0 1-.02.24l-.65.55a.167.167 0 0 1-.111.039zm-4.672-.341a.165.165 0 0 1-.094-.031.162.162 0 0 1-.061-.078 6.753 6.753 0 0 0-.342-.756.168.168 0 0 1 .002-.117.164.164 0 0 1 .077-.089.167.167 0 0 1 .116-.018c.039.008.075.03.1.061.135.257.255.522.358.794.011.026.014.054.011.081a.175.175 0 0 1-.028.077.173.173 0 0 1-.142.074zm-17.805-.301a.166.166 0 0 1-.116-.045l-.625-.578a.168.168 0 0 1-.054-.119.17.17 0 0 1 .164-.176.167.167 0 0 1 .122.045l.625.579a.165.165 0 0 1 .051.087.171.171 0 0 1-.167.207zm5.057-.236a.17.17 0 0 1-.163-.115.175.175 0 0 1 .008-.129 7.17 7.17 0 0 1 .425-.761.169.169 0 0 1 .107-.081.2.2 0 0 1 .069-.003.172.172 0 0 1 .139.136.178.178 0 0 1-.001.069.158.158 0 0 1-.028.062 7.034 7.034 0 0 0-.403.725.17.17 0 0 1-.154.096zm18.453-.32a.167.167 0 0 1-.155-.108l-.31-.793a.177.177 0 0 1 .006-.128.17.17 0 0 1 .312.005l.31.793a.162.162 0 0 1 .011.065.17.17 0 0 1-.175.166zm-6.497-.644c-.028 0-.055-.006-.079-.019s-.045-.031-.061-.054a6.709 6.709 0 0 0-.515-.65.173.173 0 0 1-.048-.124.188.188 0 0 1 .016-.066.17.17 0 0 1 .285-.037c.195.216.376.445.543.683a.173.173 0 0 1-.043.237.167.167 0 0 1-.099.029zm-17.766-.09a.181.181 0 0 1-.069-.014.171.171 0 0 1-.087-.225l.344-.778a.164.164 0 0 1 .036-.061.17.17 0 0 1 .252 0 .166.166 0 0 1 .043.131.155.155 0 0 1-.021.067l-.343.778a.174.174 0 0 1-.155.102zm6.724-.377a.168.168 0 0 1-.108-.039.17.17 0 0 1-.055-.181.173.173 0 0 1 .032-.058c.186-.224.386-.436.598-.635a.172.172 0 0 1 .231.016.17.17 0 0 1 .001.231c-.201.19-.391.392-.568.605a.182.182 0 0 1-.058.045.18.18 0 0 1-.072.016zm16.922-.476a.167.167 0 0 1-.155-.108l-.31-.793a.172.172 0 0 1 .094-.228.173.173 0 0 1 .19.046.19.19 0 0 1 .034.06l.309.792a.163.163 0 0 1-.016.157.167.167 0 0 1-.139.075zm-7.016-.321a.172.172 0 0 1-.112-.042 6.662 6.662 0 0 0-.659-.505.173.173 0 0 1-.072-.109.165.165 0 0 1 .001-.066.17.17 0 0 1 .025-.061.175.175 0 0 1 .176-.072.173.173 0 0 1 .061.026c.241.162.472.34.692.53a.174.174 0 0 1 .053.087.16.16 0 0 1-.006.101.169.169 0 0 1-.159.11zm-8.667-.365a.168.168 0 0 1-.165-.118.168.168 0 0 1 .064-.192c.235-.171.48-.328.734-.47a.171.171 0 0 1 .238.062c.011.02.018.042.021.065a.173.173 0 0 1-.093.17 6.862 6.862 0 0 0-.697.448.171.171 0 0 1-.102.035zm-7.276-.017a.172.172 0 0 1-.159-.109.162.162 0 0 1-.011-.066c0-.022.005-.044.014-.064l.344-.778a.37.37 0 0 1 .336-.22h.032l.241.02a.17.17 0 0 1-.03.339l-.241-.02a.03.03 0 0 0-.016.004.039.039 0 0 0-.011.011l-.344.778a.167.167 0 0 1-.154.105zm19.906-.31-.053-.077a9.293 9.293 0 0 0-.326-.45.17.17 0 0 1 .157-.272c.045.006.086.03.113.065.097.127.192.257.284.387l.192-.008a.17.17 0 0 1 .132.286.172.172 0 0 1-.119.055zm1.225-.047a.17.17 0 0 1-.114-.051.168.168 0 0 1-.005-.233.173.173 0 0 1 .113-.055l.852-.033a.163.163 0 0 1 .162.098c.009.02.014.043.014.065a.163.163 0 0 1-.045.122.167.167 0 0 1-.118.054l-.852.033zm-6.594-.214a.177.177 0 0 1-.078-.019 6.155 6.155 0 0 0-.761-.33.17.17 0 0 1 .117-.32 7.629 7.629 0 0 1 .799.347.17.17 0 0 1-.077.322zm-12.053-.167h-.015l-.852-.071a.165.165 0 0 1-.066-.017.167.167 0 0 1-.089-.1.173.173 0 0 1 .011-.133.173.173 0 0 1 .173-.089l.852.07a.171.171 0 0 1 .154.177.17.17 0 0 1-.168.163zm6.279-.078a.171.171 0 0 1-.151-.25.174.174 0 0 1 .086-.077c.27-.11.545-.203.826-.279a.17.17 0 0 1 .152.3.168.168 0 0 1-.063.028c-.267.073-.53.162-.786.266a.181.181 0 0 1-.065.017zm-5.583-.2a.171.171 0 0 1-.133-.277c.182-.222.375-.44.574-.648a.17.17 0 0 1 .246.236c-.193.2-.38.412-.555.627a.175.175 0 0 1-.059.049.175.175 0 0 1-.075.018zm9.759-.137a.173.173 0 0 1-.039-.004 6.68 6.68 0 0 0-.819-.136.168.168 0 0 1-.114-.063.166.166 0 0 1-.037-.124.17.17 0 0 1 .187-.152c.29.03.577.078.861.143a.17.17 0 0 1 .076.294.171.171 0 0 1-.115.042zm-2.538-.106a.17.17 0 0 1-.024-.34c.288-.04.578-.064.869-.07a.172.172 0 0 1 .173.167.17.17 0 0 1-.167.174 6.77 6.77 0 0 0-.827.067zm8.715-.166c-.024 0-.048-.005-.07-.014s-.041-.024-.057-.041a11.65 11.65 0 0 0-.587-.598.169.169 0 0 1-.047-.116.166.166 0 0 1 .046-.118.168.168 0 0 1 .114-.053.173.173 0 0 1 .12.04c.209.196.413.404.606.618a.17.17 0 0 1-.012.24.169.169 0 0 1-.114.047zm-14.758-.816a.17.17 0 0 1-.113-.297c.216-.19.441-.374.671-.546a.176.176 0 0 1 .127-.032.169.169 0 0 1 .112.066.187.187 0 0 1 .029.06c.005.022.006.044.003.067s-.01.043-.022.062a.162.162 0 0 1-.044.05c-.223.166-.442.344-.651.528a.172.172 0 0 1-.113.046zm13.517-.347a.169.169 0 0 1-.106-.037c-.072-.057-.144-.113-.217-.168l-.078-.056.055-.664a.16.16 0 0 1 .019-.064.165.165 0 0 1 .1-.083.17.17 0 0 1 .221.177l-.041.476.15.117a.174.174 0 0 1 .057.086c.01.033.009.07-.003.103-.011.033-.033.062-.062.082s-.063.032-.098.032zm-12.512-.855a.17.17 0 0 1-.169-.164l-.033-.85a.171.171 0 0 1 .326-.078c.009.02.014.042.015.065l.032.85a.164.164 0 0 1-.011.066.16.16 0 0 1-.034.057.174.174 0 0 1-.119.055zm12.41-.733h-.014a.169.169 0 0 1-.155-.184l.07-.85a.18.18 0 0 1 .018-.064.168.168 0 0 1 .1-.084.172.172 0 0 1 .182.054.169.169 0 0 1 .039.123l-.071.85a.174.174 0 0 1-.053.114.172.172 0 0 1-.117.046zm-4.6-.536h-.031a10.554 10.554 0 0 0-.83-.115.17.17 0 0 1-.092-.3.172.172 0 0 1 .125-.038c.287.027.575.068.857.118a.171.171 0 0 1 .138.182.171.171 0 0 1-.167.155zm-3.362-.128a.165.165 0 0 1-.072-.015.166.166 0 0 1-.059-.045l-.55-.65a.167.167 0 0 1-.042-.125.181.181 0 0 1 .018-.064.166.166 0 0 1 .101-.085.17.17 0 0 1 .183.054l.551.65a.166.166 0 0 1 .038.087.168.168 0 0 1-.077.166.168.168 0 0 1-.091.027zm.816-.012a.17.17 0 0 1-.012-.34c.289-.02.579-.026.865-.023a.17.17 0 1 1 0 .34c-.276-.004-.558 0-.837.023zm-5.328-.29a.169.169 0 0 1-.17-.164l-.011-.286a.377.377 0 0 1 .232-.356l.299-.116a.17.17 0 0 1 .222.228.17.17 0 0 1-.099.09l-.299.115a.025.025 0 0 0-.012.01.028.028 0 0 0-.005.015l.011.287a.172.172 0 0 1-.045.122.173.173 0 0 1-.119.055zm8.476-.121a.165.165 0 0 1-.115-.046.156.156 0 0 1-.039-.053.161.161 0 0 1-.005-.13.161.161 0 0 1 .035-.056l.579-.624a.168.168 0 0 1 .184-.043c.021.007.04.019.057.034a.189.189 0 0 1 .039.054.18.18 0 0 1 .015.065c.001.022-.003.044-.011.065s-.019.04-.035.057l-.578.624a.183.183 0 0 1-.057.042.18.18 0 0 1-.07.016zm3.516-.273a.16.16 0 0 1-.068-.015l-.78-.343a.173.173 0 0 1-.103-.093.181.181 0 0 1 0-.138.171.171 0 0 1 .241-.078l.779.342a.175.175 0 0 1 .084.078.171.171 0 0 1-.153.249zm-10.784-.507a.172.172 0 0 1-.167-.139.173.173 0 0 1 .019-.114.168.168 0 0 1 .087-.076l.794-.31a.171.171 0 0 1 .226.096c.008.021.012.044.011.067s-.006.045-.015.066a.177.177 0 0 1-.099.089l-.794.31a.173.173 0 0 1-.063.015zm2.203-.095a.175.175 0 0 1-.072-.016.176.176 0 0 1-.058-.045l-.392-.464a.04.04 0 0 0-.009-.006.03.03 0 0 0-.011-.003l-.134-.315a.372.372 0 0 1 .414.105l.392.464a.176.176 0 0 1 .039.087.17.17 0 0 1-.015.094.167.167 0 0 1-.154.099zm7.022-.085a.162.162 0 0 1-.068-.014l-.629-.276a.185.185 0 0 1-.232-.086.175.175 0 0 1-.018-.064.16.16 0 0 1 .043-.122.154.154 0 0 1 .052-.039.377.377 0 0 1 .3 0l.628.277c.035.016.064.044.082.078s.023.074.015.112a.171.171 0 0 1-.166.136zM138.998 107.573a2.712 2.712 0 0 1-.628-.077.169.169 0 0 1-.106-.268.172.172 0 0 1 .184-.063c.258.061.525.079.789.052a.148.148 0 0 1 .066.006.177.177 0 0 1 .102.082.176.176 0 0 1 .013.13.18.18 0 0 1-.082.101.182.182 0 0 1-.064.019 2.52 2.52 0 0 1-.274.018zm1.076-.232a.17.17 0 0 1-.153-.246.172.172 0 0 1 .081-.079c.241-.111.462-.262.652-.446a.179.179 0 0 1 .122-.048c.045.001.088.02.12.052a.169.169 0 0 1-.005.241 2.726 2.726 0 0 1-.746.511.182.182 0 0 1-.069.011zm-2.446-.163a.172.172 0 0 1-.091-.026 2.23 2.23 0 0 1-.214-.155 2.727 2.727 0 0 1-.458-.453.168.168 0 0 1-.036-.126.16.16 0 0 1 .063-.113.168.168 0 0 1 .126-.036.155.155 0 0 1 .063.02c.02.011.037.025.051.043a2.354 2.354 0 0 0 .589.529.17.17 0 0 1 .071.191.172.172 0 0 1-.164.122zm3.649-.996a.16.16 0 0 1-.077-.019.166.166 0 0 1-.097-.166.192.192 0 0 1 .019-.066c.121-.236.201-.491.237-.754a.17.17 0 0 1 .126-.141.164.164 0 0 1 .066-.004c.023.003.044.01.063.022.02.011.036.026.05.044a.169.169 0 0 1 .033.126c-.041.3-.133.591-.271.861a.176.176 0 0 1-.06.067.176.176 0 0 1-.086.026zm-4.688-.309a.17.17 0 0 1-.099-.032.169.169 0 0 1-.062-.082 2.721 2.721 0 0 1-.155-.889c0-.023.004-.045.013-.066a.18.18 0 0 1 .036-.055.165.165 0 0 1 .121-.05c.022 0 .044.004.065.012a.172.172 0 0 1 .105.157c.001.265.047.528.134.779a.16.16 0 0 1 .009.065c-.001.023-.006.045-.016.065s-.023.038-.04.053-.036.026-.058.033a.145.145 0 0 1-.051.003zm4.916-1.342a.172.172 0 0 1-.167-.137 2.366 2.366 0 0 0-.28-.739.17.17 0 0 1 .19-.243.172.172 0 0 1 .104.071c.153.262.262.547.32.844a.172.172 0 0 1-.001.075.153.153 0 0 1-.034.067.166.166 0 0 1-.132.062zm-4.923-.328a.166.166 0 0 1-.154-.095.177.177 0 0 1-.008-.13c.184-.532.527-.995.983-1.326a.183.183 0 0 1 .127-.03.193.193 0 0 1 .062.023.18.18 0 0 1 .077.106.168.168 0 0 1 .002.067.172.172 0 0 1-.068.11c-.4.289-.7.695-.86 1.16a.17.17 0 0 1-.159.109zm4.079-1.113a.168.168 0 0 1-.111-.041 2.386 2.386 0 0 0-.679-.407.174.174 0 0 1-.088-.091.17.17 0 0 1 .213-.226c.244.096.473.226.68.387l.095.077c.035.03.056.071.059.116a.17.17 0 0 1-.04.124.158.158 0 0 1-.058.041.16.16 0 0 1-.069.014zm-2.401-.504a.175.175 0 0 1-.112-.041.173.173 0 0 1-.058-.105.171.171 0 0 1 .121-.187 2.75 2.75 0 0 1 .897-.113c.045 0 .088.019.119.052.032.032.049.076.048.121a.172.172 0 0 1-.173.167h-.007a2.43 2.43 0 0 0-.786.1.323.323 0 0 1-.044 0zM138.998 120.422c-.192 0-.388 0-.576-.011a.158.158 0 0 1-.064-.015.17.17 0 0 1-.089-.095.166.166 0 0 1-.01-.066c0-.022.005-.044.014-.065a.166.166 0 0 1 .096-.088.163.163 0 0 1 .066-.01c.285.01.57.013.852.007a.172.172 0 0 1 .162.232.192.192 0 0 1-.036.056.187.187 0 0 1-.055.038.165.165 0 0 1-.065.014l-.295.003zm1.157-.043a.172.172 0 0 1-.167-.164.17.17 0 0 1 .154-.176c.283-.02.569-.05.852-.087a.176.176 0 0 1 .123.036.171.171 0 0 1-.078.301c-.288.038-.58.068-.869.09zm-2.588-.023h-.015c-.289-.027-.58-.063-.868-.105a.177.177 0 0 1-.113-.067.17.17 0 0 1-.028-.061.148.148 0 0 1-.003-.066.169.169 0 0 1 .022-.063.18.18 0 0 1 .106-.077.168.168 0 0 1 .067-.003c.281.042.566.077.848.102a.17.17 0 0 1 .154.177.168.168 0 0 1-.053.115.165.165 0 0 1-.117.048zm4.296-.202a.167.167 0 0 1-.114-.045.17.17 0 0 1 .083-.292c.279-.053.56-.113.835-.181a.171.171 0 0 1 .125.022.176.176 0 0 1 .075.104.174.174 0 0 1-.018.126.175.175 0 0 1-.101.078c-.28.07-.567.131-.852.186zm-6.007-.054a.204.204 0 0 1-.035 0c-.284-.06-.57-.127-.852-.201-.043-.012-.08-.041-.103-.08s-.029-.085-.017-.129a.17.17 0 0 1 .209-.12c.272.073.552.138.831.196a.173.173 0 0 1 .102.067.171.171 0 0 1-.137.27zm7.683-.358a.173.173 0 0 1-.168-.145.176.176 0 0 1 .024-.116.173.173 0 0 1 .094-.072c.273-.083.542-.175.809-.273a.164.164 0 0 1 .132.005.163.163 0 0 1 .055.039.175.175 0 0 1 .031.188.175.175 0 0 1-.097.09c-.27.1-.548.193-.826.278a.163.163 0 0 1-.054.006zm-9.351-.087a.189.189 0 0 1-.053-.008 16.993 16.993 0 0 1-.821-.296.168.168 0 0 1-.097-.22.17.17 0 0 1 .22-.097c.264.103.534.2.804.289a.169.169 0 0 1 .115.189.174.174 0 0 1-.057.103.174.174 0 0 1-.111.04zm10.971-.51a.173.173 0 0 1-.166-.136.17.17 0 0 1 .098-.19c.261-.114.521-.232.774-.362.041-.02.088-.024.131-.01s.078.045.099.085.024.087.01.13-.044.079-.085.099c-.258.13-.524.255-.791.37a.169.169 0 0 1-.07.018zm-12.578-.12a.157.157 0 0 1-.071-.016c-.264-.12-.527-.25-.783-.386-.02-.011-.038-.025-.052-.042s-.025-.037-.032-.059c-.006-.021-.009-.044-.006-.066a.154.154 0 0 1 .019-.063.163.163 0 0 1 .1-.083c.022-.007.044-.009.066-.007a.158.158 0 0 1 .064.019c.251.133.508.26.766.377a.174.174 0 0 1 .082.079.173.173 0 0 1 .014.112.18.18 0 0 1-.06.097.174.174 0 0 1-.107.037zm14.121-.654a.17.17 0 0 1-.165-.126.169.169 0 0 1 .08-.192c.247-.141.491-.291.727-.445a.161.161 0 0 1 .062-.026.168.168 0 0 1 .202.136.168.168 0 0 1-.077.175c-.242.154-.492.309-.745.455a.167.167 0 0 1-.084.027zm-15.645-.154a.182.182 0 0 1-.088-.024 17.64 17.64 0 0 1-.735-.472.169.169 0 0 1-.076-.109.178.178 0 0 1-.001-.069.18.18 0 0 1 .076-.11.179.179 0 0 1 .131-.022.186.186 0 0 1 .062.029c.232.16.477.315.719.464a.167.167 0 0 1 .075.191.166.166 0 0 1-.061.09.164.164 0 0 1-.102.035zm17.093-.789a.17.17 0 0 1-.165-.224.16.16 0 0 1 .064-.085c.227-.168.454-.344.673-.525a.17.17 0 0 1 .273.148.17.17 0 0 1-.056.114c-.223.185-.455.365-.688.537a.165.165 0 0 1-.104.037zm-18.524-.18a.178.178 0 0 1-.104-.035l-.111-.087a13.675 13.675 0 0 1-.567-.464c-.017-.014-.031-.032-.041-.052s-.016-.042-.018-.064a.164.164 0 0 1 .041-.124c.014-.017.032-.031.052-.041s.042-.016.064-.018a.168.168 0 0 1 .124.041c.181.155.368.309.555.453l.109.084c.03.021.052.052.064.087a.178.178 0 0 1 0 .107.174.174 0 0 1-.065.086.178.178 0 0 1-.103.03zm19.85-.917a.159.159 0 0 1-.125-.054.167.167 0 0 1-.045-.122.165.165 0 0 1 .054-.118c.208-.193.413-.393.609-.597a.173.173 0 0 1 .242-.005.17.17 0 0 1 .004.241c-.201.208-.411.414-.62.61a.166.166 0 0 1-.118.045zm-21.16-.206a.17.17 0 0 1-.118-.047c-.21-.201-.416-.409-.614-.619a.175.175 0 0 1-.035-.057.177.177 0 0 1 .005-.13.186.186 0 0 1 .039-.054.157.157 0 0 1 .057-.034.16.16 0 0 1 .065-.011.174.174 0 0 1 .119.054c.193.206.395.411.599.607a.165.165 0 0 1 .049.087.16.16 0 0 1-.008.099c-.013.032-.035.059-.063.078s-.061.029-.095.028zm22.358-1.034a.17.17 0 0 1-.155-.099c-.014-.029-.019-.062-.014-.095a.17.17 0 0 1 .04-.087c.166-.192.329-.39.484-.588l.056-.072a.169.169 0 0 1 .181-.068.16.16 0 0 1 .107.081c.011.02.018.042.021.064.003.023.001.046-.006.068s-.017.043-.032.06l-.059.078c-.155.202-.324.404-.493.601a.173.173 0 0 1-.129.057zm-23.536-.227a.164.164 0 0 1-.072-.016.163.163 0 0 1-.059-.045 18.945 18.945 0 0 1-.542-.685.168.168 0 0 1-.036-.128.152.152 0 0 1 .022-.065.169.169 0 0 1 .288-.01c.168.228.346.453.527.671a.167.167 0 0 1 .038.087c.005.032 0 .065-.014.094s-.036.054-.063.071a.175.175 0 0 1-.092.026zm24.59-1.138a.17.17 0 0 1-.169-.181.177.177 0 0 1 .029-.086c.161-.232.316-.474.465-.716a.166.166 0 0 1 .105-.081.156.156 0 0 1 .068-.004.164.164 0 0 1 .064.023.17.17 0 0 1 .078.107.173.173 0 0 1-.024.131c-.15.248-.31.494-.474.733a.172.172 0 0 1-.141.074zm.897-1.474a.176.176 0 0 1-.078-.019.178.178 0 0 1-.052-.043.16.16 0 0 1-.031-.059c-.007-.021-.009-.044-.007-.066a.155.155 0 0 1 .02-.064c.133-.25.261-.507.38-.765a.17.17 0 0 1 .226-.083.171.171 0 0 1 .084.227c-.123.263-.254.525-.388.781a.17.17 0 0 1-.15.091zm.725-1.565a.188.188 0 0 1-.062-.011.171.171 0 0 1-.097-.221c.105-.263.203-.532.292-.802a.173.173 0 0 1 .086-.098.168.168 0 0 1 .13-.009.17.17 0 0 1 .108.215c-.091.274-.192.551-.299.819a.169.169 0 0 1-.157.107zm.542-1.635a.167.167 0 0 1-.103-.035.174.174 0 0 1-.066-.113.183.183 0 0 1 .005-.066c.078-.273.141-.552.2-.83a.174.174 0 0 1 .073-.112.174.174 0 0 1 .063-.025.152.152 0 0 1 .067 0 .177.177 0 0 1 .063.027.17.17 0 0 1 .046.05.147.147 0 0 1 .024.063.156.156 0 0 1-.003.068c-.06.284-.128.568-.204.851-.01.035-.032.065-.061.087s-.065.034-.101.035zM123.78 102.547h-.027a.171.171 0 0 1-.141-.195c.045-.281.099-.565.16-.843a.172.172 0 0 1 .203-.13.167.167 0 0 1 .107.074.165.165 0 0 1 .023.128c-.059.273-.113.55-.155.825a.172.172 0 0 1-.059.102.177.177 0 0 1-.111.039zm.364-1.658a.174.174 0 0 1-.148-.086.163.163 0 0 1-.016-.129c.077-.274.161-.55.253-.82a.161.161 0 0 1 .032-.062.166.166 0 0 1 .187-.055.163.163 0 0 1 .1.09c.01.022.015.045.016.068a.175.175 0 0 1-.013.068c-.089.264-.172.533-.247.802a.164.164 0 0 1-.061.089.169.169 0 0 1-.103.035zm.542-1.607a.17.17 0 0 1-.155-.232c.106-.263.221-.528.343-.786a.172.172 0 0 1 .315.013.169.169 0 0 1-.005.13c-.12.254-.233.513-.336.774a.168.168 0 0 1-.159.101zm.721-1.536a.172.172 0 0 1-.161-.122c-.006-.022-.009-.044-.006-.067a.178.178 0 0 1 .019-.064c.135-.25.279-.5.429-.744a.17.17 0 0 1 .29.177c-.145.239-.286.484-.418.728a.173.173 0 0 1-.15.092zm.889-1.448a.168.168 0 0 1-.088-.025.164.164 0 0 1-.063-.066.168.168 0 0 1 .011-.176c.161-.232.331-.464.506-.696.013-.018.03-.034.05-.045s.041-.02.064-.023a.169.169 0 0 1 .172.085c.011.02.018.042.021.064a.176.176 0 0 1-.037.127c-.172.221-.338.45-.496.678a.164.164 0 0 1-.061.056.166.166 0 0 1-.079.02zm1.038-1.343a.17.17 0 0 1-.091-.028.163.163 0 0 1-.063-.072c-.014-.03-.019-.062-.014-.095a.168.168 0 0 1 .039-.087c.187-.216.381-.428.579-.633a.17.17 0 0 1 .291.176.171.171 0 0 1-.046.056c-.193.2-.387.409-.565.618a.173.173 0 0 1-.13.064zm23.259-.1a.168.168 0 0 1-.128-.057c-.185-.21-.378-.417-.573-.615a.17.17 0 0 1 .243-.238c.199.202.397.413.586.628a.17.17 0 0 1-.016.24.169.169 0 0 1-.112.043zm-22.081-1.122a.173.173 0 0 1-.124-.054.168.168 0 0 1-.045-.123.168.168 0 0 1 .054-.118c.208-.193.424-.387.644-.567a.171.171 0 0 1 .24.023.17.17 0 0 1-.022.24c-.215.178-.427.364-.63.553a.173.173 0 0 1-.117.046zm20.89-.087a.171.171 0 0 1-.115-.044 16.066 16.066 0 0 0-.636-.548.168.168 0 0 1 .025-.283.173.173 0 0 1 .19.02c.221.18.439.368.65.56a.167.167 0 0 1 .044.186.169.169 0 0 1-.158.109zm-19.584-.998a.171.171 0 0 1-.165-.117c-.012-.034-.012-.072 0-.106s.034-.065.064-.086c.228-.17.464-.335.704-.492a.171.171 0 0 1 .23.052.17.17 0 0 1-.043.232 17.38 17.38 0 0 0-.688.481.167.167 0 0 1-.102.036zm18.266-.077a.166.166 0 0 1-.1-.032 13.96 13.96 0 0 0-.697-.477.167.167 0 0 1-.073-.107.17.17 0 0 1 .259-.178c.238.154.477.318.708.487a.169.169 0 0 1 .064.192.166.166 0 0 1-.063.086.168.168 0 0 1-.102.031zm-16.848-.86a.17.17 0 0 1-.086-.317c.247-.142.501-.28.755-.41a.17.17 0 0 1 .229.074.17.17 0 0 1-.074.229c-.249.126-.497.262-.738.403a.17.17 0 0 1-.086.024zm15.422-.063a.168.168 0 0 1-.084-.023 15.88 15.88 0 0 0-.741-.397.164.164 0 0 1-.052-.041.173.173 0 0 1-.023-.188.172.172 0 0 1 .23-.075c.253.127.508.264.756.406a.17.17 0 0 1 .081.191.172.172 0 0 1-.165.127zm-13.909-.707a.17.17 0 0 1-.069-.326c.26-.115.527-.224.795-.325a.174.174 0 0 1 .131.004.171.171 0 0 1 .085.225.174.174 0 0 1-.095.09c-.262.098-.523.205-.775.317a.166.166 0 0 1-.072.017zm12.392-.054a.178.178 0 0 1-.068-.014 12.76 12.76 0 0 0-.78-.31.178.178 0 0 1-.057-.034.187.187 0 0 1-.039-.054.179.179 0 0 1-.005-.13.178.178 0 0 1 .035-.057.167.167 0 0 1 .184-.044c.266.098.535.206.798.32a.17.17 0 0 1-.068.326zm-10.801-.546a.168.168 0 0 1-.11-.042.167.167 0 0 1-.057-.102.172.172 0 0 1 .115-.188c.272-.087.55-.166.826-.237a.171.171 0 0 1 .185.25.172.172 0 0 1-.1.08c-.271.07-.542.147-.808.232a.17.17 0 0 1-.053.01zm9.207-.043a.16.16 0 0 1-.05-.008 29.25 29.25 0 0 0-.81-.224.17.17 0 0 1-.104-.078.172.172 0 0 1 .058-.232.171.171 0 0 1 .128-.02c.278.069.556.146.828.232a.166.166 0 0 1 .093.072.168.168 0 0 1-.032.219.172.172 0 0 1-.111.041zm-7.562-.38a.172.172 0 0 1-.167-.153.169.169 0 0 1 .134-.183c.279-.056.564-.104.846-.145a.17.17 0 0 1 .049.336 15.725 15.725 0 0 0-.864.148zm5.913-.028a.155.155 0 0 1-.032 0 15.555 15.555 0 0 0-.83-.134.175.175 0 0 1-.113-.065c-.013-.018-.023-.038-.029-.06s-.007-.044-.004-.066a.17.17 0 0 1 .066-.112.17.17 0 0 1 .125-.034c.284.038.569.084.848.137a.168.168 0 0 1 .104.065.167.167 0 0 1-.021.227.17.17 0 0 1-.114.045zm-4.233-.206a.17.17 0 0 1-.169-.163.168.168 0 0 1 .042-.119.169.169 0 0 1 .112-.057c.284-.025.572-.043.857-.052a.162.162 0 0 1 .123.045.163.163 0 0 1 .053.12.17.17 0 0 1-.164.175c-.279.01-.561.026-.839.05zm2.547-.013h-.013c-.28-.022-.561-.036-.84-.042a.172.172 0 0 1-.155-.109.163.163 0 0 1-.011-.065.161.161 0 0 1 .053-.119.17.17 0 0 1 .121-.047c.284.006.573.02.858.043a.172.172 0 0 1 .113.057.177.177 0 0 1 .042.119.172.172 0 0 1-.051.115.173.173 0 0 1-.117.048z" opacity=".7"/><path fill="#7d97f4" d="m127.784 60.489.472.077a.22.22 0 0 1 .088.4.222.222 0 0 1-.166.036l-.472-.078a.22.22 0 0 1-.147-.09.233.233 0 0 1-.036-.08.218.218 0 0 1 .173-.266.223.223 0 0 1 .088.002zM129.363 60.778l.469.097c.057.012.108.046.14.095s.044.11.032.167a.222.222 0 0 1-.262.172l-.465-.098c-.055-.015-.102-.05-.132-.098s-.04-.106-.028-.161a.22.22 0 0 1 .25-.174zM130.929 61.124l.465.114a.223.223 0 0 1 .155.266.225.225 0 0 1-.097.135.224.224 0 0 1-.164.03l-.465-.115a.218.218 0 0 1-.078-.037.215.215 0 0 1-.088-.144c-.005-.03-.003-.058.004-.087a.218.218 0 0 1 .268-.161zM132.481 61.526l.465.131a.225.225 0 0 1 .133.106.216.216 0 0 1 .019.168.222.222 0 0 1-.275.152l-.46-.13a.223.223 0 0 1-.134-.106.225.225 0 0 1 .086-.302.225.225 0 0 1 .17-.02zM134.019 61.984l.455.148a.22.22 0 0 1 .13.11.228.228 0 0 1 .014.17.223.223 0 0 1-.194.152.225.225 0 0 1-.087-.01l-.455-.147a.222.222 0 1 1 .138-.423zM135.536 62.499l.45.164c.056.02.101.062.125.116.025.054.028.115.007.17a.225.225 0 0 1-.287.132l-.45-.165a.224.224 0 0 1-.126-.115.224.224 0 0 1 .281-.302zM137.037 63.07l.443.18a.224.224 0 0 1 .002.411.224.224 0 0 1-.171.002l-.444-.181a.224.224 0 0 1-.111-.286.225.225 0 0 1 .281-.127zM138.509 63.697l.437.198a.227.227 0 0 1 .116.125c.011.027.015.056.014.086s-.007.058-.02.084a.212.212 0 0 1-.051.07.222.222 0 0 1-.245.04l-.436-.197a.221.221 0 0 1 .017-.408.223.223 0 0 1 .168.002zM139.961 64.38l.427.215a.223.223 0 1 1-.201.4l-.428-.215a.225.225 0 0 1-.112-.13.22.22 0 0 1 .013-.17.224.224 0 0 1 .301-.1zM141.387 65.12l.419.231a.22.22 0 0 1 .113.134.205.205 0 0 1 .008.09.214.214 0 0 1-.027.084.22.22 0 0 1-.227.113.228.228 0 0 1-.085-.03l-.418-.23a.23.23 0 0 1-.107-.135.231.231 0 0 1 .019-.17.235.235 0 0 1 .057-.066.219.219 0 0 1 .165-.047.226.226 0 0 1 .083.026zM142.778 65.914l.409.248c.052.03.089.08.103.138.015.058.006.12-.025.17s-.081.089-.139.103a.227.227 0 0 1-.171-.025l-.409-.248a.221.221 0 0 1-.103-.139c-.015-.058-.006-.119.025-.17a.228.228 0 0 1 .31-.077zM144.139 66.762l.401.261c.048.034.08.084.091.142a.223.223 0 0 1-.171.26.224.224 0 0 1-.166-.026l-.4-.26a.226.226 0 0 1-.097-.143.218.218 0 0 1 .032-.169.225.225 0 0 1 .23-.097.227.227 0 0 1 .081.033zM145.47 67.65l.394.271a.22.22 0 0 1 .094.144.235.235 0 0 1-.001.088.257.257 0 0 1-.035.08.23.23 0 0 1-.233.093.223.223 0 0 1-.081-.035l-.395-.271a.222.222 0 0 1-.093-.145.223.223 0 0 1 .181-.261c.059-.011.12.002.169.036zM146.782 68.564l.387.277a.217.217 0 0 1 .06.064.222.222 0 0 1-.071.31.225.225 0 0 1-.251-.007l-.387-.276a.225.225 0 0 1 .093-.406c.059-.01.12.004.169.039zM148.079 69.493l.388.28a.225.225 0 0 1-.099.4.225.225 0 0 1-.166-.034l-.388-.28a.233.233 0 0 1-.096-.148.227.227 0 0 1 .106-.233.227.227 0 0 1 .255.015zM149.375 70.425l.388.28a.23.23 0 0 1 .091.147.225.225 0 0 1-.187.26.228.228 0 0 1-.169-.04l-.387-.28c-.048-.036-.079-.088-.088-.147s.005-.118.04-.166a.226.226 0 0 1 .312-.054zM150.667 71.351l.387.275a.225.225 0 0 1-.091.407.226.226 0 0 1-.169-.038l-.391-.275a.223.223 0 0 1-.055-.315.227.227 0 0 1 .316-.054zM151.976 72.258l.396.267a.226.226 0 1 1-.254.375l-.396-.267a.221.221 0 0 1-.103-.145.213.213 0 0 1-.001-.09.232.232 0 0 1 .1-.148.22.22 0 0 1 .175-.03.23.23 0 0 1 .083.038zM153.301 73.137l.404.256a.228.228 0 0 1-.072.416.23.23 0 0 1-.173-.03l-.403-.257a.216.216 0 0 1-.066-.06.224.224 0 0 1 .137-.354.229.229 0 0 1 .173.033zM154.652 73.97l.414.242a.228.228 0 1 1-.233.392l-.414-.241a.226.226 0 0 1-.104-.14.228.228 0 0 1 .337-.252zM156.028 74.748l.425.221a.23.23 0 0 1 .108.313.226.226 0 0 1-.233.12.231.231 0 0 1-.087-.03l-.424-.221a.23.23 0 0 1-.128-.223.222.222 0 0 1 .026-.087.22.22 0 0 1 .057-.07.226.226 0 0 1 .256-.023zM157.446 75.452l.437.196a.23.23 0 0 1 .112.3.23.23 0 0 1-.299.116l-.437-.196a.226.226 0 0 1-.111-.3.228.228 0 0 1 .298-.116zM158.901 76.065l.449.166a.23.23 0 0 1 .164.11c.018.03.028.063.032.097a.227.227 0 0 1-.068.186.228.228 0 0 1-.283.035l-.449-.166a.234.234 0 0 1-.1-.278.232.232 0 0 1 .255-.15zM160.396 76.569l.465.129a.235.235 0 0 1 .111.113c.022.05.026.106.012.158a.235.235 0 0 1-.247.169l-.464-.129a.232.232 0 0 1 .123-.44zM161.922 76.945l.471.086a.233.233 0 0 1 .149.26.231.231 0 0 1-.233.19l-.47-.087a.229.229 0 0 1-.176-.085.232.232 0 0 1-.046-.089.24.24 0 0 1 .036-.191.231.231 0 0 1 .269-.084zM163.48 77.177l.477.041a.237.237 0 0 1 .182.07.23.23 0 0 1 .065.181.24.24 0 0 1-.029.095.242.242 0 0 1-.158.113.231.231 0 0 1-.099-.002l-.477-.041a.234.234 0 0 1-.134-.09.232.232 0 0 1 .173-.367zM165.049 77.254l.479-.01a.233.233 0 0 1 .253.32.227.227 0 0 1-.144.129.234.234 0 0 1-.099.008l-.479.011a.233.233 0 0 1-.202-.225.228.228 0 0 1 .052-.152.235.235 0 0 1 .14-.081zM166.616 77.158l.475-.063a.231.231 0 0 1 .059.456l-.475.062a.23.23 0 0 1-.151-.058.23.23 0 0 1-.076-.144.226.226 0 0 1 .036-.158.234.234 0 0 1 .132-.095zM168.165 76.9l.464-.11a.237.237 0 0 1 .193.008.234.234 0 0 1 .12.152.219.219 0 0 1 .002.098.219.219 0 0 1-.039.09.233.233 0 0 1-.167.096l-.465.11a.231.231 0 0 1-.107-.446zM169.68 76.483l.453-.155a.233.233 0 0 1 .333.23.234.234 0 0 1-.183.205l-.452.155a.237.237 0 0 1-.19.004.23.23 0 0 1-.129-.139.224.224 0 0 1 .017-.188.233.233 0 0 1 .151-.113zM171.15 75.92l.436-.197a.23.23 0 0 1 .272.026.233.233 0 0 1 .058.078.235.235 0 0 1-.139.316l-.435.197a.236.236 0 0 1-.273-.026.229.229 0 0 1-.078-.172.229.229 0 0 1 .076-.173.229.229 0 0 1 .083-.049zM172.562 75.224l.416-.231a.233.233 0 0 1 .341.26.232.232 0 0 1-.109.14l-.416.237a.232.232 0 0 1-.228-.402zM173.906 74.409l.395-.271a.234.234 0 0 1 .313.066.231.231 0 0 1-.05.315l-.395.27a.234.234 0 0 1-.309-.069.23.23 0 0 1-.038-.165.228.228 0 0 1 .084-.146zM175.179 73.48l.371-.303a.235.235 0 0 1 .173-.06.234.234 0 0 1 .163.085.228.228 0 0 1 .02.265.225.225 0 0 1-.063.069l-.37.302a.229.229 0 0 1-.174.06.233.233 0 0 1-.183-.35.239.239 0 0 1 .063-.069zM176.372 72.449l.345-.331a.232.232 0 0 1 .323.334l-.345.331a.232.232 0 0 1-.329-.006.232.232 0 0 1 .007-.328zM177.475 71.326l.317-.358a.238.238 0 0 1 .161-.078.235.235 0 0 1 .223.13.229.229 0 0 1-.035.256l-.318.359a.233.233 0 0 1-.348-.31zM178.487 70.12l.288-.381a.227.227 0 0 1 .244-.085.233.233 0 0 1 .168.284.23.23 0 0 1-.04.08l-.288.383a.228.228 0 0 1-.244.085.234.234 0 0 1-.172-.193.213.213 0 0 1 .005-.09.244.244 0 0 1 .039-.082zM179.4 68.834l.256-.405a.234.234 0 0 1 .395.25l-.257.404a.234.234 0 0 1-.425-.073.236.236 0 0 1 .031-.176zM180.207 67.48l.221-.422a.241.241 0 0 1 .138-.115.234.234 0 0 1 .277.331l-.222.423a.24.24 0 0 1-.138.114.231.231 0 0 1-.178-.016.24.24 0 0 1-.071-.057.24.24 0 0 1-.053-.17.242.242 0 0 1 .026-.087zM180.899 66.066l.185-.44a.235.235 0 0 1 .433.002.236.236 0 0 1-.001.179l-.186.44a.233.233 0 0 1-.307.125.236.236 0 0 1-.143-.217.23.23 0 0 1 .019-.089zM181.463 64.6l.146-.456a.235.235 0 0 1 .447.143l-.147.456a.224.224 0 0 1-.116.136.235.235 0 0 1-.33-.28zM181.904 63.087l.109-.464a.232.232 0 0 1 .191-.177.235.235 0 0 1 .266.285l-.109.464a.232.232 0 0 1-.191.177.23.23 0 0 1-.174-.04.234.234 0 0 1-.092-.245zM182.222 61.545l.078-.472a.233.233 0 0 1 .271-.194.234.234 0 0 1 .194.271l-.078.472a.234.234 0 0 1-.269.195.237.237 0 0 1-.196-.268zM182.429 59.983l.039-.476a.247.247 0 0 1 .083-.16.242.242 0 0 1 .26-.03.245.245 0 0 1 .117.137c.009.03.013.06.01.091l-.04.476a.242.242 0 0 1-.025.087.24.24 0 0 1-.137.115.231.231 0 0 1-.249-.071.23.23 0 0 1-.054-.17zM182.522 58.41l.007-.479a.234.234 0 0 1 .239-.232.234.234 0 0 1 .232.238l-.006.478a.24.24 0 0 1-.071.166.238.238 0 0 1-.334-.004.233.233 0 0 1-.067-.168zM182.506 56.832l-.026-.477a.234.234 0 0 1 .223-.248.234.234 0 0 1 .225.134.23.23 0 0 1 .023.089l.026.477a.217.217 0 0 1-.013.09.225.225 0 0 1-.047.08c-.02.023-.045.042-.073.055s-.059.021-.09.023a.23.23 0 0 1-.17-.06.23.23 0 0 1-.078-.163zM182.383 55.26l-.057-.475a.237.237 0 0 1 .119-.234.237.237 0 0 1 .35.178l.057.474a.237.237 0 0 1-.469.056zM182.161 53.697l-.086-.47a.243.243 0 0 1 .029-.188.23.23 0 0 1 .157-.107.241.241 0 0 1 .186.044.238.238 0 0 1 .093.165l.086.47a.24.24 0 0 1-.046.166.24.24 0 0 1-.317.058.24.24 0 0 1-.102-.139zM181.844 52.15l-.114-.464a.251.251 0 0 1-.008-.095.24.24 0 0 1 .274-.204.235.235 0 0 1 .194.187l.114.464a.235.235 0 0 1-.266.298.237.237 0 0 1-.194-.185zM181.44 50.623l-.141-.457a.235.235 0 0 1 .01-.187.238.238 0 0 1 .444.048l.14.456a.23.23 0 0 1-.017.18.236.236 0 0 1-.32.098.236.236 0 0 1-.116-.139zM180.942 49.123l-.166-.449a.233.233 0 0 1 .055-.266.236.236 0 0 1 .269-.04.244.244 0 0 1 .122.142l.167.448a.243.243 0 0 1-.007.182.239.239 0 0 1-.44-.017zM180.365 47.651l-.19-.438a.237.237 0 1 1 .436-.19l.191.44a.239.239 0 0 1-.124.312.238.238 0 0 1-.313-.124zM179.71 46.213l-.214-.428a.237.237 0 0 1 .109-.314.24.24 0 0 1 .318.102l.214.428a.238.238 0 0 1-.427.212zM178.977 44.812l-.232-.417a.242.242 0 0 1-.011-.173.24.24 0 0 1 .426-.059l.233.417a.245.245 0 0 1 .033.187.24.24 0 0 1-.449.044zM178.172 43.45l-.257-.403a.242.242 0 0 1 .006-.265.244.244 0 0 1 .154-.098.239.239 0 0 1 .243.107l.257.403a.237.237 0 0 1-.073.33.239.239 0 0 1-.33-.074zM177.297 42.133l-.279-.386a.242.242 0 0 1 .064-.318.242.242 0 0 1 .323.04l.278.386a.24.24 0 0 1-.387.278zM176.353 40.868l-.302-.37a.242.242 0 0 1-.055-.175.234.234 0 0 1 .087-.162.233.233 0 0 1 .264-.024.24.24 0 0 1 .072.06l.303.37a.242.242 0 0 1 .061.178.247.247 0 0 1-.087.166.24.24 0 0 1-.343-.042zM175.33 39.661l-.32-.354a.233.233 0 0 1 .184-.391c.063.003.121.03.163.076l.322.354a.234.234 0 0 1-.185.392.236.236 0 0 1-.163-.076zM174.249 38.502l-.334-.34a.223.223 0 0 1-.056-.076c-.013-.029-.02-.06-.021-.092s.005-.063.017-.092.03-.056.052-.078a.236.236 0 0 1 .264-.044.226.226 0 0 1 .074.057l.337.34a.236.236 0 0 1 .067.165.235.235 0 0 1-.235.23.233.233 0 0 1-.164-.069zM173.125 37.383l-.346-.33a.23.23 0 0 1 .161-.37.235.235 0 0 1 .156.039l.347.329a.238.238 0 0 1 .098.167.235.235 0 0 1-.145.238.234.234 0 0 1-.27-.072zM171.966 36.296l-.355-.32a.222.222 0 0 1-.067-.156.226.226 0 0 1 .211-.232.227.227 0 0 1 .161.052l.355.32c.023.02.041.044.053.07a.237.237 0 0 1 .01.173.23.23 0 0 1-.367.094zM170.771 35.233l-.362-.313a.222.222 0 0 1-.023-.316.225.225 0 0 1 .316-.023l.363.31a.226.226 0 0 1 .024.316.23.23 0 0 1-.241.067.235.235 0 0 1-.077-.043zM169.562 34.2l-.368-.309a.216.216 0 0 1-.079-.15.219.219 0 0 1 .2-.24.22.22 0 0 1 .161.05l.37.305a.224.224 0 0 1 .088.152c.004.03.002.06-.007.09a.235.235 0 0 1-.042.079.22.22 0 0 1-.246.067.227.227 0 0 1-.077-.046zM168.334 33.191l-.374-.298a.218.218 0 0 1 .112-.388.219.219 0 0 1 .161.047l.375.297a.214.214 0 0 1 .074.232.22.22 0 0 1-.348.111zM167.084 32.203l-.377-.293a.213.213 0 0 1 .103-.382.215.215 0 0 1 .159.043l.38.29a.207.207 0 0 1 .056.063.208.208 0 0 1 .022.164.214.214 0 0 1-.18.159.214.214 0 0 1-.16-.043zM165.823 31.233l-.382-.287a.207.207 0 0 1 .247-.33l.387.283a.207.207 0 0 1 .087.137.23.23 0 0 1-.003.083.211.211 0 0 1-.333.115zM164.545 30.283l-.388-.282a.197.197 0 0 1-.039-.273.198.198 0 0 1 .272-.05l.387.279a.2.2 0 0 1-.077.37.201.201 0 0 1-.155-.044zM163.256 29.352l-.387-.276a.19.19 0 0 1-.048-.266.193.193 0 0 1 .267-.048l.394.273a.19.19 0 0 1 .049.269.193.193 0 0 1-.269.048zM161.951 28.437l-.396-.27a.183.183 0 1 1 .207-.303l.398.265c.041.028.069.07.079.119a.187.187 0 0 1-.287.19zM160.629 27.549l-.399-.263a.176.176 0 0 1 .193-.295l.402.26a.177.177 0 0 1 .011.303.177.177 0 0 1-.139.026.181.181 0 0 1-.066-.03zM159.295 26.68l-.403-.258a.17.17 0 0 1-.053-.231.17.17 0 0 1 .233-.052l.406.252a.169.169 0 0 1 .048.046.19.19 0 0 1 .028.06.185.185 0 0 1 .002.067.175.175 0 0 1-.13.138.174.174 0 0 1-.129-.022zM157.948 25.83l-.407-.25c-.035-.021-.061-.055-.071-.095a.156.156 0 0 1 .232-.17l.412.244a.157.157 0 0 1 .072.097.158.158 0 0 1-.115.193.158.158 0 0 1-.12-.018zM156.587 25.006l-.413-.242a.143.143 0 0 1 .143-.247l.417.232a.148.148 0 0 1 .07.089.157.157 0 0 1 .004.057.172.172 0 0 1-.018.054.146.146 0 0 1-.201.055zM155.206 24.212l-.419-.232a.133.133 0 0 1-.053-.178.134.134 0 0 1 .078-.064.133.133 0 0 1 .101.01l.422.225a.136.136 0 0 1 .066.08.14.14 0 0 1-.01.102.142.142 0 0 1-.08.066.136.136 0 0 1-.103-.01zM153.807 23.455l-.425-.22c-.027-.014-.048-.038-.058-.068a.115.115 0 0 1 .074-.147.12.12 0 0 1 .09.006l.43.212a.132.132 0 0 1 .04.028.131.131 0 0 1 .025.042c.006.016.008.032.007.048s-.005.033-.012.048a.142.142 0 0 1-.03.038.124.124 0 0 1-.139.014zM152.387 22.741l-.356-.166a.102.102 0 0 1-.053-.057.103.103 0 0 1-.005-.04c0-.013.003-.026.009-.038a.105.105 0 0 1 .057-.052.1.1 0 0 1 .076.002l.36.16a.105.105 0 0 1-.008.192.106.106 0 0 1-.078 0zM151.299 19.341l-.634 2.479-1.41-1.495z"/><path fill="#91b3fa" d="m140.498 15.07 5.2 7.578a.652.652 0 0 0 .921.155l7.428-5.5a.26.26 0 0 0-.121-.463z"/><path fill="#7d97f4" d="m151.295 19.341-10.797-4.272 9.601 5.163-.147.696z"/><path fill="#7d97f4" d="m149.387 20.756 1.276 1.064-.562-1.588z"/><path fill="#91b3fa" d="M35.556 18.705c-1.47.477-2.938 1.293-3.488 2.259-2.463 4.36 1.633 10.376 3.085 14.373 2.499 6.865 3.452 14.354 1.91 21.545-1.67 7.791-2.653 15.46-1.594 23.437.546 4.108 1.778 8.467 4.48 11.735 5.105 6.175 17.832 2.68 20.202-4.306 1.89-5.569 1.056-11.608-.436-17.155-2.51-9.328-6.506-18.172-9.074-27.48-1.968-7.117-1.342-21.322-9.785-24.395-1.544-.563-3.74-.518-5.3-.013z"/><path fill="url(#b)" d="M48.674 106.501h-.01a.288.288 0 0 1-.222-.342c2.306-10.682 3.116-21.773 2.406-32.964a131.89 131.89 0 0 0-4.57-26.863c-4.192-15.103-9.685-24.591-9.74-24.688a.286.286 0 0 1 .02-.319.287.287 0 0 1 .404-.054c.03.023.055.051.074.084.055.095 5.586 9.65 9.798 24.824a132.48 132.48 0 0 1 4.589 26.977c.715 11.245-.1 22.389-2.415 33.123a.285.285 0 0 1-.334.222z"/><path fill="#bdd0fb" d="M45.155 94.381c-1.268-3.856-4.65-7.31-7.22-10.77-1.358-1.829-2.524-3.736-3.22-5.916-.697-2.18-.85-4.814-2.732-6.373-3.792-3.141-7.033.795-7.888 5.031-.99 4.912 1.163 11.046 2.349 16.003.715 2.989 1.145 6.208 2.187 9.096 1.725 4.783 4.327 7.396 7.554 8.419a7.332 7.332 0 0 0 4.618-.063 7.31 7.31 0 0 0 3.66-2.812c1.642-2.426 2.74-6.393.692-12.615z"/><path fill="url(#c)" d="M43.96 115.963a.281.281 0 0 1-.13-.031.28.28 0 0 1-.102-.086c-.036-.05-3.714-5.063-7.557-12.598-3.55-6.958-7.973-17.558-8.895-28.533a.287.287 0 0 1 .473-.244c.059.05.095.12.102.195 1.748 20.833 16.196 40.641 16.341 40.836a.287.287 0 0 1-.06.402.286.286 0 0 1-.171.059z"/><path fill="url(#e)" d="M48.209 20.26a7.523 7.523 0 0 1 2.387-5.246 7.546 7.546 0 0 1 5.402-2.024l64.085 2.143c1.703.057 3.318.764 4.513 1.977s1.878 2.836 1.908 4.537l1.621 92.93a4.876 4.876 0 0 1-1.43 3.541 4.907 4.907 0 0 1-3.543 1.435l-73.495-1.121a4.645 4.645 0 0 1-4.577-4.806z"/><path fill="url(#g)" d="M60.453 117.23h-.011l-8.214-.382a5.092 5.092 0 0 1-4.836-5.229l.415-12.39a.196.196 0 1 1 .393.014l-.415 12.39a4.686 4.686 0 0 0 1.245 3.319 4.7 4.7 0 0 0 3.215 1.503l8.216.38a.195.195 0 0 1 .137.061.197.197 0 0 1-.147.332z"/><path fill="url(#h)" d="M48.132 95.594h-.007a.197.197 0 0 1-.19-.203l.067-2.006a.196.196 0 0 1 .203-.19.195.195 0 0 1 .178.127c.01.025.013.05.012.076l-.067 2.007a.196.196 0 0 1-.197.19z"/><path fill="url(#i)" d="M53.665 14.338a2.183 2.183 0 0 1 1.626-2.054c.303-.08.62-.095.93-.043 8.712 1.477 38.683 6.148 63.628 5.072a2.027 2.027 0 0 1 2.12 1.98l1.834 93.351a2.334 2.334 0 0 1-2.271 2.373c-10.485.268-53.659 1.219-68.98-.902a1.843 1.843 0 0 1-1.591-1.875z"/><path fill="url(#j)" d="M54.616 16.708a2.102 2.102 0 0 1 1.565-1.977 2.11 2.11 0 0 1 .895-.041c8.383 1.421 37.226 5.916 61.233 4.88a1.951 1.951 0 0 1 2.036 1.903l1.768 89.836a2.245 2.245 0 0 1-2.185 2.284c-10.09.259-51.642 1.173-66.383-.868a1.775 1.775 0 0 1-1.531-1.809z"/><path fill="url(#l)" d="M115.769 68.049a.333.333 0 0 0 .346-.346l-.019-.578a.388.388 0 0 0-.369-.372l-54.92-2.268c-.197-.008-.262.114-.145.272l.895 1.2a.845.845 0 0 0 .571.3z"/><path fill="url(#m)" d="M60.806 71.007c-.196-.008-.26.114-.144.268l.895 1.2a.845.845 0 0 0 .571.3l53.642 1.791a.333.333 0 0 0 .346-.345l-.019-.579a.388.388 0 0 0-.369-.371z"/><path fill="url(#n)" d="M68.621 86.016h-.057l-4.569-.196c-.663-.029-1.196-.504-1.239-1.106l-.273-3.84a.846.846 0 0 1 .223-.635 1.022 1.022 0 0 1 .726-.327c.386-.014.917-.041 1.502-.072 1.266-.065 2.725-.14 3.572-.122.619.013 1.141.405 1.27.953.21.893.132 2.554.028 4.326-.034.57-.554 1.02-1.183 1.02zm-.389-5.91c-.858 0-2.146.066-3.277.124-.588.03-1.122.058-1.51.071a.626.626 0 0 0-.447.198.464.464 0 0 0-.123.345l.273 3.84c.029.402.4.72.863.74l4.61.197c.42 0 .767-.285.789-.652.103-1.742.179-3.375-.019-4.212-.09-.368-.462-.642-.894-.65l-.265-.001z"/><path fill="url(#o)" d="M72.378 82.157a.263.263 0 0 0-.278.336l.367 1.608a.484.484 0 0 0 .437.357l42.249.97a.36.36 0 0 0 .251-.102.36.36 0 0 0 .107-.247l.012-.989a.37.37 0 0 0-.358-.37z"/><path fill="url(#p)" d="M63.77 81.301a.703.703 0 0 1 .962.293l.847 1.643a.226.226 0 0 0 .403 0l2.402-4.895a.25.25 0 0 1 .474.123c-.074 1.518-.575 4.396-3.089 6.733 0 0-1.323-.564-2.325-2.968a.735.735 0 0 1 .325-.929z"/><path fill="url(#q)" d="M68.293 95.796h-.057l-4.568-.197c-.663-.028-1.196-.503-1.24-1.104l-.273-3.84a.856.856 0 0 1 .224-.635 1.025 1.025 0 0 1 .726-.328c.385-.013.917-.04 1.502-.071 1.266-.065 2.725-.14 3.571-.122.619.013 1.141.404 1.27.953.21.892.132 2.554.028 4.327-.034.569-.553 1.017-1.183 1.017zm-.389-5.91c-.858 0-2.146.065-3.277.124-.588.03-1.122.057-1.509.072a.626.626 0 0 0-.447.197.463.463 0 0 0-.123.345l.273 3.84c.029.402.4.72.864.74l4.608.197c.422 0 .769-.285.79-.65.103-1.743.179-3.377-.018-4.215-.09-.368-.463-.64-.894-.65h-.267z"/><path fill="url(#r)" d="M63.595 90.472c.962-.034 3.056-.179 4.046-.154.42.008.779.274.865.64.168.714.096 2.116.019 3.412-.024.388-.391.686-.828.668l-3.65-.157c-.447-.02-.812-.338-.84-.737l-.22-3.071c-.021-.317.251-.588.608-.601z"/><path fill="url(#s)" d="M72.05 91.937a.262.262 0 0 0-.284.209.26.26 0 0 0 .006.127l.367 1.607a.484.484 0 0 0 .438.358l42.248.97a.36.36 0 0 0 .362-.349l.011-.99a.37.37 0 0 0-.358-.37z"/><path fill="url(#t)" d="M67.966 105.577h-.058l-4.569-.197c-.663-.029-1.195-.504-1.238-1.105l-.274-3.839a.847.847 0 0 1 .224-.634 1.023 1.023 0 0 1 .725-.329c.386-.013.917-.04 1.502-.07 1.267-.066 2.725-.14 3.572-.123.619.013 1.141.405 1.27.953.21.893.133 2.554.028 4.326-.034.568-.554 1.018-1.182 1.018zm-.39-5.911c-.858 0-2.146.066-3.277.124-.588.03-1.122.058-1.51.071a.625.625 0 0 0-.447.199.464.464 0 0 0-.123.344l.273 3.839c.029.402.4.72.863.741l4.61.197c.42 0 .767-.287.79-.652.102-1.742.178-3.375-.02-4.214-.089-.367-.462-.64-.894-.65h-.264z"/><path fill="url(#u)" d="M63.267 100.252c.963-.033 3.056-.179 4.046-.155.42.009.78.274.865.641.168.714.095 2.116.018 3.412-.022.388-.39.686-.826.667l-3.652-.156c-.447-.019-.81-.338-.84-.737l-.218-3.067c-.023-.321.25-.593.607-.605z"/><path fill="url(#v)" d="M71.722 101.718a.261.261 0 0 0-.278.335l.367 1.607a.483.483 0 0 0 .437.357l42.25.97a.356.356 0 0 0 .357-.349l.012-.989a.368.368 0 0 0-.353-.37z"/><path fill="url(#w)" d="M92.438 1.54C90.177-.143 88.162-.18 86.73.19a2.83 2.83 0 0 0-2.107 2.9l.389 6.685 7.25.887s4.609-5.816.175-9.121zM89.06 6.81a1.816 1.816 0 0 1-1.635-1.177 1.809 1.809 0 0 1 1.406-2.422 1.817 1.817 0 0 1 1.835.832 1.809 1.809 0 0 1-1.61 2.764z"/><path fill="url(#x)" d="M85.84 7.014a.197.197 0 0 1-.197-.185l-.061-1.063a.195.195 0 0 1 .108-.194.197.197 0 0 1 .284.17l.062 1.064a.197.197 0 0 1-.184.208zM85.72 4.93a.198.198 0 0 1-.196-.186l-.048-.804A2.714 2.714 0 0 1 87.5 1.156a5.485 5.485 0 0 1 2.671-.02.197.197 0 0 1-.09.382 5.092 5.092 0 0 0-2.48.019 2.325 2.325 0 0 0-1.729 2.38l.047.804a.196.196 0 0 1-.185.207z"/><path fill="url(#y)" d="m74.946 13.742.112-3.348a2.042 2.042 0 0 1 1.376-1.863c.26-.09.535-.127.809-.108l23.093 1.564a1.989 1.989 0 0 1 1.856 1.931l.089 3.224z"/><path fill="#fff" d="M83.713 9.923h-.007l-.997-.034a.197.197 0 0 1-.183-.28.196.196 0 0 1 .196-.112l.995.033a.197.197 0 0 1 .194.2.196.196 0 0 1-.2.193z"/><path fill="url(#z)" d="M76.238 12.754h-.007a.197.197 0 0 1-.19-.203l.046-1.354a1.923 1.923 0 0 1 1.986-1.855l3.655.122a.197.197 0 0 1 .202.203.195.195 0 0 1-.136.18.197.197 0 0 1-.079.01l-3.658-.122a1.534 1.534 0 0 0-1.58 1.475l-.045 1.355a.196.196 0 0 1-.194.189z"/><path fill="url(#A)" d="m67.745 12.275 40.429 1.35a2.99 2.99 0 0 1 2.862 2.573l.028.198a2.563 2.563 0 0 1-2.63 2.915l-41.478-1.386a1.67 1.67 0 0 1-1.61-1.801l.151-1.851a2.175 2.175 0 0 1 2.248-1.998z"/><path fill="url(#C)" d="M107.5 42.704a.969.969 0 0 0-.262-.723 25.627 25.627 0 0 0-15.515-7.824.96.96 0 0 0-1.073.909l-.405 9.428a.955.955 0 0 0 .795.983 14.455 14.455 0 0 1 7.497 3.767.959.959 0 0 0 1.261.054l7.351-5.914a.95.95 0 0 0 .351-.68z"/><path fill="url(#D)" d="M87.642 33.982a25.649 25.649 0 0 0-16.133 6.47.96.96 0 0 0-.027 1.406l6.812 6.519a.956.956 0 0 0 1.264.053 14.24 14.24 0 0 1 7.802-3.115.961.961 0 0 0 .883-.911l.405-9.426a.963.963 0 0 0-1.002-.998z"/><path fill="url(#E)" d="M109.825 45.153a.954.954 0 0 0-.652-.406.962.962 0 0 0-.741.201l-7.352 5.92a.958.958 0 0 0-.214 1.244 14.362 14.362 0 0 1 2.111 7.223.959.959 0 0 0 .917.937l9.406.402a.956.956 0 0 0 .999-.952 25.5 25.5 0 0 0-4.474-14.569z"/><path fill="url(#F)" d="m76.869 49.823-6.816-6.512a.96.96 0 0 0-1.405.09 25.482 25.482 0 0 0-5.705 14.119.957.957 0 0 0 .914 1.034l9.407.403a.958.958 0 0 0 .992-.856c.27-2.54 1.21-4.963 2.724-7.021a.955.955 0 0 0-.111-1.257z"/><path fill="url(#G)" d="M88.094 61.713a3.49 3.49 0 0 1-3.021-2.014c-.436-.932-.674-2.37.669-3.93 1.893-2.192 6.155-8.32 7.9-10.852a.76.76 0 0 1 .664-.332.77.77 0 0 1 .722.613.765.765 0 0 1-.007.337l-3.12 12.55a6.363 6.363 0 0 1-.44 1.517 3.502 3.502 0 0 1-3.367 2.111zm.35-4.495a.65.65 0 0 0-.61.93.649.649 0 0 0 .553.365.65.65 0 0 0 .605-.926.648.648 0 0 0-.548-.369z"/><path fill="url(#H)" d="m91.444 57.995 3.122-12.568a.305.305 0 0 0-.38-.367.306.306 0 0 0-.17.12c-1.877 2.733-6.041 8.708-7.93 10.895-1.122 1.3-1.033 2.5-.6 3.43a3.038 3.038 0 0 0 2.8 1.747 3.044 3.044 0 0 0 2.745-1.831c.198-.456.336-.935.413-1.426zm-3.496.876a1.109 1.109 0 1 1 1.278-1.76 1.108 1.108 0 0 1-1.278 1.76z"/><path fill="#91b3fa" d="M65.02 25.918a.792.792 0 0 1-.563-.268 1.266 1.266 0 0 0-.794-.33c-.76-.03-1.398.653-1.43 1.518s.548 1.593 1.309 1.623c.3.012.595-.085.83-.273a.787.787 0 0 1 1.054 1.165 2.625 2.625 0 0 1-1.948.782c-1.566-.062-2.772-1.564-2.706-3.354s1.394-3.195 2.96-3.134a2.66 2.66 0 0 1 1.889.939v.006a.767.767 0 0 1 .218.573.788.788 0 0 1-.82.753zM70.026 27.685l.545 1.514a.82.82 0 0 1 .069.192v.013a.813.813 0 0 1-1.13.904.815.815 0 0 1-.382-.352h-.006l-.015-.043a.796.796 0 0 1-.055-.153l-.673-1.869-.79-.03-.062 1.574v.083a.77.77 0 0 1-.802.74.772.772 0 0 1-.74-.8c0-.027 0-.054.006-.08l.192-4.883h.008a.814.814 0 0 1 .84-.722l2.544.1h.022a1.944 1.944 0 0 1 1.855 1.723 1.937 1.937 0 0 1-1.43 2.088zm-.08-1.672a.508.508 0 0 0-.49-.527h-.008l-1.559-.061-.04 1.02 1.56.061h.007a.51.51 0 0 0 .53-.493zM75.443 25.519v.007l-2.19-.09-.043 1.116 1.806.071h.007a.716.716 0 1 1-.057 1.43h-.006l-1.806-.071-.036.928 1.747.067v.007a.793.793 0 0 1 .48 1.367.794.794 0 0 1-.555.215h-.071l-2.541-.1v-.019a.716.716 0 0 1-.526-.676h-.007l.201-5.137a.714.714 0 0 1 .741-.654l2.911.115h.007a.716.716 0 0 1 .685 1.028.714.714 0 0 1-.74.392zM80.805 28.6a2.207 2.207 0 0 1-2.23 2.122v.006l-1.323-.05v-.008a1.024 1.024 0 0 1-.92-.952h-.007l.053-1.33.078-1.998.05-1.284a1.022 1.022 0 0 1 1-.922l1.325.052v.005a2.215 2.215 0 0 1 2.043 2.468l-.067 1.72a1.4 1.4 0 0 1-.002.171zm-1.309-2.273a.751.751 0 0 0-.724-.756h-.033l-.936-.036-.15 3.815.936.036v-.006l.032.007a.748.748 0 0 0 .775-.664h.006v-.058l.09-2.317zM81.765 30.849a.717.717 0 0 1-.69-.73l.199-5.067v-.01a.714.714 0 0 1 .743-.687.717.717 0 0 1 .688.742l-.199 5.063a.714.714 0 0 1-.741.689zM87.466 26.034l-1.163-.045-.164 4.19a.74.74 0 0 1-1.276.558.74.74 0 0 1-.205-.518.4.4 0 0 1 .01-.089l.164-4.197-1.124-.044v-.006a.728.728 0 1 1 .056-1.453v-.01l3.756.147v.006a.729.729 0 0 1 .466 1.26c-.142.131-.33.2-.523.193zM94.534 29.343v.047c-.084 1.16-.958 1.928-2.012 1.887l-.112-.008h-.053c-.593-.024-1.57-.464-1.651-.833v-.122c.007-.17.068-.468.447-.692a.442.442 0 0 1 .217-.05c.278.01.483.318.95.337.506.02.739-.15.748-.38a.4.4 0 0 0-.008-.09c-.096-.516-1.331-1.227-1.699-1.554a1.478 1.478 0 0 1-.467-1.144c.046-1.181.926-2 1.982-1.959.035 0 .07 0 .105.007h.053c.599.023 1.668.467 1.749.836 0 .017.004.062 0 .123-.007.17-.067.467-.447.691a.514.514 0 0 1-.26.053c-.344-.013-.746-.28-1.124-.294a.742.742 0 0 0-.09 0 .537.537 0 0 0-.377.496.362.362 0 0 0 .118.3c.208.183 1.027.858 1.35 1.124.31.254.6.713.581 1.225zM99.27 27.256a.791.791 0 0 1-.563-.268 1.26 1.26 0 0 0-.794-.33c-.76-.03-1.398.653-1.431 1.517-.033.865.549 1.594 1.31 1.624.3.013.594-.082.83-.268a.788.788 0 0 1 1.238.917.763.763 0 0 1-.184.248 2.63 2.63 0 0 1-1.95.781c-1.566-.061-2.773-1.564-2.706-3.354.066-1.79 1.394-3.194 2.96-3.133a2.657 2.657 0 0 1 1.889.938v.007a.773.773 0 0 1 .218.573.79.79 0 0 1-.817.748zM106.031 28.546c-.07 1.79-1.4 3.194-2.972 3.132s-2.789-1.564-2.719-3.354 1.401-3.2 2.973-3.14 2.788 1.571 2.718 3.362zm-1.468-.057c.034-.87-.555-1.594-1.316-1.625-.76-.03-1.405.648-1.439 1.518-.034.871.556 1.594 1.316 1.624.76.03 1.406-.648 1.439-1.517zM110.291 29.258l.544 1.513c.031.06.055.125.069.192l.005.014a.814.814 0 0 1-1.13.904.815.815 0 0 1-.383-.353h-.005l-.015-.042a.828.828 0 0 1-.056-.153l-.677-1.866-.789-.03-.062 1.574v.083a.772.772 0 1 1-1.536-.14l.192-4.882h.009a.808.808 0 0 1 .84-.723v-.004l2.543.1h.022a1.945 1.945 0 0 1 1.855 1.723 1.942 1.942 0 0 1-1.43 2.089zm-.082-1.672a.505.505 0 0 0-.296-.482.501.501 0 0 0-.193-.046h-.004l-1.559-.06-.04 1.02 1.559.06h.008a.512.512 0 0 0 .525-.492zM115.709 27.091v.007l-2.191-.089-.043 1.115 1.806.07h.007a.725.725 0 0 1 .499.23.725.725 0 0 1 .191.516.712.712 0 0 1-.23.498.73.73 0 0 1-.516.19h-.007l-1.806-.07-.036.934 1.749.068v.006a.794.794 0 0 1 .752.828.792.792 0 0 1-.827.754h-.072l-2.54-.1v-.019a.717.717 0 0 1-.527-.677h-.006l.201-5.137a.717.717 0 0 1 .742-.653l2.91.113h.006a.713.713 0 0 1 .685 1.028.71.71 0 0 1-.445.372.714.714 0 0 1-.295.02z"/><g fill="#7d97f4"><path d="m35.793 62.275-.521.184a.17.17 0 0 1-.204-.23c.018-.04.05-.071.091-.087l.522-.183a.17.17 0 0 1 .209.103.167.167 0 0 1-.097.212zM34.096 62.943l-.5.234a.172.172 0 0 1-.217-.086.17.17 0 0 1 .071-.222l.501-.232a.17.17 0 0 1 .228.21.17.17 0 0 1-.084.096zM32.467 63.771l-.476.28a.174.174 0 0 1-.238-.058.172.172 0 0 1 .059-.237l.477-.28a.17.17 0 0 1 .173.295zM30.928 64.748l-.447.322a.174.174 0 0 1-.273-.168.173.173 0 0 1 .07-.113l.447-.322a.173.173 0 0 1 .202.28zM29.479 65.859l-.419.357a.18.18 0 0 1-.314-.144.178.178 0 0 1 .085-.124l.42-.357a.179.179 0 0 1 .228.268zM28.13 67.092l-.387.394a.177.177 0 0 1-.13.073.179.179 0 0 1-.123-.32l.388-.395a.18.18 0 0 1 .232.016.179.179 0 0 1 .02.232zM26.891 68.432l-.358.425a.177.177 0 0 1-.122.072.178.178 0 0 1-.152-.3l.358-.424a.18.18 0 0 1 .303.102.178.178 0 0 1-.03.126zM25.761 69.871l-.318.447a.18.18 0 0 1-.326-.073.18.18 0 0 1 .03-.134l.323-.449a.18.18 0 0 1 .291.21zM24.754 71.39l-.282.474a.184.184 0 0 1-.182.088.182.182 0 0 1-.13-.272l.282-.475a.182.182 0 0 1 .331.047.181.181 0 0 1-.019.137zM23.861 72.986l-.243.495a.184.184 0 0 1-.33-.161l.245-.495a.182.182 0 0 1 .328.161zM23.106 74.645l-.205.513a.182.182 0 0 1-.099.101.187.187 0 0 1-.202-.037.185.185 0 0 1-.043-.201l.206-.512a.184.184 0 0 1 .236-.094.185.185 0 0 1 .107.23zM22.475 76.359l-.164.527a.186.186 0 0 1-.092.11.188.188 0 0 1-.266-.221l.165-.527a.187.187 0 0 1 .358.11zM21.985 78.115l-.121.536a.19.19 0 0 1-.37-.009.19.19 0 0 1 .001-.073l.123-.536a.187.187 0 0 1 .224-.142.188.188 0 0 1 .143.224zM21.632 79.906l-.077.546a.191.191 0 0 1-.378-.053l.078-.546a.19.19 0 0 1 .214-.161.19.19 0 0 1 .162.214zM21.433 81.718l-.032.551a.192.192 0 0 1-.383-.021l.032-.55a.19.19 0 0 1 .063-.132.191.191 0 0 1 .32.153zM21.387 83.54l.017.55a.193.193 0 0 1-.188.21.194.194 0 0 1-.2-.2L21 83.55a.192.192 0 0 1 .187-.198.194.194 0 0 1 .2.187zM21.496 85.36l.063.548a.192.192 0 0 1-.041.144.195.195 0 0 1-.347-.1l-.062-.548a.194.194 0 0 1 .313-.17c.04.031.067.077.074.127zM21.754 87.165l.106.542a.196.196 0 0 1-.304.2.196.196 0 0 1-.083-.125l-.105-.542a.196.196 0 0 1 .3-.191.196.196 0 0 1 .086.116zM22.147 88.946l.147.536a.198.198 0 0 1-.14.241.199.199 0 0 1-.243-.136l-.146-.536a.197.197 0 0 1 .135-.256.197.197 0 0 1 .215.077.197.197 0 0 1 .032.074zM22.684 90.692l.186.52a.2.2 0 0 1-.274.248.2.2 0 0 1-.103-.114l-.186-.52a.2.2 0 1 1 .377-.133zM23.343 92.394l.223.504a.202.202 0 0 1-.104.268.202.202 0 0 1-.223-.037.198.198 0 0 1-.045-.066l-.22-.51a.202.202 0 1 1 .369-.163zM24.122 94.045l.259.487a.203.203 0 0 1-.358.19l-.258-.488a.202.202 0 0 1 .31-.257c.02.02.037.042.048.068zM25.015 95.637l.29.47a.203.203 0 0 1-.007.227.205.205 0 0 1-.341-.012l-.29-.465a.204.204 0 0 1 .222-.307.205.205 0 0 1 .128.091zM26.014 97.166l.322.446a.206.206 0 0 1-.047.289.208.208 0 0 1-.29-.048l-.322-.446a.206.206 0 0 1 .203-.324.207.207 0 0 1 .134.084zM27.114 98.625l.352.426a.21.21 0 1 1-.323.267l-.35-.426a.209.209 0 1 1 .321-.268zM28.307 100.006l.383.405a.204.204 0 0 1 .057.15.208.208 0 0 1-.136.19.204.204 0 0 1-.08.013.2.2 0 0 1-.147-.066l-.379-.402a.212.212 0 0 1 .018-.287.21.21 0 0 1 .288 0zM29.59 101.304l.405.376a.214.214 0 0 1 .01.3.212.212 0 0 1-.3.009l-.403-.376a.212.212 0 0 1 .289-.309zM30.955 102.521l.428.349a.218.218 0 0 1 .092.145.216.216 0 0 1-.046.166.205.205 0 0 1-.068.055.214.214 0 0 1-.246-.036l-.428-.35a.211.211 0 0 1-.024-.293.217.217 0 0 1 .14-.077.216.216 0 0 1 .153.041zM32.398 103.642l.448.319a.217.217 0 0 1 .049.299.217.217 0 0 1-.299.052l-.447-.321a.21.21 0 0 1-.084-.223.216.216 0 0 1 .173-.163.215.215 0 0 1 .16.037zM33.914 104.663l.472.288a.215.215 0 0 1 .061.291.216.216 0 0 1-.288.078l-.471-.289a.217.217 0 0 1-.072-.297c.03-.049.079-.084.134-.097s.115-.004.164.026zM35.494 105.578l.49.255a.217.217 0 1 1-.202.386l-.49-.255a.212.212 0 0 1-.107-.128.216.216 0 0 1 .068-.232.233.233 0 0 1 .075-.041.242.242 0 0 1 .084-.009.234.234 0 0 1 .082.024zM37.134 106.383l.506.221a.219.219 0 0 1-.01.406.22.22 0 0 1-.169-.004l-.506-.222a.22.22 0 1 1 .179-.401zM38.827 107.077l.52.189a.222.222 0 0 1 .133.283.223.223 0 0 1-.285.133l-.519-.189a.221.221 0 0 1-.132-.283.22.22 0 0 1 .284-.132zM40.555 107.663l.53.155a.228.228 0 0 1 .16.19.224.224 0 0 1-.114.22.222.222 0 0 1-.17.018l-.53-.157a.224.224 0 0 1-.16-.189.224.224 0 0 1 .049-.163.22.22 0 0 1 .236-.074zM42.324 108.14l.537.122a.225.225 0 0 1-.1.438l-.537-.123a.224.224 0 0 1-.17-.268.225.225 0 0 1 .27-.169zM44.112 108.509l.546.089a.227.227 0 0 1-.075.446l-.546-.089a.227.227 0 0 1-.094-.407.226.226 0 0 1 .17-.039zM45.923 108.771l.55.059c.06.007.115.037.153.084a.227.227 0 0 1-.202.369l-.55-.06a.226.226 0 0 1-.12-.404.258.258 0 0 1 .08-.041.244.244 0 0 1 .089-.007zM47.745 108.93l.553.027a.23.23 0 0 1-.024.459l-.552-.027a.232.232 0 0 1-.226-.241.232.232 0 0 1 .078-.161.235.235 0 0 1 .171-.056zM49.57 108.983h.555a.235.235 0 0 1 .218.232.235.235 0 0 1-.218.231h-.553a.232.232 0 0 1-.154-.389.232.232 0 0 1 .154-.072zM51.406 108.94l.552-.034c.062-.003.123.018.17.059s.074.098.077.16-.017.123-.058.169-.1.074-.161.078l-.552.032a.233.233 0 0 1-.188-.386.236.236 0 0 1 .16-.078zM53.227 108.796l.55-.062a.236.236 0 0 1 .247.207.234.234 0 0 1-.195.257l-.55.061a.232.232 0 0 1-.208-.376.237.237 0 0 1 .156-.087zM55.042 108.556l.545-.089a.235.235 0 0 1 .23.366.238.238 0 0 1-.152.095l-.545.089a.231.231 0 0 1-.248-.101.238.238 0 0 1-.03-.182.23.23 0 0 1 .2-.177zM56.84 108.219l.536-.12a.235.235 0 0 1 .25.354.252.252 0 0 1-.063.066.253.253 0 0 1-.084.037l-.536.12a.234.234 0 1 1-.102-.457zM58.62 107.788l.532-.148a.236.236 0 0 1 .251.336.239.239 0 0 1-.125.114l-.532.148a.23.23 0 0 1-.185-.016.232.232 0 0 1-.092-.327.232.232 0 0 1 .15-.109zM60.373 107.264l.524-.179a.24.24 0 0 1 .18.013.234.234 0 0 1-.03.433l-.524.179a.235.235 0 0 1-.18-.013.236.236 0 0 1 .03-.433zM62.095 106.648l.514-.204a.23.23 0 0 1 .186-.005.235.235 0 0 1 .131.132.233.233 0 0 1-.061.261.222.222 0 0 1-.082.048l-.513.205c-.058.019-.12.016-.176-.009s-.098-.071-.12-.127a.235.235 0 0 1 .121-.301zM63.78 105.94l.503-.231a.237.237 0 0 1 .32.297.235.235 0 0 1-.123.132l-.503.23c-.057.026-.122.028-.18.006s-.107-.066-.133-.122a.235.235 0 0 1 .116-.312zM65.431 105.149l.491-.253a.24.24 0 0 1 .307.107.237.237 0 0 1-.09.312l-.49.253a.235.235 0 0 1-.308-.107.236.236 0 0 1 .09-.312zM67.045 104.283l.48-.276a.237.237 0 1 1 .235.409l-.478.276a.236.236 0 0 1-.324-.086.238.238 0 0 1 .087-.323zM68.618 103.345l.467-.296a.245.245 0 0 1 .086-.034.24.24 0 0 1 .274.193.233.233 0 0 1-.039.177.25.25 0 0 1-.067.064l-.466.295a.243.243 0 0 1-.086.034.24.24 0 0 1-.273-.285.233.233 0 0 1 .104-.148zM70.15 102.341l.455-.315a.237.237 0 0 1 .268.39l-.455.314a.237.237 0 0 1-.34-.053.23.23 0 0 1-.036-.183.24.24 0 0 1 .108-.153zM71.643 101.278l.447-.332a.246.246 0 0 1 .176-.045.237.237 0 0 1 .109.426l-.442.331a.237.237 0 0 1-.334-.048.235.235 0 0 1 .048-.332zM73.097 100.161l.43-.346a.24.24 0 0 1 .39.113.238.238 0 0 1-.09.258l-.431.345a.236.236 0 0 1-.176.051.23.23 0 0 1-.16-.087.232.232 0 0 1-.05-.175.234.234 0 0 1 .087-.159zM74.516 98.996l.42-.357a.237.237 0 0 1 .277-.056.238.238 0 0 1 .034.413l-.42.357a.24.24 0 0 1-.31-.357zM75.896 97.79l.41-.37a.24.24 0 0 1 .321.356l-.41.371a.241.241 0 0 1-.4-.192.24.24 0 0 1 .08-.165zM77.246 96.546l.4-.38a.24.24 0 1 1 .33.346l-.4.38a.24.24 0 0 1-.33-.346zM78.568 95.27l.392-.389a.241.241 0 0 1 .418.169.24.24 0 0 1-.08.172l-.392.388a.243.243 0 0 1-.262.053.241.241 0 0 1-.148-.223.237.237 0 0 1 .072-.17zM79.862 93.968l.385-.396a.242.242 0 0 1 .266-.065.241.241 0 0 1 .135.32.24.24 0 0 1-.055.08l-.385.395a.241.241 0 0 1-.406-.166.24.24 0 0 1 .06-.168zM81.135 92.642l.379-.402a.242.242 0 1 1 .351.33l-.38.401a.24.24 0 0 1-.35-.33zM82.387 91.302l.374-.406a.243.243 0 0 1 .342-.016.241.241 0 0 1 .016.341l-.374.407a.243.243 0 0 1-.358-.326zM83.624 89.94l.37-.41a.242.242 0 0 1 .358.322l-.37.411a.24.24 0 0 1-.267.08.242.242 0 0 1-.147-.321.243.243 0 0 1 .056-.081zM84.856 88.57l.366-.413a.242.242 0 0 1 .358.32l-.367.414a.243.243 0 1 1-.357-.32zM86.073 87.195l.365-.414a.242.242 0 0 1 .364.318l-.365.415a.241.241 0 0 1-.35.031.242.242 0 0 1-.013-.35zM87.289 85.81l.365-.415a.241.241 0 0 1 .26-.07.244.244 0 0 1 .152.306.241.241 0 0 1-.047.082l-.365.416a.243.243 0 0 1-.425-.144.241.241 0 0 1 .06-.175zM88.502 84.427l.365-.416a.244.244 0 0 1 .433.142.242.242 0 0 1-.068.179l-.365.414a.243.243 0 0 1-.365-.32zM89.72 83.043l.367-.413a.243.243 0 0 1 .365.323l-.365.413a.244.244 0 0 1-.365-.323zM90.945 81.666l.37-.411a.245.245 0 0 1 .363.325l-.369.41a.245.245 0 0 1-.344.02.243.243 0 0 1-.019-.344zM92.177 80.298l.373-.408a.244.244 0 1 1 .358.328l-.372.408a.245.245 0 0 1-.407-.16.243.243 0 0 1 .049-.168zM93.425 78.94l.378-.403a.246.246 0 0 1 .423.158.245.245 0 0 1-.065.175l-.378.403a.245.245 0 0 1-.358-.333zM94.692 77.6l.383-.4a.246.246 0 0 1 .358.34l-.383.397a.246.246 0 0 1-.358-.338zM95.978 76.276l.39-.391a.246.246 0 0 1 .419.171.245.245 0 0 1-.071.173l-.39.391a.245.245 0 0 1-.347-.344zM97.29 74.976l.397-.383a.245.245 0 0 1 .4.085.244.244 0 0 1-.058.266l-.398.384a.248.248 0 0 1-.417-.184.246.246 0 0 1 .076-.173zM98.629 73.703l.406-.375a.246.246 0 0 1 .334.357l-.406.375a.246.246 0 0 1-.334-.357zM99.998 72.461l.416-.364a.245.245 0 0 1 .347.022.245.245 0 0 1-.022.347l-.416.365a.25.25 0 0 1-.348-.023.246.246 0 0 1 .023-.347zM101.399 71.257l.426-.352a.248.248 0 0 1 .343.037.248.248 0 0 1-.028.343l-.426.352a.251.251 0 0 1-.182.06.244.244 0 0 1-.216-.175.229.229 0 0 1-.009-.097.246.246 0 0 1 .092-.168zM102.839 70.095l.436-.339a.25.25 0 0 1 .347.043.248.248 0 0 1-.043.347l-.437.338a.248.248 0 0 1-.39-.227.248.248 0 0 1 .088-.162zM104.309 68.978l.448-.323a.247.247 0 1 1 .289.4l-.447.323a.243.243 0 0 1-.184.044.254.254 0 0 1-.091-.033.254.254 0 0 1-.111-.154.26.26 0 0 1-.003-.096.249.249 0 0 1 .099-.16zM105.828 67.915l.46-.306a.248.248 0 1 1 .274.413l-.46.305a.25.25 0 0 1-.344-.07.249.249 0 0 1 .07-.342zM107.384 66.913l.472-.288a.25.25 0 0 1 .33.09.25.25 0 0 1-.071.334l-.473.287a.247.247 0 0 1-.33-.09.244.244 0 0 1-.03-.18.244.244 0 0 1 .102-.153zM108.978 65.973l.482-.268a.254.254 0 0 1 .193-.029.247.247 0 0 1 .184.214.246.246 0 0 1-.057.186.25.25 0 0 1-.077.062l-.483.268a.254.254 0 0 1-.195.03.247.247 0 0 1-.156-.12.249.249 0 0 1 .109-.343zM110.612 65.094l.493-.25a.246.246 0 0 1 .191-.013.256.256 0 0 1 .146.125c.014.029.023.06.026.094a.265.265 0 0 1-.012.096.27.27 0 0 1-.048.085.26.26 0 0 1-.077.06l-.493.25a.253.253 0 0 1-.337-.11.248.248 0 0 1 .111-.336zM112.269 64.28l.503-.232a.25.25 0 0 1 .329.124c.027.06.03.127.008.189a.25.25 0 0 1-.129.14l-.503.23a.25.25 0 0 1-.208-.452zM113.961 63.53l.511-.211a.25.25 0 0 1 .191.46l-.511.211a.25.25 0 0 1-.318-.137.246.246 0 0 1 .127-.322zM115.683 62.84l.518-.193a.253.253 0 0 1 .272.062.248.248 0 0 1-.01.354.25.25 0 0 1-.083.052l-.519.192a.252.252 0 0 1-.324-.144.25.25 0 0 1 .145-.323zM117.425 62.216l.525-.173a.253.253 0 0 1 .197.007.24.24 0 0 1 .08.06c.023.026.04.055.051.087a.258.258 0 0 1-.017.196.257.257 0 0 1-.153.123l-.525.179a.251.251 0 0 1-.303-.35.25.25 0 0 1 .145-.125zM119.192 61.656l.53-.155a.253.253 0 0 1 .304.172.252.252 0 0 1-.162.308l-.532.155a.252.252 0 0 1-.311-.17.252.252 0 0 1 .171-.31zM120.971 61.16l.536-.136a.256.256 0 0 1 .197.021c.029.017.055.04.076.066.02.027.035.058.044.09a.26.26 0 0 1 .005.101.25.25 0 0 1-.197.207l-.537.136a.253.253 0 0 1-.318-.178.245.245 0 0 1 .031-.196.248.248 0 0 1 .163-.112zM122.772 60.726l.537-.116a.252.252 0 0 1 .292.194.252.252 0 0 1-.186.296l-.536.117a.253.253 0 0 1-.3-.192.251.251 0 0 1 .193-.298zM124.587 60.358l.544-.098a.258.258 0 0 1 .189.041.254.254 0 0 1 .102.26.246.246 0 0 1-.11.158.241.241 0 0 1-.091.035l-.544.098a.252.252 0 0 1-.252-.39.253.253 0 0 1 .162-.104zM126.246 60.278l.551.029c.067.003.131.03.177.072.047.044.073.1.073.158a.194.194 0 0 1-.075.15.262.262 0 0 1-.178.054l-.551-.029a.287.287 0 0 1-.178-.073.21.21 0 0 1-.072-.157.19.19 0 0 1 .075-.15.26.26 0 0 1 .178-.054z"/></g><path fill="url(#I)" d="M43.895 118.102c-1.112.096-3.04.251-4.566.318-.915.04-1.442-.049-1.746-.17v.096a.314.314 0 0 0 .3.297c1.99.113 3.987.115 5.978.006a.211.211 0 0 0 .109-.034.218.218 0 0 0 .105-.192.224.224 0 0 0-.03-.11 1.865 1.865 0 0 0-.15-.211z"/><path fill="url(#J)" d="M39.334 118.421c1.52-.067 3.454-.223 4.566-.319-1.096-1.34-4.566-2.243-4.566-2.243h-.984a4.103 4.103 0 0 0-.765 2.391c.304.122.831.211 1.749.171z"/><path fill="url(#L)" d="m38.184 114.26.09 1.813a.415.415 0 0 0 .358.389c.247.038.5.017.737-.06a.49.49 0 0 0 .33-.377l.318-1.765z"/><path fill="url(#M)" d="M25.45 118.407c-.484-.067-.702-.317-.794-.584v.007c-.071.282.09.575.423.714.372.144.772.205 1.17.178.363-.014.695-.164.879-.403-.364.179-.874.201-1.679.088z"/><path fill="url(#N)" d="M27.723 114.252h-.804c-1.232-.026-2.005 2.569-2.259 3.571.09.268.31.518.793.585.805.113 1.314.09 1.678-.089.666-.875.996-2.156 1.154-2.903a1.019 1.019 0 0 0-.562-1.164z"/><path fill="url(#O)" d="m27.017 112.566-.448 1.786a.484.484 0 0 0 .253.548c.25.129.605.268.93.225a.399.399 0 0 0 .331-.268l.66-1.875z"/><path fill="url(#P)" d="M26.48 113.081c.558.495 2.376.561 2.376.561 6.547-15.689 9.223-17.918 9.223-17.918-.945 5.922-.151 19.031-.151 19.031 1.079.476 2.472 0 2.472 0a100.908 100.908 0 0 1 3.343-24.813c-4.425-.1-6.778-1.608-7.546-2.218-3.687 5.937-9.717 25.357-9.717 25.357z"/><path fill="url(#Q)" d="M37.325 69.682c-.839 4.171-.537 11.636-.341 15.042.055.956-.614 2.283-1.155 3.189a.284.284 0 0 0 .116.399c.905.464 3.972 1.905 7.528 2.084a.507.507 0 0 0 .51-.379c2.637-9.831 5.7-16.114 5.7-16.114-3.381-5.393-12.358-4.22-12.358-4.22z"/><path fill="url(#R)" d="M38.53 95.353a.212.212 0 0 1-.182-.107.21.21 0 0 1 .003-.21 6.578 6.578 0 0 1 2.594-2.251.21.21 0 0 1 .24.025.209.209 0 0 1-.061.352 6.272 6.272 0 0 0-2.415 2.09.208.208 0 0 1-.179.101z"/><path fill="url(#S)" d="M32.072 81.653c.268 1.943 1.063 4.062 2.653 6.313l.605-.492s-.698-2.826-.302-6.034c-.98-.19-2.138.006-2.956.213z"/><path fill="url(#T)" d="m38.26 74.828-.936-5.146s-6.25 4.77-5.253 11.97c.818-.206 1.976-.403 2.957-.212.285-2.31 1.138-4.819 3.232-6.612z"/><path fill="url(#U)" d="M49.683 73.903 47.27 79.09c.39 3.132 2.074 4.487 3.892 5.006.089-1.162.362-2.302.81-3.379-2.32-2.393-2.288-6.814-2.288-6.814z"/><path fill="url(#V)" d="M51.971 80.717a10.985 10.985 0 0 0-.81 3.38c4.847 1.875 6.13-1.765 6.13-1.765l-.894-.158c-2.025.213-3.438-.438-4.426-1.457z"/><path fill="url(#W)" d="M47.462 67.498 46.3 71.773a.831.831 0 0 1-1.115.553 16.948 16.948 0 0 1-1.678-.765 1.122 1.122 0 0 1-.396-1.608l2.421-3.604z"/><path fill="url(#X)" d="M59.514 79.472 29.674 90.32a2.286 2.286 0 0 0-1.503 2.178c.005.314.075.625.205.91l.09.2a2.12 2.12 0 0 0 2.012 1.235c.279-.01.553-.076.807-.192L60.26 81.266z"/><path fill="#fff" d="M73.23 87.392c8.136 0 14.732-6.467 14.732-14.444S81.366 58.503 73.23 58.503 58.498 64.97 58.498 72.948s6.595 14.444 14.732 14.444z" opacity=".5"/><path fill="url(#Y)" d="M73.228 56.874c-9.053 0-16.393 7.197-16.393 16.074s7.34 16.073 16.393 16.073 16.393-7.196 16.393-16.073-7.336-16.074-16.393-16.074zm0 29.785c-7.723 0-13.984-6.14-13.984-13.711s6.26-13.713 13.984-13.713 13.985 6.14 13.985 13.713-6.258 13.711-13.985 13.711z"/><path fill="url(#Z)" d="M58.085 74.927a.097.097 0 0 1-.097-.09c-.05-.38-.083-.767-.102-1.15a.098.098 0 1 1 .197-.01c.018.378.051.76.1 1.135a.099.099 0 0 1-.085.11zm.113-4.495h-.018a.1.1 0 0 1-.08-.114c.187-1.035.483-2.047.884-3.02 2.362-5.714 7.954-9.415 14.247-9.415a15.53 15.53 0 0 1 8.25 2.354.098.098 0 0 1 .032.136.098.098 0 0 1-.135.031 15.342 15.342 0 0 0-8.147-2.321c-6.212 0-11.734 3.647-14.065 9.294a14.618 14.618 0 0 0-.872 2.975.099.099 0 0 1-.096.08z"/><path fill="url(#aa)" d="M48.438 63.667c.04.063 1.125 4.845 1.125 4.845l-2.748.561-1.7-4.38s2.655-2.073 3.323-1.026z"/><path fill="url(#ab)" d="m46.105 65.392.716 2.377a.311.311 0 0 0 .04.089c.104.164.505.703 1.032.26.479-.402.922-.763 1.317-.813a.346.346 0 0 1 .383.268c.176.756.292 1.524.348 2.299a.345.345 0 0 1-.299.357c-.536.075-1.667.202-2.603.089a.348.348 0 0 1-.283-.214c-.232-.577-.943-2.327-1.218-2.785-.256-.428-.935-.446-1.221-.437a.342.342 0 0 1-.251-.096c-.238-.23-.686-.808.012-1.443a.346.346 0 0 0 .015-.499c-.268-.282-.556-.773-.052-1.34.505-.565 1.149-.451 1.534-.29A.347.347 0 0 0 46 63.08a.274.274 0 0 1 .289-.12.342.342 0 0 0 .38-.331c.012-.385.173-.865.851-1.042 1.204-.312 1.89.867 1.922 1.725.032.857-1.291 1.121-2.059 1.023-.583-.071-1.045.488-1.233.76a.342.342 0 0 0-.045.297z"/><path fill="url(#ac)" d="M45.806 68.183s-.12-1.491-.735-1.593c-.615-.102-1.24.376-.665 1.237.715 1.071 1.4.356 1.4.356z"/><path fill="#fff" d="M48.704 63.889a.047.047 0 0 1-.035-.015.05.05 0 0 1-.01-.054.05.05 0 0 1 .01-.015c.026-.026.626-.652-.179-1.684a.047.047 0 0 1-.01-.036.047.047 0 0 1 .018-.032.05.05 0 0 1 .07.009c.852 1.101.174 1.805.168 1.812a.048.048 0 0 1-.032.014z"/><path fill="url(#ad)" d="m35.078 87.389 2.824-.23 1.221 1.125s-.288.398-1.193.17c-.904-.229-2.14-.286-2.14-.286s-1.253.562-1.263-.49z"/><path fill="url(#ae)" d="M56.933 82.998c.245.191 1.081-.206 1.593-.481a.59.59 0 0 0 .284-.695c-.123-.388-.328-.888-.581-.951-.42-.106-2.301 1.343-1.296 2.127z"/><path fill="url(#af)" d="M30.259 94.222a.104.104 0 0 1-.033-.005c-1.162-.4-1.43-1.083-1.45-1.586a1.76 1.76 0 0 1 1.15-1.697l3.583-1.394a.097.097 0 0 1 .127.055.1.1 0 0 1-.055.128l-3.584 1.395a1.566 1.566 0 0 0-1.024 1.505c.027.642.47 1.115 1.318 1.408a.097.097 0 0 1 .06.125.1.1 0 0 1-.093.066z"/><path fill="url(#ag)" d="M34.65 89.299a.098.098 0 0 1-.036-.19l.465-.178a.1.1 0 0 1 .109.06.098.098 0 0 1-.037.118l-.466.178a.1.1 0 0 1-.035.012z"/></svg>