<svg xmlns="http://www.w3.org/2000/svg" width="64" height="65" fill="none" viewBox="0 0 64 65"><path fill="#fff" d="M0 .5h64v64H0z"/><path fill="#000" fill-rule="evenodd" d="M8.288 13.475a1.72 1.72 0 0 0-1.718 1.721v30.455c0 .95.77 1.721 1.718 1.721h47.424a1.72 1.72 0 0 0 1.718-1.72V15.195a1.72 1.72 0 0 0-1.718-1.721zM4.48 15.196a3.812 3.812 0 0 1 3.808-3.816h47.424a3.812 3.812 0 0 1 3.808 3.816v30.455a3.812 3.812 0 0 1-3.808 3.816H8.288a3.812 3.812 0 0 1-3.808-3.816zm.46 37.377c0-.579.468-1.048 1.045-1.048h52.49c.577 0 1.045.47 1.045 1.048 0 .578-.468 1.047-1.045 1.047H5.985a1.046 1.046 0 0 1-1.045-1.047z" clip-rule="evenodd"/><path fill="#fdd335" stroke="#000" stroke-width=".5" d="M26.913 41.968c-.434 0-.828-.122-1.181-.367a1.9 1.9 0 0 1-.733-.937l-3.952-9.289h-5.745c-.353 0-.645-.115-.876-.346-.23-.23-.346-.523-.346-.876s.115-.645.346-.876c.231-.23.523-.346.876-.346h6.64c.245 0 .463.068.653.204.19.136.34.312.448.53l3.87 9.085 7.619-19.026a1.9 1.9 0 0 1 .733-.937 2.029 2.029 0 0 1 1.182-.367c.434 0 .828.122 1.181.367a1.9 1.9 0 0 1 .733.937l3.952 9.207h5.745c.353 0 .645.115.876.346.23.231.346.523.346.876s-.116.645-.346.876c-.231.231-.523.347-.876.347h-6.641c-.245 0-.462-.068-.652-.204a1.418 1.418 0 0 1-.448-.53l-3.87-9.003-7.619 19.025a1.9 1.9 0 0 1-.733.937 2.029 2.029 0 0 1-1.182.367z"/></svg>